<svg width="449" height="318" viewBox="0 0 449 318" fill="none" xmlns="http://www.w3.org/2000/svg">
<path d="M2.282 0.668C2.91533 0.668 3.44733 0.896 3.878 1.352C4.334 1.78267 4.562 2.31467 4.562 2.948C4.562 3.58133 4.32133 4.126 3.84 4.582C3.384 5.01267 2.86467 5.228 2.282 5.228C1.69933 5.228 1.16733 5.01267 0.686 4.582C0.23 4.126 0.00200014 3.58133 0.00200014 2.948C0.00200014 2.31467 0.217333 1.78267 0.648 1.352C1.104 0.896 1.64867 0.668 2.282 0.668ZM23.4343 0.668C24.0677 0.668 24.5997 0.896 25.0303 1.352C25.4863 1.78267 25.7143 2.31467 25.7143 2.948C25.7143 3.58133 25.4737 4.126 24.9923 4.582C24.5363 5.01267 24.017 5.228 23.4343 5.228C22.8517 5.228 22.3197 5.01267 21.8383 4.582C21.3823 4.126 21.1543 3.58133 21.1543 2.948C21.1543 2.31467 21.3697 1.78267 21.8003 1.352C22.2563 0.896 22.801 0.668 23.4343 0.668ZM44.5867 0.668C45.22 0.668 45.752 0.896 46.1827 1.352C46.6387 1.78267 46.8667 2.31467 46.8667 2.948C46.8667 3.58133 46.626 4.126 46.1447 4.582C45.6887 5.01267 45.1694 5.228 44.5867 5.228C44.004 5.228 43.472 5.01267 42.9907 4.582C42.5347 4.126 42.3067 3.58133 42.3067 2.948C42.3067 2.31467 42.522 1.78267 42.9527 1.352C43.4087 0.896 43.9534 0.668 44.5867 0.668ZM65.739 0.668C66.3724 0.668 66.9044 0.896 67.335 1.352C67.791 1.78267 68.019 2.31467 68.019 2.948C68.019 3.58133 67.7784 4.126 67.297 4.582C66.841 5.01267 66.3217 5.228 65.739 5.228C65.1564 5.228 64.6244 5.01267 64.143 4.582C63.687 4.126 63.459 3.58133 63.459 2.948C63.459 2.31467 63.6744 1.78267 64.105 1.352C64.561 0.896 65.1057 0.668 65.739 0.668ZM86.8914 0.668C87.5247 0.668 88.0567 0.896 88.4874 1.352C88.9434 1.78267 89.1714 2.31467 89.1714 2.948C89.1714 3.58133 88.9307 4.126 88.4494 4.582C87.9934 5.01267 87.474 5.228 86.8914 5.228C86.3087 5.228 85.7767 5.01267 85.2954 4.582C84.8394 4.126 84.6114 3.58133 84.6114 2.948C84.6114 2.31467 84.8267 1.78267 85.2574 1.352C85.7134 0.896 86.258 0.668 86.8914 0.668ZM108.044 0.668C108.677 0.668 109.209 0.896 109.64 1.352C110.096 1.78267 110.324 2.31467 110.324 2.948C110.324 3.58133 110.083 4.126 109.602 4.582C109.146 5.01267 108.626 5.228 108.044 5.228C107.461 5.228 106.929 5.01267 106.448 4.582C105.992 4.126 105.764 3.58133 105.764 2.948C105.764 2.31467 105.979 1.78267 106.41 1.352C106.866 0.896 107.41 0.668 108.044 0.668ZM129.196 0.668C129.829 0.668 130.361 0.896 130.792 1.352C131.248 1.78267 131.476 2.31467 131.476 2.948C131.476 3.58133 131.235 4.126 130.754 4.582C130.298 5.01267 129.779 5.228 129.196 5.228C128.613 5.228 128.081 5.01267 127.6 4.582C127.144 4.126 126.916 3.58133 126.916 2.948C126.916 2.31467 127.131 1.78267 127.562 1.352C128.018 0.896 128.563 0.668 129.196 0.668ZM150.348 0.668C150.982 0.668 151.514 0.896 151.944 1.352C152.4 1.78267 152.628 2.31467 152.628 2.948C152.628 3.58133 152.388 4.126 151.906 4.582C151.45 5.01267 150.931 5.228 150.348 5.228C149.766 5.228 149.234 5.01267 148.752 4.582C148.296 4.126 148.068 3.58133 148.068 2.948C148.068 2.31467 148.284 1.78267 148.714 1.352C149.17 0.896 149.715 0.668 150.348 0.668ZM171.501 0.668C172.134 0.668 172.666 0.896 173.097 1.352C173.553 1.78267 173.781 2.31467 173.781 2.948C173.781 3.58133 173.54 4.126 173.059 4.582C172.603 5.01267 172.083 5.228 171.501 5.228C170.918 5.228 170.386 5.01267 169.905 4.582C169.449 4.126 169.221 3.58133 169.221 2.948C169.221 2.31467 169.436 1.78267 169.867 1.352C170.323 0.896 170.867 0.668 171.501 0.668ZM192.653 0.668C193.286 0.668 193.818 0.896 194.249 1.352C194.705 1.78267 194.933 2.31467 194.933 2.948C194.933 3.58133 194.692 4.126 194.211 4.582C193.755 5.01267 193.236 5.228 192.653 5.228C192.07 5.228 191.538 5.01267 191.057 4.582C190.601 4.126 190.373 3.58133 190.373 2.948C190.373 2.31467 190.588 1.78267 191.019 1.352C191.475 0.896 192.02 0.668 192.653 0.668ZM213.805 0.668C214.439 0.668 214.971 0.896 215.401 1.352C215.857 1.78267 216.085 2.31467 216.085 2.948C216.085 3.58133 215.845 4.126 215.363 4.582C214.907 5.01267 214.388 5.228 213.805 5.228C213.223 5.228 212.691 5.01267 212.209 4.582C211.753 4.126 211.525 3.58133 211.525 2.948C211.525 2.31467 211.741 1.78267 212.171 1.352C212.627 0.896 213.172 0.668 213.805 0.668ZM234.958 0.668C235.591 0.668 236.123 0.896 236.554 1.352C237.01 1.78267 237.238 2.31467 237.238 2.948C237.238 3.58133 236.997 4.126 236.516 4.582C236.06 5.01267 235.54 5.228 234.958 5.228C234.375 5.228 233.843 5.01267 233.362 4.582C232.906 4.126 232.678 3.58133 232.678 2.948C232.678 2.31467 232.893 1.78267 233.324 1.352C233.78 0.896 234.324 0.668 234.958 0.668ZM256.11 0.668C256.743 0.668 257.275 0.896 257.706 1.352C258.162 1.78267 258.39 2.31467 258.39 2.948C258.39 3.58133 258.149 4.126 257.668 4.582C257.212 5.01267 256.693 5.228 256.11 5.228C255.527 5.228 254.995 5.01267 254.514 4.582C254.058 4.126 253.83 3.58133 253.83 2.948C253.83 2.31467 254.045 1.78267 254.476 1.352C254.932 0.896 255.477 0.668 256.11 0.668ZM277.262 0.668C277.896 0.668 278.428 0.896 278.858 1.352C279.314 1.78267 279.542 2.31467 279.542 2.948C279.542 3.58133 279.302 4.126 278.82 4.582C278.364 5.01267 277.845 5.228 277.262 5.228C276.68 5.228 276.148 5.01267 275.666 4.582C275.21 4.126 274.982 3.58133 274.982 2.948C274.982 2.31467 275.198 1.78267 275.628 1.352C276.084 0.896 276.629 0.668 277.262 0.668ZM298.415 0.668C299.048 0.668 299.58 0.896 300.011 1.352C300.467 1.78267 300.695 2.31467 300.695 2.948C300.695 3.58133 300.454 4.126 299.973 4.582C299.517 5.01267 298.997 5.228 298.415 5.228C297.832 5.228 297.3 5.01267 296.819 4.582C296.363 4.126 296.135 3.58133 296.135 2.948C296.135 2.31467 296.35 1.78267 296.781 1.352C297.237 0.896 297.781 0.668 298.415 0.668ZM319.567 0.668C320.2 0.668 320.732 0.896 321.163 1.352C321.619 1.78267 321.847 2.31467 321.847 2.948C321.847 3.58133 321.606 4.126 321.125 4.582C320.669 5.01267 320.15 5.228 319.567 5.228C318.984 5.228 318.452 5.01267 317.971 4.582C317.515 4.126 317.287 3.58133 317.287 2.948C317.287 2.31467 317.502 1.78267 317.933 1.352C318.389 0.896 318.934 0.668 319.567 0.668ZM340.72 0.668C341.353 0.668 341.885 0.896 342.316 1.352C342.772 1.78267 343 2.31467 343 2.948C343 3.58133 342.759 4.126 342.278 4.582C341.822 5.01267 341.302 5.228 340.72 5.228C340.137 5.228 339.605 5.01267 339.124 4.582C338.668 4.126 338.44 3.58133 338.44 2.948C338.44 2.31467 338.655 1.78267 339.086 1.352C339.542 0.896 340.086 0.668 340.72 0.668ZM361.872 0.668C362.505 0.668 363.037 0.896 363.468 1.352C363.924 1.78267 364.152 2.31467 364.152 2.948C364.152 3.58133 363.911 4.126 363.43 4.582C362.974 5.01267 362.455 5.228 361.872 5.228C361.289 5.228 360.757 5.01267 360.276 4.582C359.82 4.126 359.592 3.58133 359.592 2.948C359.592 2.31467 359.807 1.78267 360.238 1.352C360.694 0.896 361.239 0.668 361.872 0.668ZM383.024 0.668C383.658 0.668 384.19 0.896 384.62 1.352C385.076 1.78267 385.304 2.31467 385.304 2.948C385.304 3.58133 385.064 4.126 384.582 4.582C384.126 5.01267 383.607 5.228 383.024 5.228C382.442 5.228 381.91 5.01267 381.428 4.582C380.972 4.126 380.744 3.58133 380.744 2.948C380.744 2.31467 380.96 1.78267 381.39 1.352C381.846 0.896 382.391 0.668 383.024 0.668ZM404.177 0.668C404.81 0.668 405.342 0.896 405.773 1.352C406.229 1.78267 406.457 2.31467 406.457 2.948C406.457 3.58133 406.216 4.126 405.735 4.582C405.279 5.01267 404.759 5.228 404.177 5.228C403.594 5.228 403.062 5.01267 402.581 4.582C402.125 4.126 401.897 3.58133 401.897 2.948C401.897 2.31467 402.112 1.78267 402.543 1.352C402.999 0.896 403.543 0.668 404.177 0.668ZM425.329 0.668C425.962 0.668 426.494 0.896 426.925 1.352C427.381 1.78267 427.609 2.31467 427.609 2.948C427.609 3.58133 427.368 4.126 426.887 4.582C426.431 5.01267 425.912 5.228 425.329 5.228C424.746 5.228 424.214 5.01267 423.733 4.582C423.277 4.126 423.049 3.58133 423.049 2.948C423.049 2.31467 423.264 1.78267 423.695 1.352C424.151 0.896 424.696 0.668 425.329 0.668ZM446.481 0.668C447.115 0.668 447.647 0.896 448.077 1.352C448.533 1.78267 448.761 2.31467 448.761 2.948C448.761 3.58133 448.521 4.126 448.039 4.582C447.583 5.01267 447.064 5.228 446.481 5.228C445.899 5.228 445.367 5.01267 444.885 4.582C444.429 4.126 444.201 3.58133 444.201 2.948C444.201 2.31467 444.417 1.78267 444.847 1.352C445.303 0.896 445.848 0.668 446.481 0.668ZM2.282 52.668C2.91533 52.668 3.44733 52.896 3.878 53.352C4.334 53.7827 4.562 54.3147 4.562 54.948C4.562 55.5813 4.32133 56.126 3.84 56.582C3.384 57.0127 2.86467 57.228 2.282 57.228C1.69933 57.228 1.16733 57.0127 0.686 56.582C0.23 56.126 0.00200014 55.5813 0.00200014 54.948C0.00200014 54.3147 0.217333 53.7827 0.648 53.352C1.104 52.896 1.64867 52.668 2.282 52.668ZM23.4343 52.668C24.0677 52.668 24.5997 52.896 25.0303 53.352C25.4863 53.7827 25.7143 54.3147 25.7143 54.948C25.7143 55.5813 25.4737 56.126 24.9923 56.582C24.5363 57.0127 24.017 57.228 23.4343 57.228C22.8517 57.228 22.3197 57.0127 21.8383 56.582C21.3823 56.126 21.1543 55.5813 21.1543 54.948C21.1543 54.3147 21.3697 53.7827 21.8003 53.352C22.2563 52.896 22.801 52.668 23.4343 52.668ZM44.5867 52.668C45.22 52.668 45.752 52.896 46.1827 53.352C46.6387 53.7827 46.8667 54.3147 46.8667 54.948C46.8667 55.5813 46.626 56.126 46.1447 56.582C45.6887 57.0127 45.1694 57.228 44.5867 57.228C44.004 57.228 43.472 57.0127 42.9907 56.582C42.5347 56.126 42.3067 55.5813 42.3067 54.948C42.3067 54.3147 42.522 53.7827 42.9527 53.352C43.4087 52.896 43.9534 52.668 44.5867 52.668ZM65.739 52.668C66.3724 52.668 66.9044 52.896 67.335 53.352C67.791 53.7827 68.019 54.3147 68.019 54.948C68.019 55.5813 67.7784 56.126 67.297 56.582C66.841 57.0127 66.3217 57.228 65.739 57.228C65.1564 57.228 64.6244 57.0127 64.143 56.582C63.687 56.126 63.459 55.5813 63.459 54.948C63.459 54.3147 63.6744 53.7827 64.105 53.352C64.561 52.896 65.1057 52.668 65.739 52.668ZM86.8914 52.668C87.5247 52.668 88.0567 52.896 88.4874 53.352C88.9434 53.7827 89.1714 54.3147 89.1714 54.948C89.1714 55.5813 88.9307 56.126 88.4494 56.582C87.9934 57.0127 87.474 57.228 86.8914 57.228C86.3087 57.228 85.7767 57.0127 85.2954 56.582C84.8394 56.126 84.6114 55.5813 84.6114 54.948C84.6114 54.3147 84.8267 53.7827 85.2574 53.352C85.7134 52.896 86.258 52.668 86.8914 52.668ZM108.044 52.668C108.677 52.668 109.209 52.896 109.64 53.352C110.096 53.7827 110.324 54.3147 110.324 54.948C110.324 55.5813 110.083 56.126 109.602 56.582C109.146 57.0127 108.626 57.228 108.044 57.228C107.461 57.228 106.929 57.0127 106.448 56.582C105.992 56.126 105.764 55.5813 105.764 54.948C105.764 54.3147 105.979 53.7827 106.41 53.352C106.866 52.896 107.41 52.668 108.044 52.668ZM129.196 52.668C129.829 52.668 130.361 52.896 130.792 53.352C131.248 53.7827 131.476 54.3147 131.476 54.948C131.476 55.5813 131.235 56.126 130.754 56.582C130.298 57.0127 129.779 57.228 129.196 57.228C128.613 57.228 128.081 57.0127 127.6 56.582C127.144 56.126 126.916 55.5813 126.916 54.948C126.916 54.3147 127.131 53.7827 127.562 53.352C128.018 52.896 128.563 52.668 129.196 52.668ZM150.348 52.668C150.982 52.668 151.514 52.896 151.944 53.352C152.4 53.7827 152.628 54.3147 152.628 54.948C152.628 55.5813 152.388 56.126 151.906 56.582C151.45 57.0127 150.931 57.228 150.348 57.228C149.766 57.228 149.234 57.0127 148.752 56.582C148.296 56.126 148.068 55.5813 148.068 54.948C148.068 54.3147 148.284 53.7827 148.714 53.352C149.17 52.896 149.715 52.668 150.348 52.668ZM171.501 52.668C172.134 52.668 172.666 52.896 173.097 53.352C173.553 53.7827 173.781 54.3147 173.781 54.948C173.781 55.5813 173.54 56.126 173.059 56.582C172.603 57.0127 172.083 57.228 171.501 57.228C170.918 57.228 170.386 57.0127 169.905 56.582C169.449 56.126 169.221 55.5813 169.221 54.948C169.221 54.3147 169.436 53.7827 169.867 53.352C170.323 52.896 170.867 52.668 171.501 52.668ZM192.653 52.668C193.286 52.668 193.818 52.896 194.249 53.352C194.705 53.7827 194.933 54.3147 194.933 54.948C194.933 55.5813 194.692 56.126 194.211 56.582C193.755 57.0127 193.236 57.228 192.653 57.228C192.07 57.228 191.538 57.0127 191.057 56.582C190.601 56.126 190.373 55.5813 190.373 54.948C190.373 54.3147 190.588 53.7827 191.019 53.352C191.475 52.896 192.02 52.668 192.653 52.668ZM213.805 52.668C214.439 52.668 214.971 52.896 215.401 53.352C215.857 53.7827 216.085 54.3147 216.085 54.948C216.085 55.5813 215.845 56.126 215.363 56.582C214.907 57.0127 214.388 57.228 213.805 57.228C213.223 57.228 212.691 57.0127 212.209 56.582C211.753 56.126 211.525 55.5813 211.525 54.948C211.525 54.3147 211.741 53.7827 212.171 53.352C212.627 52.896 213.172 52.668 213.805 52.668ZM234.958 52.668C235.591 52.668 236.123 52.896 236.554 53.352C237.01 53.7827 237.238 54.3147 237.238 54.948C237.238 55.5813 236.997 56.126 236.516 56.582C236.06 57.0127 235.54 57.228 234.958 57.228C234.375 57.228 233.843 57.0127 233.362 56.582C232.906 56.126 232.678 55.5813 232.678 54.948C232.678 54.3147 232.893 53.7827 233.324 53.352C233.78 52.896 234.324 52.668 234.958 52.668ZM256.11 52.668C256.743 52.668 257.275 52.896 257.706 53.352C258.162 53.7827 258.39 54.3147 258.39 54.948C258.39 55.5813 258.149 56.126 257.668 56.582C257.212 57.0127 256.693 57.228 256.11 57.228C255.527 57.228 254.995 57.0127 254.514 56.582C254.058 56.126 253.83 55.5813 253.83 54.948C253.83 54.3147 254.045 53.7827 254.476 53.352C254.932 52.896 255.477 52.668 256.11 52.668ZM277.262 52.668C277.896 52.668 278.428 52.896 278.858 53.352C279.314 53.7827 279.542 54.3147 279.542 54.948C279.542 55.5813 279.302 56.126 278.82 56.582C278.364 57.0127 277.845 57.228 277.262 57.228C276.68 57.228 276.148 57.0127 275.666 56.582C275.21 56.126 274.982 55.5813 274.982 54.948C274.982 54.3147 275.198 53.7827 275.628 53.352C276.084 52.896 276.629 52.668 277.262 52.668ZM298.415 52.668C299.048 52.668 299.58 52.896 300.011 53.352C300.467 53.7827 300.695 54.3147 300.695 54.948C300.695 55.5813 300.454 56.126 299.973 56.582C299.517 57.0127 298.997 57.228 298.415 57.228C297.832 57.228 297.3 57.0127 296.819 56.582C296.363 56.126 296.135 55.5813 296.135 54.948C296.135 54.3147 296.35 53.7827 296.781 53.352C297.237 52.896 297.781 52.668 298.415 52.668ZM319.567 52.668C320.2 52.668 320.732 52.896 321.163 53.352C321.619 53.7827 321.847 54.3147 321.847 54.948C321.847 55.5813 321.606 56.126 321.125 56.582C320.669 57.0127 320.15 57.228 319.567 57.228C318.984 57.228 318.452 57.0127 317.971 56.582C317.515 56.126 317.287 55.5813 317.287 54.948C317.287 54.3147 317.502 53.7827 317.933 53.352C318.389 52.896 318.934 52.668 319.567 52.668ZM340.72 52.668C341.353 52.668 341.885 52.896 342.316 53.352C342.772 53.7827 343 54.3147 343 54.948C343 55.5813 342.759 56.126 342.278 56.582C341.822 57.0127 341.302 57.228 340.72 57.228C340.137 57.228 339.605 57.0127 339.124 56.582C338.668 56.126 338.44 55.5813 338.44 54.948C338.44 54.3147 338.655 53.7827 339.086 53.352C339.542 52.896 340.086 52.668 340.72 52.668ZM361.872 52.668C362.505 52.668 363.037 52.896 363.468 53.352C363.924 53.7827 364.152 54.3147 364.152 54.948C364.152 55.5813 363.911 56.126 363.43 56.582C362.974 57.0127 362.455 57.228 361.872 57.228C361.289 57.228 360.757 57.0127 360.276 56.582C359.82 56.126 359.592 55.5813 359.592 54.948C359.592 54.3147 359.807 53.7827 360.238 53.352C360.694 52.896 361.239 52.668 361.872 52.668ZM383.024 52.668C383.658 52.668 384.19 52.896 384.62 53.352C385.076 53.7827 385.304 54.3147 385.304 54.948C385.304 55.5813 385.064 56.126 384.582 56.582C384.126 57.0127 383.607 57.228 383.024 57.228C382.442 57.228 381.91 57.0127 381.428 56.582C380.972 56.126 380.744 55.5813 380.744 54.948C380.744 54.3147 380.96 53.7827 381.39 53.352C381.846 52.896 382.391 52.668 383.024 52.668ZM404.177 52.668C404.81 52.668 405.342 52.896 405.773 53.352C406.229 53.7827 406.457 54.3147 406.457 54.948C406.457 55.5813 406.216 56.126 405.735 56.582C405.279 57.0127 404.759 57.228 404.177 57.228C403.594 57.228 403.062 57.0127 402.581 56.582C402.125 56.126 401.897 55.5813 401.897 54.948C401.897 54.3147 402.112 53.7827 402.543 53.352C402.999 52.896 403.543 52.668 404.177 52.668ZM425.329 52.668C425.962 52.668 426.494 52.896 426.925 53.352C427.381 53.7827 427.609 54.3147 427.609 54.948C427.609 55.5813 427.368 56.126 426.887 56.582C426.431 57.0127 425.912 57.228 425.329 57.228C424.746 57.228 424.214 57.0127 423.733 56.582C423.277 56.126 423.049 55.5813 423.049 54.948C423.049 54.3147 423.264 53.7827 423.695 53.352C424.151 52.896 424.696 52.668 425.329 52.668ZM446.481 52.668C447.115 52.668 447.647 52.896 448.077 53.352C448.533 53.7827 448.761 54.3147 448.761 54.948C448.761 55.5813 448.521 56.126 448.039 56.582C447.583 57.0127 447.064 57.228 446.481 57.228C445.899 57.228 445.367 57.0127 444.885 56.582C444.429 56.126 444.201 55.5813 444.201 54.948C444.201 54.3147 444.417 53.7827 444.847 53.352C445.303 52.896 445.848 52.668 446.481 52.668ZM2.282 104.668C2.91533 104.668 3.44733 104.896 3.878 105.352C4.334 105.783 4.562 106.315 4.562 106.948C4.562 107.581 4.32133 108.126 3.84 108.582C3.384 109.013 2.86467 109.228 2.282 109.228C1.69933 109.228 1.16733 109.013 0.686 108.582C0.23 108.126 0.00200014 107.581 0.00200014 106.948C0.00200014 106.315 0.217333 105.783 0.648 105.352C1.104 104.896 1.64867 104.668 2.282 104.668ZM23.4343 104.668C24.0677 104.668 24.5997 104.896 25.0303 105.352C25.4863 105.783 25.7143 106.315 25.7143 106.948C25.7143 107.581 25.4737 108.126 24.9923 108.582C24.5363 109.013 24.017 109.228 23.4343 109.228C22.8517 109.228 22.3197 109.013 21.8383 108.582C21.3823 108.126 21.1543 107.581 21.1543 106.948C21.1543 106.315 21.3697 105.783 21.8003 105.352C22.2563 104.896 22.801 104.668 23.4343 104.668ZM44.5867 104.668C45.22 104.668 45.752 104.896 46.1827 105.352C46.6387 105.783 46.8667 106.315 46.8667 106.948C46.8667 107.581 46.626 108.126 46.1447 108.582C45.6887 109.013 45.1694 109.228 44.5867 109.228C44.004 109.228 43.472 109.013 42.9907 108.582C42.5347 108.126 42.3067 107.581 42.3067 106.948C42.3067 106.315 42.522 105.783 42.9527 105.352C43.4087 104.896 43.9534 104.668 44.5867 104.668ZM65.739 104.668C66.3724 104.668 66.9044 104.896 67.335 105.352C67.791 105.783 68.019 106.315 68.019 106.948C68.019 107.581 67.7784 108.126 67.297 108.582C66.841 109.013 66.3217 109.228 65.739 109.228C65.1564 109.228 64.6244 109.013 64.143 108.582C63.687 108.126 63.459 107.581 63.459 106.948C63.459 106.315 63.6744 105.783 64.105 105.352C64.561 104.896 65.1057 104.668 65.739 104.668ZM86.8914 104.668C87.5247 104.668 88.0567 104.896 88.4874 105.352C88.9434 105.783 89.1714 106.315 89.1714 106.948C89.1714 107.581 88.9307 108.126 88.4494 108.582C87.9934 109.013 87.474 109.228 86.8914 109.228C86.3087 109.228 85.7767 109.013 85.2954 108.582C84.8394 108.126 84.6114 107.581 84.6114 106.948C84.6114 106.315 84.8267 105.783 85.2574 105.352C85.7134 104.896 86.258 104.668 86.8914 104.668ZM108.044 104.668C108.677 104.668 109.209 104.896 109.64 105.352C110.096 105.783 110.324 106.315 110.324 106.948C110.324 107.581 110.083 108.126 109.602 108.582C109.146 109.013 108.626 109.228 108.044 109.228C107.461 109.228 106.929 109.013 106.448 108.582C105.992 108.126 105.764 107.581 105.764 106.948C105.764 106.315 105.979 105.783 106.41 105.352C106.866 104.896 107.41 104.668 108.044 104.668ZM129.196 104.668C129.829 104.668 130.361 104.896 130.792 105.352C131.248 105.783 131.476 106.315 131.476 106.948C131.476 107.581 131.235 108.126 130.754 108.582C130.298 109.013 129.779 109.228 129.196 109.228C128.613 109.228 128.081 109.013 127.6 108.582C127.144 108.126 126.916 107.581 126.916 106.948C126.916 106.315 127.131 105.783 127.562 105.352C128.018 104.896 128.563 104.668 129.196 104.668ZM150.348 104.668C150.982 104.668 151.514 104.896 151.944 105.352C152.4 105.783 152.628 106.315 152.628 106.948C152.628 107.581 152.388 108.126 151.906 108.582C151.45 109.013 150.931 109.228 150.348 109.228C149.766 109.228 149.234 109.013 148.752 108.582C148.296 108.126 148.068 107.581 148.068 106.948C148.068 106.315 148.284 105.783 148.714 105.352C149.17 104.896 149.715 104.668 150.348 104.668ZM171.501 104.668C172.134 104.668 172.666 104.896 173.097 105.352C173.553 105.783 173.781 106.315 173.781 106.948C173.781 107.581 173.54 108.126 173.059 108.582C172.603 109.013 172.083 109.228 171.501 109.228C170.918 109.228 170.386 109.013 169.905 108.582C169.449 108.126 169.221 107.581 169.221 106.948C169.221 106.315 169.436 105.783 169.867 105.352C170.323 104.896 170.867 104.668 171.501 104.668ZM192.653 104.668C193.286 104.668 193.818 104.896 194.249 105.352C194.705 105.783 194.933 106.315 194.933 106.948C194.933 107.581 194.692 108.126 194.211 108.582C193.755 109.013 193.236 109.228 192.653 109.228C192.07 109.228 191.538 109.013 191.057 108.582C190.601 108.126 190.373 107.581 190.373 106.948C190.373 106.315 190.588 105.783 191.019 105.352C191.475 104.896 192.02 104.668 192.653 104.668ZM213.805 104.668C214.439 104.668 214.971 104.896 215.401 105.352C215.857 105.783 216.085 106.315 216.085 106.948C216.085 107.581 215.845 108.126 215.363 108.582C214.907 109.013 214.388 109.228 213.805 109.228C213.223 109.228 212.691 109.013 212.209 108.582C211.753 108.126 211.525 107.581 211.525 106.948C211.525 106.315 211.741 105.783 212.171 105.352C212.627 104.896 213.172 104.668 213.805 104.668ZM234.958 104.668C235.591 104.668 236.123 104.896 236.554 105.352C237.01 105.783 237.238 106.315 237.238 106.948C237.238 107.581 236.997 108.126 236.516 108.582C236.06 109.013 235.54 109.228 234.958 109.228C234.375 109.228 233.843 109.013 233.362 108.582C232.906 108.126 232.678 107.581 232.678 106.948C232.678 106.315 232.893 105.783 233.324 105.352C233.78 104.896 234.324 104.668 234.958 104.668ZM256.11 104.668C256.743 104.668 257.275 104.896 257.706 105.352C258.162 105.783 258.39 106.315 258.39 106.948C258.39 107.581 258.149 108.126 257.668 108.582C257.212 109.013 256.693 109.228 256.11 109.228C255.527 109.228 254.995 109.013 254.514 108.582C254.058 108.126 253.83 107.581 253.83 106.948C253.83 106.315 254.045 105.783 254.476 105.352C254.932 104.896 255.477 104.668 256.11 104.668ZM277.262 104.668C277.896 104.668 278.428 104.896 278.858 105.352C279.314 105.783 279.542 106.315 279.542 106.948C279.542 107.581 279.302 108.126 278.82 108.582C278.364 109.013 277.845 109.228 277.262 109.228C276.68 109.228 276.148 109.013 275.666 108.582C275.21 108.126 274.982 107.581 274.982 106.948C274.982 106.315 275.198 105.783 275.628 105.352C276.084 104.896 276.629 104.668 277.262 104.668ZM298.415 104.668C299.048 104.668 299.58 104.896 300.011 105.352C300.467 105.783 300.695 106.315 300.695 106.948C300.695 107.581 300.454 108.126 299.973 108.582C299.517 109.013 298.997 109.228 298.415 109.228C297.832 109.228 297.3 109.013 296.819 108.582C296.363 108.126 296.135 107.581 296.135 106.948C296.135 106.315 296.35 105.783 296.781 105.352C297.237 104.896 297.781 104.668 298.415 104.668ZM319.567 104.668C320.2 104.668 320.732 104.896 321.163 105.352C321.619 105.783 321.847 106.315 321.847 106.948C321.847 107.581 321.606 108.126 321.125 108.582C320.669 109.013 320.15 109.228 319.567 109.228C318.984 109.228 318.452 109.013 317.971 108.582C317.515 108.126 317.287 107.581 317.287 106.948C317.287 106.315 317.502 105.783 317.933 105.352C318.389 104.896 318.934 104.668 319.567 104.668ZM340.72 104.668C341.353 104.668 341.885 104.896 342.316 105.352C342.772 105.783 343 106.315 343 106.948C343 107.581 342.759 108.126 342.278 108.582C341.822 109.013 341.302 109.228 340.72 109.228C340.137 109.228 339.605 109.013 339.124 108.582C338.668 108.126 338.44 107.581 338.44 106.948C338.44 106.315 338.655 105.783 339.086 105.352C339.542 104.896 340.086 104.668 340.72 104.668ZM361.872 104.668C362.505 104.668 363.037 104.896 363.468 105.352C363.924 105.783 364.152 106.315 364.152 106.948C364.152 107.581 363.911 108.126 363.43 108.582C362.974 109.013 362.455 109.228 361.872 109.228C361.289 109.228 360.757 109.013 360.276 108.582C359.82 108.126 359.592 107.581 359.592 106.948C359.592 106.315 359.807 105.783 360.238 105.352C360.694 104.896 361.239 104.668 361.872 104.668ZM383.024 104.668C383.658 104.668 384.19 104.896 384.62 105.352C385.076 105.783 385.304 106.315 385.304 106.948C385.304 107.581 385.064 108.126 384.582 108.582C384.126 109.013 383.607 109.228 383.024 109.228C382.442 109.228 381.91 109.013 381.428 108.582C380.972 108.126 380.744 107.581 380.744 106.948C380.744 106.315 380.96 105.783 381.39 105.352C381.846 104.896 382.391 104.668 383.024 104.668ZM404.177 104.668C404.81 104.668 405.342 104.896 405.773 105.352C406.229 105.783 406.457 106.315 406.457 106.948C406.457 107.581 406.216 108.126 405.735 108.582C405.279 109.013 404.759 109.228 404.177 109.228C403.594 109.228 403.062 109.013 402.581 108.582C402.125 108.126 401.897 107.581 401.897 106.948C401.897 106.315 402.112 105.783 402.543 105.352C402.999 104.896 403.543 104.668 404.177 104.668ZM425.329 104.668C425.962 104.668 426.494 104.896 426.925 105.352C427.381 105.783 427.609 106.315 427.609 106.948C427.609 107.581 427.368 108.126 426.887 108.582C426.431 109.013 425.912 109.228 425.329 109.228C424.746 109.228 424.214 109.013 423.733 108.582C423.277 108.126 423.049 107.581 423.049 106.948C423.049 106.315 423.264 105.783 423.695 105.352C424.151 104.896 424.696 104.668 425.329 104.668ZM446.481 104.668C447.115 104.668 447.647 104.896 448.077 105.352C448.533 105.783 448.761 106.315 448.761 106.948C448.761 107.581 448.521 108.126 448.039 108.582C447.583 109.013 447.064 109.228 446.481 109.228C445.899 109.228 445.367 109.013 444.885 108.582C444.429 108.126 444.201 107.581 444.201 106.948C444.201 106.315 444.417 105.783 444.847 105.352C445.303 104.896 445.848 104.668 446.481 104.668ZM2.282 156.668C2.91533 156.668 3.44733 156.896 3.878 157.352C4.334 157.783 4.562 158.315 4.562 158.948C4.562 159.581 4.32133 160.126 3.84 160.582C3.384 161.013 2.86467 161.228 2.282 161.228C1.69933 161.228 1.16733 161.013 0.686 160.582C0.23 160.126 0.00200014 159.581 0.00200014 158.948C0.00200014 158.315 0.217333 157.783 0.648 157.352C1.104 156.896 1.64867 156.668 2.282 156.668ZM23.4343 156.668C24.0677 156.668 24.5997 156.896 25.0303 157.352C25.4863 157.783 25.7143 158.315 25.7143 158.948C25.7143 159.581 25.4737 160.126 24.9923 160.582C24.5363 161.013 24.017 161.228 23.4343 161.228C22.8517 161.228 22.3197 161.013 21.8383 160.582C21.3823 160.126 21.1543 159.581 21.1543 158.948C21.1543 158.315 21.3697 157.783 21.8003 157.352C22.2563 156.896 22.801 156.668 23.4343 156.668ZM44.5867 156.668C45.22 156.668 45.752 156.896 46.1827 157.352C46.6387 157.783 46.8667 158.315 46.8667 158.948C46.8667 159.581 46.626 160.126 46.1447 160.582C45.6887 161.013 45.1694 161.228 44.5867 161.228C44.004 161.228 43.472 161.013 42.9907 160.582C42.5347 160.126 42.3067 159.581 42.3067 158.948C42.3067 158.315 42.522 157.783 42.9527 157.352C43.4087 156.896 43.9534 156.668 44.5867 156.668ZM65.739 156.668C66.3724 156.668 66.9044 156.896 67.335 157.352C67.791 157.783 68.019 158.315 68.019 158.948C68.019 159.581 67.7784 160.126 67.297 160.582C66.841 161.013 66.3217 161.228 65.739 161.228C65.1564 161.228 64.6244 161.013 64.143 160.582C63.687 160.126 63.459 159.581 63.459 158.948C63.459 158.315 63.6744 157.783 64.105 157.352C64.561 156.896 65.1057 156.668 65.739 156.668ZM86.8914 156.668C87.5247 156.668 88.0567 156.896 88.4874 157.352C88.9434 157.783 89.1714 158.315 89.1714 158.948C89.1714 159.581 88.9307 160.126 88.4494 160.582C87.9934 161.013 87.474 161.228 86.8914 161.228C86.3087 161.228 85.7767 161.013 85.2954 160.582C84.8394 160.126 84.6114 159.581 84.6114 158.948C84.6114 158.315 84.8267 157.783 85.2574 157.352C85.7134 156.896 86.258 156.668 86.8914 156.668ZM108.044 156.668C108.677 156.668 109.209 156.896 109.64 157.352C110.096 157.783 110.324 158.315 110.324 158.948C110.324 159.581 110.083 160.126 109.602 160.582C109.146 161.013 108.626 161.228 108.044 161.228C107.461 161.228 106.929 161.013 106.448 160.582C105.992 160.126 105.764 159.581 105.764 158.948C105.764 158.315 105.979 157.783 106.41 157.352C106.866 156.896 107.41 156.668 108.044 156.668ZM129.196 156.668C129.829 156.668 130.361 156.896 130.792 157.352C131.248 157.783 131.476 158.315 131.476 158.948C131.476 159.581 131.235 160.126 130.754 160.582C130.298 161.013 129.779 161.228 129.196 161.228C128.613 161.228 128.081 161.013 127.6 160.582C127.144 160.126 126.916 159.581 126.916 158.948C126.916 158.315 127.131 157.783 127.562 157.352C128.018 156.896 128.563 156.668 129.196 156.668ZM150.348 156.668C150.982 156.668 151.514 156.896 151.944 157.352C152.4 157.783 152.628 158.315 152.628 158.948C152.628 159.581 152.388 160.126 151.906 160.582C151.45 161.013 150.931 161.228 150.348 161.228C149.766 161.228 149.234 161.013 148.752 160.582C148.296 160.126 148.068 159.581 148.068 158.948C148.068 158.315 148.284 157.783 148.714 157.352C149.17 156.896 149.715 156.668 150.348 156.668ZM171.501 156.668C172.134 156.668 172.666 156.896 173.097 157.352C173.553 157.783 173.781 158.315 173.781 158.948C173.781 159.581 173.54 160.126 173.059 160.582C172.603 161.013 172.083 161.228 171.501 161.228C170.918 161.228 170.386 161.013 169.905 160.582C169.449 160.126 169.221 159.581 169.221 158.948C169.221 158.315 169.436 157.783 169.867 157.352C170.323 156.896 170.867 156.668 171.501 156.668ZM192.653 156.668C193.286 156.668 193.818 156.896 194.249 157.352C194.705 157.783 194.933 158.315 194.933 158.948C194.933 159.581 194.692 160.126 194.211 160.582C193.755 161.013 193.236 161.228 192.653 161.228C192.07 161.228 191.538 161.013 191.057 160.582C190.601 160.126 190.373 159.581 190.373 158.948C190.373 158.315 190.588 157.783 191.019 157.352C191.475 156.896 192.02 156.668 192.653 156.668ZM213.805 156.668C214.439 156.668 214.971 156.896 215.401 157.352C215.857 157.783 216.085 158.315 216.085 158.948C216.085 159.581 215.845 160.126 215.363 160.582C214.907 161.013 214.388 161.228 213.805 161.228C213.223 161.228 212.691 161.013 212.209 160.582C211.753 160.126 211.525 159.581 211.525 158.948C211.525 158.315 211.741 157.783 212.171 157.352C212.627 156.896 213.172 156.668 213.805 156.668ZM234.958 156.668C235.591 156.668 236.123 156.896 236.554 157.352C237.01 157.783 237.238 158.315 237.238 158.948C237.238 159.581 236.997 160.126 236.516 160.582C236.06 161.013 235.54 161.228 234.958 161.228C234.375 161.228 233.843 161.013 233.362 160.582C232.906 160.126 232.678 159.581 232.678 158.948C232.678 158.315 232.893 157.783 233.324 157.352C233.78 156.896 234.324 156.668 234.958 156.668ZM256.11 156.668C256.743 156.668 257.275 156.896 257.706 157.352C258.162 157.783 258.39 158.315 258.39 158.948C258.39 159.581 258.149 160.126 257.668 160.582C257.212 161.013 256.693 161.228 256.11 161.228C255.527 161.228 254.995 161.013 254.514 160.582C254.058 160.126 253.83 159.581 253.83 158.948C253.83 158.315 254.045 157.783 254.476 157.352C254.932 156.896 255.477 156.668 256.11 156.668ZM277.262 156.668C277.896 156.668 278.428 156.896 278.858 157.352C279.314 157.783 279.542 158.315 279.542 158.948C279.542 159.581 279.302 160.126 278.82 160.582C278.364 161.013 277.845 161.228 277.262 161.228C276.68 161.228 276.148 161.013 275.666 160.582C275.21 160.126 274.982 159.581 274.982 158.948C274.982 158.315 275.198 157.783 275.628 157.352C276.084 156.896 276.629 156.668 277.262 156.668ZM298.415 156.668C299.048 156.668 299.58 156.896 300.011 157.352C300.467 157.783 300.695 158.315 300.695 158.948C300.695 159.581 300.454 160.126 299.973 160.582C299.517 161.013 298.997 161.228 298.415 161.228C297.832 161.228 297.3 161.013 296.819 160.582C296.363 160.126 296.135 159.581 296.135 158.948C296.135 158.315 296.35 157.783 296.781 157.352C297.237 156.896 297.781 156.668 298.415 156.668ZM319.567 156.668C320.2 156.668 320.732 156.896 321.163 157.352C321.619 157.783 321.847 158.315 321.847 158.948C321.847 159.581 321.606 160.126 321.125 160.582C320.669 161.013 320.15 161.228 319.567 161.228C318.984 161.228 318.452 161.013 317.971 160.582C317.515 160.126 317.287 159.581 317.287 158.948C317.287 158.315 317.502 157.783 317.933 157.352C318.389 156.896 318.934 156.668 319.567 156.668ZM340.72 156.668C341.353 156.668 341.885 156.896 342.316 157.352C342.772 157.783 343 158.315 343 158.948C343 159.581 342.759 160.126 342.278 160.582C341.822 161.013 341.302 161.228 340.72 161.228C340.137 161.228 339.605 161.013 339.124 160.582C338.668 160.126 338.44 159.581 338.44 158.948C338.44 158.315 338.655 157.783 339.086 157.352C339.542 156.896 340.086 156.668 340.72 156.668ZM361.872 156.668C362.505 156.668 363.037 156.896 363.468 157.352C363.924 157.783 364.152 158.315 364.152 158.948C364.152 159.581 363.911 160.126 363.43 160.582C362.974 161.013 362.455 161.228 361.872 161.228C361.289 161.228 360.757 161.013 360.276 160.582C359.82 160.126 359.592 159.581 359.592 158.948C359.592 158.315 359.807 157.783 360.238 157.352C360.694 156.896 361.239 156.668 361.872 156.668ZM383.024 156.668C383.658 156.668 384.19 156.896 384.62 157.352C385.076 157.783 385.304 158.315 385.304 158.948C385.304 159.581 385.064 160.126 384.582 160.582C384.126 161.013 383.607 161.228 383.024 161.228C382.442 161.228 381.91 161.013 381.428 160.582C380.972 160.126 380.744 159.581 380.744 158.948C380.744 158.315 380.96 157.783 381.39 157.352C381.846 156.896 382.391 156.668 383.024 156.668ZM404.177 156.668C404.81 156.668 405.342 156.896 405.773 157.352C406.229 157.783 406.457 158.315 406.457 158.948C406.457 159.581 406.216 160.126 405.735 160.582C405.279 161.013 404.759 161.228 404.177 161.228C403.594 161.228 403.062 161.013 402.581 160.582C402.125 160.126 401.897 159.581 401.897 158.948C401.897 158.315 402.112 157.783 402.543 157.352C402.999 156.896 403.543 156.668 404.177 156.668ZM425.329 156.668C425.962 156.668 426.494 156.896 426.925 157.352C427.381 157.783 427.609 158.315 427.609 158.948C427.609 159.581 427.368 160.126 426.887 160.582C426.431 161.013 425.912 161.228 425.329 161.228C424.746 161.228 424.214 161.013 423.733 160.582C423.277 160.126 423.049 159.581 423.049 158.948C423.049 158.315 423.264 157.783 423.695 157.352C424.151 156.896 424.696 156.668 425.329 156.668ZM446.481 156.668C447.115 156.668 447.647 156.896 448.077 157.352C448.533 157.783 448.761 158.315 448.761 158.948C448.761 159.581 448.521 160.126 448.039 160.582C447.583 161.013 447.064 161.228 446.481 161.228C445.899 161.228 445.367 161.013 444.885 160.582C444.429 160.126 444.201 159.581 444.201 158.948C444.201 158.315 444.417 157.783 444.847 157.352C445.303 156.896 445.848 156.668 446.481 156.668ZM2.282 208.668C2.91533 208.668 3.44733 208.896 3.878 209.352C4.334 209.783 4.562 210.315 4.562 210.948C4.562 211.581 4.32133 212.126 3.84 212.582C3.384 213.013 2.86467 213.228 2.282 213.228C1.69933 213.228 1.16733 213.013 0.686 212.582C0.23 212.126 0.00200014 211.581 0.00200014 210.948C0.00200014 210.315 0.217333 209.783 0.648 209.352C1.104 208.896 1.64867 208.668 2.282 208.668ZM23.4343 208.668C24.0677 208.668 24.5997 208.896 25.0303 209.352C25.4863 209.783 25.7143 210.315 25.7143 210.948C25.7143 211.581 25.4737 212.126 24.9923 212.582C24.5363 213.013 24.017 213.228 23.4343 213.228C22.8517 213.228 22.3197 213.013 21.8383 212.582C21.3823 212.126 21.1543 211.581 21.1543 210.948C21.1543 210.315 21.3697 209.783 21.8003 209.352C22.2563 208.896 22.801 208.668 23.4343 208.668ZM44.5867 208.668C45.22 208.668 45.752 208.896 46.1827 209.352C46.6387 209.783 46.8667 210.315 46.8667 210.948C46.8667 211.581 46.626 212.126 46.1447 212.582C45.6887 213.013 45.1694 213.228 44.5867 213.228C44.004 213.228 43.472 213.013 42.9907 212.582C42.5347 212.126 42.3067 211.581 42.3067 210.948C42.3067 210.315 42.522 209.783 42.9527 209.352C43.4087 208.896 43.9534 208.668 44.5867 208.668ZM65.739 208.668C66.3724 208.668 66.9044 208.896 67.335 209.352C67.791 209.783 68.019 210.315 68.019 210.948C68.019 211.581 67.7784 212.126 67.297 212.582C66.841 213.013 66.3217 213.228 65.739 213.228C65.1564 213.228 64.6244 213.013 64.143 212.582C63.687 212.126 63.459 211.581 63.459 210.948C63.459 210.315 63.6744 209.783 64.105 209.352C64.561 208.896 65.1057 208.668 65.739 208.668ZM86.8914 208.668C87.5247 208.668 88.0567 208.896 88.4874 209.352C88.9434 209.783 89.1714 210.315 89.1714 210.948C89.1714 211.581 88.9307 212.126 88.4494 212.582C87.9934 213.013 87.474 213.228 86.8914 213.228C86.3087 213.228 85.7767 213.013 85.2954 212.582C84.8394 212.126 84.6114 211.581 84.6114 210.948C84.6114 210.315 84.8267 209.783 85.2574 209.352C85.7134 208.896 86.258 208.668 86.8914 208.668ZM108.044 208.668C108.677 208.668 109.209 208.896 109.64 209.352C110.096 209.783 110.324 210.315 110.324 210.948C110.324 211.581 110.083 212.126 109.602 212.582C109.146 213.013 108.626 213.228 108.044 213.228C107.461 213.228 106.929 213.013 106.448 212.582C105.992 212.126 105.764 211.581 105.764 210.948C105.764 210.315 105.979 209.783 106.41 209.352C106.866 208.896 107.41 208.668 108.044 208.668ZM129.196 208.668C129.829 208.668 130.361 208.896 130.792 209.352C131.248 209.783 131.476 210.315 131.476 210.948C131.476 211.581 131.235 212.126 130.754 212.582C130.298 213.013 129.779 213.228 129.196 213.228C128.613 213.228 128.081 213.013 127.6 212.582C127.144 212.126 126.916 211.581 126.916 210.948C126.916 210.315 127.131 209.783 127.562 209.352C128.018 208.896 128.563 208.668 129.196 208.668ZM150.348 208.668C150.982 208.668 151.514 208.896 151.944 209.352C152.4 209.783 152.628 210.315 152.628 210.948C152.628 211.581 152.388 212.126 151.906 212.582C151.45 213.013 150.931 213.228 150.348 213.228C149.766 213.228 149.234 213.013 148.752 212.582C148.296 212.126 148.068 211.581 148.068 210.948C148.068 210.315 148.284 209.783 148.714 209.352C149.17 208.896 149.715 208.668 150.348 208.668ZM171.501 208.668C172.134 208.668 172.666 208.896 173.097 209.352C173.553 209.783 173.781 210.315 173.781 210.948C173.781 211.581 173.54 212.126 173.059 212.582C172.603 213.013 172.083 213.228 171.501 213.228C170.918 213.228 170.386 213.013 169.905 212.582C169.449 212.126 169.221 211.581 169.221 210.948C169.221 210.315 169.436 209.783 169.867 209.352C170.323 208.896 170.867 208.668 171.501 208.668ZM192.653 208.668C193.286 208.668 193.818 208.896 194.249 209.352C194.705 209.783 194.933 210.315 194.933 210.948C194.933 211.581 194.692 212.126 194.211 212.582C193.755 213.013 193.236 213.228 192.653 213.228C192.07 213.228 191.538 213.013 191.057 212.582C190.601 212.126 190.373 211.581 190.373 210.948C190.373 210.315 190.588 209.783 191.019 209.352C191.475 208.896 192.02 208.668 192.653 208.668ZM213.805 208.668C214.439 208.668 214.971 208.896 215.401 209.352C215.857 209.783 216.085 210.315 216.085 210.948C216.085 211.581 215.845 212.126 215.363 212.582C214.907 213.013 214.388 213.228 213.805 213.228C213.223 213.228 212.691 213.013 212.209 212.582C211.753 212.126 211.525 211.581 211.525 210.948C211.525 210.315 211.741 209.783 212.171 209.352C212.627 208.896 213.172 208.668 213.805 208.668ZM234.958 208.668C235.591 208.668 236.123 208.896 236.554 209.352C237.01 209.783 237.238 210.315 237.238 210.948C237.238 211.581 236.997 212.126 236.516 212.582C236.06 213.013 235.54 213.228 234.958 213.228C234.375 213.228 233.843 213.013 233.362 212.582C232.906 212.126 232.678 211.581 232.678 210.948C232.678 210.315 232.893 209.783 233.324 209.352C233.78 208.896 234.324 208.668 234.958 208.668ZM256.11 208.668C256.743 208.668 257.275 208.896 257.706 209.352C258.162 209.783 258.39 210.315 258.39 210.948C258.39 211.581 258.149 212.126 257.668 212.582C257.212 213.013 256.693 213.228 256.11 213.228C255.527 213.228 254.995 213.013 254.514 212.582C254.058 212.126 253.83 211.581 253.83 210.948C253.83 210.315 254.045 209.783 254.476 209.352C254.932 208.896 255.477 208.668 256.11 208.668ZM277.262 208.668C277.896 208.668 278.428 208.896 278.858 209.352C279.314 209.783 279.542 210.315 279.542 210.948C279.542 211.581 279.302 212.126 278.82 212.582C278.364 213.013 277.845 213.228 277.262 213.228C276.68 213.228 276.148 213.013 275.666 212.582C275.21 212.126 274.982 211.581 274.982 210.948C274.982 210.315 275.198 209.783 275.628 209.352C276.084 208.896 276.629 208.668 277.262 208.668ZM298.415 208.668C299.048 208.668 299.58 208.896 300.011 209.352C300.467 209.783 300.695 210.315 300.695 210.948C300.695 211.581 300.454 212.126 299.973 212.582C299.517 213.013 298.997 213.228 298.415 213.228C297.832 213.228 297.3 213.013 296.819 212.582C296.363 212.126 296.135 211.581 296.135 210.948C296.135 210.315 296.35 209.783 296.781 209.352C297.237 208.896 297.781 208.668 298.415 208.668ZM319.567 208.668C320.2 208.668 320.732 208.896 321.163 209.352C321.619 209.783 321.847 210.315 321.847 210.948C321.847 211.581 321.606 212.126 321.125 212.582C320.669 213.013 320.15 213.228 319.567 213.228C318.984 213.228 318.452 213.013 317.971 212.582C317.515 212.126 317.287 211.581 317.287 210.948C317.287 210.315 317.502 209.783 317.933 209.352C318.389 208.896 318.934 208.668 319.567 208.668ZM340.72 208.668C341.353 208.668 341.885 208.896 342.316 209.352C342.772 209.783 343 210.315 343 210.948C343 211.581 342.759 212.126 342.278 212.582C341.822 213.013 341.302 213.228 340.72 213.228C340.137 213.228 339.605 213.013 339.124 212.582C338.668 212.126 338.44 211.581 338.44 210.948C338.44 210.315 338.655 209.783 339.086 209.352C339.542 208.896 340.086 208.668 340.72 208.668ZM361.872 208.668C362.505 208.668 363.037 208.896 363.468 209.352C363.924 209.783 364.152 210.315 364.152 210.948C364.152 211.581 363.911 212.126 363.43 212.582C362.974 213.013 362.455 213.228 361.872 213.228C361.289 213.228 360.757 213.013 360.276 212.582C359.82 212.126 359.592 211.581 359.592 210.948C359.592 210.315 359.807 209.783 360.238 209.352C360.694 208.896 361.239 208.668 361.872 208.668ZM383.024 208.668C383.658 208.668 384.19 208.896 384.62 209.352C385.076 209.783 385.304 210.315 385.304 210.948C385.304 211.581 385.064 212.126 384.582 212.582C384.126 213.013 383.607 213.228 383.024 213.228C382.442 213.228 381.91 213.013 381.428 212.582C380.972 212.126 380.744 211.581 380.744 210.948C380.744 210.315 380.96 209.783 381.39 209.352C381.846 208.896 382.391 208.668 383.024 208.668ZM404.177 208.668C404.81 208.668 405.342 208.896 405.773 209.352C406.229 209.783 406.457 210.315 406.457 210.948C406.457 211.581 406.216 212.126 405.735 212.582C405.279 213.013 404.759 213.228 404.177 213.228C403.594 213.228 403.062 213.013 402.581 212.582C402.125 212.126 401.897 211.581 401.897 210.948C401.897 210.315 402.112 209.783 402.543 209.352C402.999 208.896 403.543 208.668 404.177 208.668ZM425.329 208.668C425.962 208.668 426.494 208.896 426.925 209.352C427.381 209.783 427.609 210.315 427.609 210.948C427.609 211.581 427.368 212.126 426.887 212.582C426.431 213.013 425.912 213.228 425.329 213.228C424.746 213.228 424.214 213.013 423.733 212.582C423.277 212.126 423.049 211.581 423.049 210.948C423.049 210.315 423.264 209.783 423.695 209.352C424.151 208.896 424.696 208.668 425.329 208.668ZM446.481 208.668C447.115 208.668 447.647 208.896 448.077 209.352C448.533 209.783 448.761 210.315 448.761 210.948C448.761 211.581 448.521 212.126 448.039 212.582C447.583 213.013 447.064 213.228 446.481 213.228C445.899 213.228 445.367 213.013 444.885 212.582C444.429 212.126 444.201 211.581 444.201 210.948C444.201 210.315 444.417 209.783 444.847 209.352C445.303 208.896 445.848 208.668 446.481 208.668ZM2.282 260.668C2.91533 260.668 3.44733 260.896 3.878 261.352C4.334 261.783 4.562 262.315 4.562 262.948C4.562 263.581 4.32133 264.126 3.84 264.582C3.384 265.013 2.86467 265.228 2.282 265.228C1.69933 265.228 1.16733 265.013 0.686 264.582C0.23 264.126 0.00200014 263.581 0.00200014 262.948C0.00200014 262.315 0.217333 261.783 0.648 261.352C1.104 260.896 1.64867 260.668 2.282 260.668ZM23.4343 260.668C24.0677 260.668 24.5997 260.896 25.0303 261.352C25.4863 261.783 25.7143 262.315 25.7143 262.948C25.7143 263.581 25.4737 264.126 24.9923 264.582C24.5363 265.013 24.017 265.228 23.4343 265.228C22.8517 265.228 22.3197 265.013 21.8383 264.582C21.3823 264.126 21.1543 263.581 21.1543 262.948C21.1543 262.315 21.3697 261.783 21.8003 261.352C22.2563 260.896 22.801 260.668 23.4343 260.668ZM44.5867 260.668C45.22 260.668 45.752 260.896 46.1827 261.352C46.6387 261.783 46.8667 262.315 46.8667 262.948C46.8667 263.581 46.626 264.126 46.1447 264.582C45.6887 265.013 45.1694 265.228 44.5867 265.228C44.004 265.228 43.472 265.013 42.9907 264.582C42.5347 264.126 42.3067 263.581 42.3067 262.948C42.3067 262.315 42.522 261.783 42.9527 261.352C43.4087 260.896 43.9534 260.668 44.5867 260.668ZM65.739 260.668C66.3724 260.668 66.9044 260.896 67.335 261.352C67.791 261.783 68.019 262.315 68.019 262.948C68.019 263.581 67.7784 264.126 67.297 264.582C66.841 265.013 66.3217 265.228 65.739 265.228C65.1564 265.228 64.6244 265.013 64.143 264.582C63.687 264.126 63.459 263.581 63.459 262.948C63.459 262.315 63.6744 261.783 64.105 261.352C64.561 260.896 65.1057 260.668 65.739 260.668ZM86.8914 260.668C87.5247 260.668 88.0567 260.896 88.4874 261.352C88.9434 261.783 89.1714 262.315 89.1714 262.948C89.1714 263.581 88.9307 264.126 88.4494 264.582C87.9934 265.013 87.474 265.228 86.8914 265.228C86.3087 265.228 85.7767 265.013 85.2954 264.582C84.8394 264.126 84.6114 263.581 84.6114 262.948C84.6114 262.315 84.8267 261.783 85.2574 261.352C85.7134 260.896 86.258 260.668 86.8914 260.668ZM108.044 260.668C108.677 260.668 109.209 260.896 109.64 261.352C110.096 261.783 110.324 262.315 110.324 262.948C110.324 263.581 110.083 264.126 109.602 264.582C109.146 265.013 108.626 265.228 108.044 265.228C107.461 265.228 106.929 265.013 106.448 264.582C105.992 264.126 105.764 263.581 105.764 262.948C105.764 262.315 105.979 261.783 106.41 261.352C106.866 260.896 107.41 260.668 108.044 260.668ZM129.196 260.668C129.829 260.668 130.361 260.896 130.792 261.352C131.248 261.783 131.476 262.315 131.476 262.948C131.476 263.581 131.235 264.126 130.754 264.582C130.298 265.013 129.779 265.228 129.196 265.228C128.613 265.228 128.081 265.013 127.6 264.582C127.144 264.126 126.916 263.581 126.916 262.948C126.916 262.315 127.131 261.783 127.562 261.352C128.018 260.896 128.563 260.668 129.196 260.668ZM150.348 260.668C150.982 260.668 151.514 260.896 151.944 261.352C152.4 261.783 152.628 262.315 152.628 262.948C152.628 263.581 152.388 264.126 151.906 264.582C151.45 265.013 150.931 265.228 150.348 265.228C149.766 265.228 149.234 265.013 148.752 264.582C148.296 264.126 148.068 263.581 148.068 262.948C148.068 262.315 148.284 261.783 148.714 261.352C149.17 260.896 149.715 260.668 150.348 260.668ZM171.501 260.668C172.134 260.668 172.666 260.896 173.097 261.352C173.553 261.783 173.781 262.315 173.781 262.948C173.781 263.581 173.54 264.126 173.059 264.582C172.603 265.013 172.083 265.228 171.501 265.228C170.918 265.228 170.386 265.013 169.905 264.582C169.449 264.126 169.221 263.581 169.221 262.948C169.221 262.315 169.436 261.783 169.867 261.352C170.323 260.896 170.867 260.668 171.501 260.668ZM192.653 260.668C193.286 260.668 193.818 260.896 194.249 261.352C194.705 261.783 194.933 262.315 194.933 262.948C194.933 263.581 194.692 264.126 194.211 264.582C193.755 265.013 193.236 265.228 192.653 265.228C192.07 265.228 191.538 265.013 191.057 264.582C190.601 264.126 190.373 263.581 190.373 262.948C190.373 262.315 190.588 261.783 191.019 261.352C191.475 260.896 192.02 260.668 192.653 260.668ZM213.805 260.668C214.439 260.668 214.971 260.896 215.401 261.352C215.857 261.783 216.085 262.315 216.085 262.948C216.085 263.581 215.845 264.126 215.363 264.582C214.907 265.013 214.388 265.228 213.805 265.228C213.223 265.228 212.691 265.013 212.209 264.582C211.753 264.126 211.525 263.581 211.525 262.948C211.525 262.315 211.741 261.783 212.171 261.352C212.627 260.896 213.172 260.668 213.805 260.668ZM234.958 260.668C235.591 260.668 236.123 260.896 236.554 261.352C237.01 261.783 237.238 262.315 237.238 262.948C237.238 263.581 236.997 264.126 236.516 264.582C236.06 265.013 235.54 265.228 234.958 265.228C234.375 265.228 233.843 265.013 233.362 264.582C232.906 264.126 232.678 263.581 232.678 262.948C232.678 262.315 232.893 261.783 233.324 261.352C233.78 260.896 234.324 260.668 234.958 260.668ZM256.11 260.668C256.743 260.668 257.275 260.896 257.706 261.352C258.162 261.783 258.39 262.315 258.39 262.948C258.39 263.581 258.149 264.126 257.668 264.582C257.212 265.013 256.693 265.228 256.11 265.228C255.527 265.228 254.995 265.013 254.514 264.582C254.058 264.126 253.83 263.581 253.83 262.948C253.83 262.315 254.045 261.783 254.476 261.352C254.932 260.896 255.477 260.668 256.11 260.668ZM277.262 260.668C277.896 260.668 278.428 260.896 278.858 261.352C279.314 261.783 279.542 262.315 279.542 262.948C279.542 263.581 279.302 264.126 278.82 264.582C278.364 265.013 277.845 265.228 277.262 265.228C276.68 265.228 276.148 265.013 275.666 264.582C275.21 264.126 274.982 263.581 274.982 262.948C274.982 262.315 275.198 261.783 275.628 261.352C276.084 260.896 276.629 260.668 277.262 260.668ZM298.415 260.668C299.048 260.668 299.58 260.896 300.011 261.352C300.467 261.783 300.695 262.315 300.695 262.948C300.695 263.581 300.454 264.126 299.973 264.582C299.517 265.013 298.997 265.228 298.415 265.228C297.832 265.228 297.3 265.013 296.819 264.582C296.363 264.126 296.135 263.581 296.135 262.948C296.135 262.315 296.35 261.783 296.781 261.352C297.237 260.896 297.781 260.668 298.415 260.668ZM319.567 260.668C320.2 260.668 320.732 260.896 321.163 261.352C321.619 261.783 321.847 262.315 321.847 262.948C321.847 263.581 321.606 264.126 321.125 264.582C320.669 265.013 320.15 265.228 319.567 265.228C318.984 265.228 318.452 265.013 317.971 264.582C317.515 264.126 317.287 263.581 317.287 262.948C317.287 262.315 317.502 261.783 317.933 261.352C318.389 260.896 318.934 260.668 319.567 260.668ZM340.72 260.668C341.353 260.668 341.885 260.896 342.316 261.352C342.772 261.783 343 262.315 343 262.948C343 263.581 342.759 264.126 342.278 264.582C341.822 265.013 341.302 265.228 340.72 265.228C340.137 265.228 339.605 265.013 339.124 264.582C338.668 264.126 338.44 263.581 338.44 262.948C338.44 262.315 338.655 261.783 339.086 261.352C339.542 260.896 340.086 260.668 340.72 260.668ZM361.872 260.668C362.505 260.668 363.037 260.896 363.468 261.352C363.924 261.783 364.152 262.315 364.152 262.948C364.152 263.581 363.911 264.126 363.43 264.582C362.974 265.013 362.455 265.228 361.872 265.228C361.289 265.228 360.757 265.013 360.276 264.582C359.82 264.126 359.592 263.581 359.592 262.948C359.592 262.315 359.807 261.783 360.238 261.352C360.694 260.896 361.239 260.668 361.872 260.668ZM383.024 260.668C383.658 260.668 384.19 260.896 384.62 261.352C385.076 261.783 385.304 262.315 385.304 262.948C385.304 263.581 385.064 264.126 384.582 264.582C384.126 265.013 383.607 265.228 383.024 265.228C382.442 265.228 381.91 265.013 381.428 264.582C380.972 264.126 380.744 263.581 380.744 262.948C380.744 262.315 380.96 261.783 381.39 261.352C381.846 260.896 382.391 260.668 383.024 260.668ZM404.177 260.668C404.81 260.668 405.342 260.896 405.773 261.352C406.229 261.783 406.457 262.315 406.457 262.948C406.457 263.581 406.216 264.126 405.735 264.582C405.279 265.013 404.759 265.228 404.177 265.228C403.594 265.228 403.062 265.013 402.581 264.582C402.125 264.126 401.897 263.581 401.897 262.948C401.897 262.315 402.112 261.783 402.543 261.352C402.999 260.896 403.543 260.668 404.177 260.668ZM425.329 260.668C425.962 260.668 426.494 260.896 426.925 261.352C427.381 261.783 427.609 262.315 427.609 262.948C427.609 263.581 427.368 264.126 426.887 264.582C426.431 265.013 425.912 265.228 425.329 265.228C424.746 265.228 424.214 265.013 423.733 264.582C423.277 264.126 423.049 263.581 423.049 262.948C423.049 262.315 423.264 261.783 423.695 261.352C424.151 260.896 424.696 260.668 425.329 260.668ZM446.481 260.668C447.115 260.668 447.647 260.896 448.077 261.352C448.533 261.783 448.761 262.315 448.761 262.948C448.761 263.581 448.521 264.126 448.039 264.582C447.583 265.013 447.064 265.228 446.481 265.228C445.899 265.228 445.367 265.013 444.885 264.582C444.429 264.126 444.201 263.581 444.201 262.948C444.201 262.315 444.417 261.783 444.847 261.352C445.303 260.896 445.848 260.668 446.481 260.668ZM2.282 312.668C2.91533 312.668 3.44733 312.896 3.878 313.352C4.334 313.783 4.562 314.315 4.562 314.948C4.562 315.581 4.32133 316.126 3.84 316.582C3.384 317.013 2.86467 317.228 2.282 317.228C1.69933 317.228 1.16733 317.013 0.686 316.582C0.23 316.126 0.00200014 315.581 0.00200014 314.948C0.00200014 314.315 0.217333 313.783 0.648 313.352C1.104 312.896 1.64867 312.668 2.282 312.668ZM23.4343 312.668C24.0677 312.668 24.5997 312.896 25.0303 313.352C25.4863 313.783 25.7143 314.315 25.7143 314.948C25.7143 315.581 25.4737 316.126 24.9923 316.582C24.5363 317.013 24.017 317.228 23.4343 317.228C22.8517 317.228 22.3197 317.013 21.8383 316.582C21.3823 316.126 21.1543 315.581 21.1543 314.948C21.1543 314.315 21.3697 313.783 21.8003 313.352C22.2563 312.896 22.801 312.668 23.4343 312.668ZM44.5867 312.668C45.22 312.668 45.752 312.896 46.1827 313.352C46.6387 313.783 46.8667 314.315 46.8667 314.948C46.8667 315.581 46.626 316.126 46.1447 316.582C45.6887 317.013 45.1694 317.228 44.5867 317.228C44.004 317.228 43.472 317.013 42.9907 316.582C42.5347 316.126 42.3067 315.581 42.3067 314.948C42.3067 314.315 42.522 313.783 42.9527 313.352C43.4087 312.896 43.9534 312.668 44.5867 312.668ZM65.739 312.668C66.3724 312.668 66.9044 312.896 67.335 313.352C67.791 313.783 68.019 314.315 68.019 314.948C68.019 315.581 67.7784 316.126 67.297 316.582C66.841 317.013 66.3217 317.228 65.739 317.228C65.1564 317.228 64.6244 317.013 64.143 316.582C63.687 316.126 63.459 315.581 63.459 314.948C63.459 314.315 63.6744 313.783 64.105 313.352C64.561 312.896 65.1057 312.668 65.739 312.668ZM86.8914 312.668C87.5247 312.668 88.0567 312.896 88.4874 313.352C88.9434 313.783 89.1714 314.315 89.1714 314.948C89.1714 315.581 88.9307 316.126 88.4494 316.582C87.9934 317.013 87.474 317.228 86.8914 317.228C86.3087 317.228 85.7767 317.013 85.2954 316.582C84.8394 316.126 84.6114 315.581 84.6114 314.948C84.6114 314.315 84.8267 313.783 85.2574 313.352C85.7134 312.896 86.258 312.668 86.8914 312.668ZM108.044 312.668C108.677 312.668 109.209 312.896 109.64 313.352C110.096 313.783 110.324 314.315 110.324 314.948C110.324 315.581 110.083 316.126 109.602 316.582C109.146 317.013 108.626 317.228 108.044 317.228C107.461 317.228 106.929 317.013 106.448 316.582C105.992 316.126 105.764 315.581 105.764 314.948C105.764 314.315 105.979 313.783 106.41 313.352C106.866 312.896 107.41 312.668 108.044 312.668ZM129.196 312.668C129.829 312.668 130.361 312.896 130.792 313.352C131.248 313.783 131.476 314.315 131.476 314.948C131.476 315.581 131.235 316.126 130.754 316.582C130.298 317.013 129.779 317.228 129.196 317.228C128.613 317.228 128.081 317.013 127.6 316.582C127.144 316.126 126.916 315.581 126.916 314.948C126.916 314.315 127.131 313.783 127.562 313.352C128.018 312.896 128.563 312.668 129.196 312.668ZM150.348 312.668C150.982 312.668 151.514 312.896 151.944 313.352C152.4 313.783 152.628 314.315 152.628 314.948C152.628 315.581 152.388 316.126 151.906 316.582C151.45 317.013 150.931 317.228 150.348 317.228C149.766 317.228 149.234 317.013 148.752 316.582C148.296 316.126 148.068 315.581 148.068 314.948C148.068 314.315 148.284 313.783 148.714 313.352C149.17 312.896 149.715 312.668 150.348 312.668ZM171.501 312.668C172.134 312.668 172.666 312.896 173.097 313.352C173.553 313.783 173.781 314.315 173.781 314.948C173.781 315.581 173.54 316.126 173.059 316.582C172.603 317.013 172.083 317.228 171.501 317.228C170.918 317.228 170.386 317.013 169.905 316.582C169.449 316.126 169.221 315.581 169.221 314.948C169.221 314.315 169.436 313.783 169.867 313.352C170.323 312.896 170.867 312.668 171.501 312.668ZM192.653 312.668C193.286 312.668 193.818 312.896 194.249 313.352C194.705 313.783 194.933 314.315 194.933 314.948C194.933 315.581 194.692 316.126 194.211 316.582C193.755 317.013 193.236 317.228 192.653 317.228C192.07 317.228 191.538 317.013 191.057 316.582C190.601 316.126 190.373 315.581 190.373 314.948C190.373 314.315 190.588 313.783 191.019 313.352C191.475 312.896 192.02 312.668 192.653 312.668ZM213.805 312.668C214.439 312.668 214.971 312.896 215.401 313.352C215.857 313.783 216.085 314.315 216.085 314.948C216.085 315.581 215.845 316.126 215.363 316.582C214.907 317.013 214.388 317.228 213.805 317.228C213.223 317.228 212.691 317.013 212.209 316.582C211.753 316.126 211.525 315.581 211.525 314.948C211.525 314.315 211.741 313.783 212.171 313.352C212.627 312.896 213.172 312.668 213.805 312.668ZM234.958 312.668C235.591 312.668 236.123 312.896 236.554 313.352C237.01 313.783 237.238 314.315 237.238 314.948C237.238 315.581 236.997 316.126 236.516 316.582C236.06 317.013 235.54 317.228 234.958 317.228C234.375 317.228 233.843 317.013 233.362 316.582C232.906 316.126 232.678 315.581 232.678 314.948C232.678 314.315 232.893 313.783 233.324 313.352C233.78 312.896 234.324 312.668 234.958 312.668ZM256.11 312.668C256.743 312.668 257.275 312.896 257.706 313.352C258.162 313.783 258.39 314.315 258.39 314.948C258.39 315.581 258.149 316.126 257.668 316.582C257.212 317.013 256.693 317.228 256.11 317.228C255.527 317.228 254.995 317.013 254.514 316.582C254.058 316.126 253.83 315.581 253.83 314.948C253.83 314.315 254.045 313.783 254.476 313.352C254.932 312.896 255.477 312.668 256.11 312.668ZM277.262 312.668C277.896 312.668 278.428 312.896 278.858 313.352C279.314 313.783 279.542 314.315 279.542 314.948C279.542 315.581 279.302 316.126 278.82 316.582C278.364 317.013 277.845 317.228 277.262 317.228C276.68 317.228 276.148 317.013 275.666 316.582C275.21 316.126 274.982 315.581 274.982 314.948C274.982 314.315 275.198 313.783 275.628 313.352C276.084 312.896 276.629 312.668 277.262 312.668ZM298.415 312.668C299.048 312.668 299.58 312.896 300.011 313.352C300.467 313.783 300.695 314.315 300.695 314.948C300.695 315.581 300.454 316.126 299.973 316.582C299.517 317.013 298.997 317.228 298.415 317.228C297.832 317.228 297.3 317.013 296.819 316.582C296.363 316.126 296.135 315.581 296.135 314.948C296.135 314.315 296.35 313.783 296.781 313.352C297.237 312.896 297.781 312.668 298.415 312.668ZM319.567 312.668C320.2 312.668 320.732 312.896 321.163 313.352C321.619 313.783 321.847 314.315 321.847 314.948C321.847 315.581 321.606 316.126 321.125 316.582C320.669 317.013 320.15 317.228 319.567 317.228C318.984 317.228 318.452 317.013 317.971 316.582C317.515 316.126 317.287 315.581 317.287 314.948C317.287 314.315 317.502 313.783 317.933 313.352C318.389 312.896 318.934 312.668 319.567 312.668ZM340.72 312.668C341.353 312.668 341.885 312.896 342.316 313.352C342.772 313.783 343 314.315 343 314.948C343 315.581 342.759 316.126 342.278 316.582C341.822 317.013 341.302 317.228 340.72 317.228C340.137 317.228 339.605 317.013 339.124 316.582C338.668 316.126 338.44 315.581 338.44 314.948C338.44 314.315 338.655 313.783 339.086 313.352C339.542 312.896 340.086 312.668 340.72 312.668ZM361.872 312.668C362.505 312.668 363.037 312.896 363.468 313.352C363.924 313.783 364.152 314.315 364.152 314.948C364.152 315.581 363.911 316.126 363.43 316.582C362.974 317.013 362.455 317.228 361.872 317.228C361.289 317.228 360.757 317.013 360.276 316.582C359.82 316.126 359.592 315.581 359.592 314.948C359.592 314.315 359.807 313.783 360.238 313.352C360.694 312.896 361.239 312.668 361.872 312.668ZM383.024 312.668C383.658 312.668 384.19 312.896 384.62 313.352C385.076 313.783 385.304 314.315 385.304 314.948C385.304 315.581 385.064 316.126 384.582 316.582C384.126 317.013 383.607 317.228 383.024 317.228C382.442 317.228 381.91 317.013 381.428 316.582C380.972 316.126 380.744 315.581 380.744 314.948C380.744 314.315 380.96 313.783 381.39 313.352C381.846 312.896 382.391 312.668 383.024 312.668ZM404.177 312.668C404.81 312.668 405.342 312.896 405.773 313.352C406.229 313.783 406.457 314.315 406.457 314.948C406.457 315.581 406.216 316.126 405.735 316.582C405.279 317.013 404.759 317.228 404.177 317.228C403.594 317.228 403.062 317.013 402.581 316.582C402.125 316.126 401.897 315.581 401.897 314.948C401.897 314.315 402.112 313.783 402.543 313.352C402.999 312.896 403.543 312.668 404.177 312.668ZM425.329 312.668C425.962 312.668 426.494 312.896 426.925 313.352C427.381 313.783 427.609 314.315 427.609 314.948C427.609 315.581 427.368 316.126 426.887 316.582C426.431 317.013 425.912 317.228 425.329 317.228C424.746 317.228 424.214 317.013 423.733 316.582C423.277 316.126 423.049 315.581 423.049 314.948C423.049 314.315 423.264 313.783 423.695 313.352C424.151 312.896 424.696 312.668 425.329 312.668ZM446.481 312.668C447.115 312.668 447.647 312.896 448.077 313.352C448.533 313.783 448.761 314.315 448.761 314.948C448.761 315.581 448.521 316.126 448.039 316.582C447.583 317.013 447.064 317.228 446.481 317.228C445.899 317.228 445.367 317.013 444.885 316.582C444.429 316.126 444.201 315.581 444.201 314.948C444.201 314.315 444.417 313.783 444.847 313.352C445.303 312.896 445.848 312.668 446.481 312.668Z" fill="#698191"/>
</svg>
