<svg width="562" height="554" viewBox="0 0 562 554" fill="none" xmlns="http://www.w3.org/2000/svg">
<ellipse cx="320.5" cy="283.5" rx="224.5" ry="228.5" fill="#FEA9AD"/>
<path d="M446.5 228.5C446.5 353.358 347.066 454.5 224.5 454.5C101.934 454.5 2.5 353.358 2.5 228.5C2.5 103.642 101.934 2.5 224.5 2.5C347.066 2.5 446.5 103.642 446.5 228.5Z" stroke="#F79297" stroke-width="5"/>
<path d="M207.282 275.668C207.915 275.668 208.447 275.896 208.878 276.352C209.334 276.783 209.562 277.315 209.562 277.948C209.562 278.581 209.321 279.126 208.84 279.582C208.384 280.013 207.865 280.228 207.282 280.228C206.699 280.228 206.167 280.013 205.686 279.582C205.23 279.126 205.002 278.581 205.002 277.948C205.002 277.315 205.217 276.783 205.648 276.352C206.104 275.896 206.649 275.668 207.282 275.668ZM228.434 275.668C229.068 275.668 229.6 275.896 230.03 276.352C230.486 276.783 230.714 277.315 230.714 277.948C230.714 278.581 230.474 279.126 229.992 279.582C229.536 280.013 229.017 280.228 228.434 280.228C227.852 280.228 227.32 280.013 226.838 279.582C226.382 279.126 226.154 278.581 226.154 277.948C226.154 277.315 226.37 276.783 226.8 276.352C227.256 275.896 227.801 275.668 228.434 275.668ZM249.587 275.668C250.22 275.668 250.752 275.896 251.183 276.352C251.639 276.783 251.867 277.315 251.867 277.948C251.867 278.581 251.626 279.126 251.145 279.582C250.689 280.013 250.169 280.228 249.587 280.228C249.004 280.228 248.472 280.013 247.991 279.582C247.535 279.126 247.307 278.581 247.307 277.948C247.307 277.315 247.522 276.783 247.953 276.352C248.409 275.896 248.953 275.668 249.587 275.668ZM270.739 275.668C271.372 275.668 271.904 275.896 272.335 276.352C272.791 276.783 273.019 277.315 273.019 277.948C273.019 278.581 272.778 279.126 272.297 279.582C271.841 280.013 271.322 280.228 270.739 280.228C270.156 280.228 269.624 280.013 269.143 279.582C268.687 279.126 268.459 278.581 268.459 277.948C268.459 277.315 268.674 276.783 269.105 276.352C269.561 275.896 270.106 275.668 270.739 275.668ZM291.891 275.668C292.525 275.668 293.057 275.896 293.487 276.352C293.943 276.783 294.171 277.315 294.171 277.948C294.171 278.581 293.931 279.126 293.449 279.582C292.993 280.013 292.474 280.228 291.891 280.228C291.309 280.228 290.777 280.013 290.295 279.582C289.839 279.126 289.611 278.581 289.611 277.948C289.611 277.315 289.827 276.783 290.257 276.352C290.713 275.896 291.258 275.668 291.891 275.668ZM313.044 275.668C313.677 275.668 314.209 275.896 314.64 276.352C315.096 276.783 315.324 277.315 315.324 277.948C315.324 278.581 315.083 279.126 314.602 279.582C314.146 280.013 313.626 280.228 313.044 280.228C312.461 280.228 311.929 280.013 311.448 279.582C310.992 279.126 310.764 278.581 310.764 277.948C310.764 277.315 310.979 276.783 311.41 276.352C311.866 275.896 312.41 275.668 313.044 275.668ZM334.196 275.668C334.829 275.668 335.361 275.896 335.792 276.352C336.248 276.783 336.476 277.315 336.476 277.948C336.476 278.581 336.235 279.126 335.754 279.582C335.298 280.013 334.779 280.228 334.196 280.228C333.613 280.228 333.081 280.013 332.6 279.582C332.144 279.126 331.916 278.581 331.916 277.948C331.916 277.315 332.131 276.783 332.562 276.352C333.018 275.896 333.563 275.668 334.196 275.668ZM355.348 275.668C355.982 275.668 356.514 275.896 356.944 276.352C357.4 276.783 357.628 277.315 357.628 277.948C357.628 278.581 357.388 279.126 356.906 279.582C356.45 280.013 355.931 280.228 355.348 280.228C354.766 280.228 354.234 280.013 353.752 279.582C353.296 279.126 353.068 278.581 353.068 277.948C353.068 277.315 353.284 276.783 353.714 276.352C354.17 275.896 354.715 275.668 355.348 275.668ZM376.501 275.668C377.134 275.668 377.666 275.896 378.097 276.352C378.553 276.783 378.781 277.315 378.781 277.948C378.781 278.581 378.54 279.126 378.059 279.582C377.603 280.013 377.083 280.228 376.501 280.228C375.918 280.228 375.386 280.013 374.905 279.582C374.449 279.126 374.221 278.581 374.221 277.948C374.221 277.315 374.436 276.783 374.867 276.352C375.323 275.896 375.867 275.668 376.501 275.668ZM397.653 275.668C398.286 275.668 398.818 275.896 399.249 276.352C399.705 276.783 399.933 277.315 399.933 277.948C399.933 278.581 399.692 279.126 399.211 279.582C398.755 280.013 398.236 280.228 397.653 280.228C397.07 280.228 396.538 280.013 396.057 279.582C395.601 279.126 395.373 278.581 395.373 277.948C395.373 277.315 395.588 276.783 396.019 276.352C396.475 275.896 397.02 275.668 397.653 275.668ZM418.805 275.668C419.439 275.668 419.971 275.896 420.401 276.352C420.857 276.783 421.085 277.315 421.085 277.948C421.085 278.581 420.845 279.126 420.363 279.582C419.907 280.013 419.388 280.228 418.805 280.228C418.223 280.228 417.691 280.013 417.209 279.582C416.753 279.126 416.525 278.581 416.525 277.948C416.525 277.315 416.741 276.783 417.171 276.352C417.627 275.896 418.172 275.668 418.805 275.668ZM439.958 275.668C440.591 275.668 441.123 275.896 441.554 276.352C442.01 276.783 442.238 277.315 442.238 277.948C442.238 278.581 441.997 279.126 441.516 279.582C441.06 280.013 440.54 280.228 439.958 280.228C439.375 280.228 438.843 280.013 438.362 279.582C437.906 279.126 437.678 278.581 437.678 277.948C437.678 277.315 437.893 276.783 438.324 276.352C438.78 275.896 439.324 275.668 439.958 275.668ZM461.11 275.668C461.743 275.668 462.275 275.896 462.706 276.352C463.162 276.783 463.39 277.315 463.39 277.948C463.39 278.581 463.149 279.126 462.668 279.582C462.212 280.013 461.693 280.228 461.11 280.228C460.527 280.228 459.995 280.013 459.514 279.582C459.058 279.126 458.83 278.581 458.83 277.948C458.83 277.315 459.045 276.783 459.476 276.352C459.932 275.896 460.477 275.668 461.11 275.668ZM482.262 275.668C482.896 275.668 483.428 275.896 483.858 276.352C484.314 276.783 484.542 277.315 484.542 277.948C484.542 278.581 484.302 279.126 483.82 279.582C483.364 280.013 482.845 280.228 482.262 280.228C481.68 280.228 481.148 280.013 480.666 279.582C480.21 279.126 479.982 278.581 479.982 277.948C479.982 277.315 480.198 276.783 480.628 276.352C481.084 275.896 481.629 275.668 482.262 275.668ZM503.415 275.668C504.048 275.668 504.58 275.896 505.011 276.352C505.467 276.783 505.695 277.315 505.695 277.948C505.695 278.581 505.454 279.126 504.973 279.582C504.517 280.013 503.997 280.228 503.415 280.228C502.832 280.228 502.3 280.013 501.819 279.582C501.363 279.126 501.135 278.581 501.135 277.948C501.135 277.315 501.35 276.783 501.781 276.352C502.237 275.896 502.781 275.668 503.415 275.668ZM524.567 275.668C525.2 275.668 525.732 275.896 526.163 276.352C526.619 276.783 526.847 277.315 526.847 277.948C526.847 278.581 526.606 279.126 526.125 279.582C525.669 280.013 525.15 280.228 524.567 280.228C523.984 280.228 523.452 280.013 522.971 279.582C522.515 279.126 522.287 278.581 522.287 277.948C522.287 277.315 522.502 276.783 522.933 276.352C523.389 275.896 523.934 275.668 524.567 275.668ZM545.72 275.668C546.353 275.668 546.885 275.896 547.316 276.352C547.772 276.783 548 277.315 548 277.948C548 278.581 547.759 279.126 547.278 279.582C546.822 280.013 546.302 280.228 545.72 280.228C545.137 280.228 544.605 280.013 544.124 279.582C543.668 279.126 543.44 278.581 543.44 277.948C543.44 277.315 543.655 276.783 544.086 276.352C544.542 275.896 545.086 275.668 545.72 275.668ZM207.282 327.668C207.915 327.668 208.447 327.896 208.878 328.352C209.334 328.783 209.562 329.315 209.562 329.948C209.562 330.581 209.321 331.126 208.84 331.582C208.384 332.013 207.865 332.228 207.282 332.228C206.699 332.228 206.167 332.013 205.686 331.582C205.23 331.126 205.002 330.581 205.002 329.948C205.002 329.315 205.217 328.783 205.648 328.352C206.104 327.896 206.649 327.668 207.282 327.668ZM228.434 327.668C229.068 327.668 229.6 327.896 230.03 328.352C230.486 328.783 230.714 329.315 230.714 329.948C230.714 330.581 230.474 331.126 229.992 331.582C229.536 332.013 229.017 332.228 228.434 332.228C227.852 332.228 227.32 332.013 226.838 331.582C226.382 331.126 226.154 330.581 226.154 329.948C226.154 329.315 226.37 328.783 226.8 328.352C227.256 327.896 227.801 327.668 228.434 327.668ZM249.587 327.668C250.22 327.668 250.752 327.896 251.183 328.352C251.639 328.783 251.867 329.315 251.867 329.948C251.867 330.581 251.626 331.126 251.145 331.582C250.689 332.013 250.169 332.228 249.587 332.228C249.004 332.228 248.472 332.013 247.991 331.582C247.535 331.126 247.307 330.581 247.307 329.948C247.307 329.315 247.522 328.783 247.953 328.352C248.409 327.896 248.953 327.668 249.587 327.668ZM270.739 327.668C271.372 327.668 271.904 327.896 272.335 328.352C272.791 328.783 273.019 329.315 273.019 329.948C273.019 330.581 272.778 331.126 272.297 331.582C271.841 332.013 271.322 332.228 270.739 332.228C270.156 332.228 269.624 332.013 269.143 331.582C268.687 331.126 268.459 330.581 268.459 329.948C268.459 329.315 268.674 328.783 269.105 328.352C269.561 327.896 270.106 327.668 270.739 327.668ZM291.891 327.668C292.525 327.668 293.057 327.896 293.487 328.352C293.943 328.783 294.171 329.315 294.171 329.948C294.171 330.581 293.931 331.126 293.449 331.582C292.993 332.013 292.474 332.228 291.891 332.228C291.309 332.228 290.777 332.013 290.295 331.582C289.839 331.126 289.611 330.581 289.611 329.948C289.611 329.315 289.827 328.783 290.257 328.352C290.713 327.896 291.258 327.668 291.891 327.668ZM313.044 327.668C313.677 327.668 314.209 327.896 314.64 328.352C315.096 328.783 315.324 329.315 315.324 329.948C315.324 330.581 315.083 331.126 314.602 331.582C314.146 332.013 313.626 332.228 313.044 332.228C312.461 332.228 311.929 332.013 311.448 331.582C310.992 331.126 310.764 330.581 310.764 329.948C310.764 329.315 310.979 328.783 311.41 328.352C311.866 327.896 312.41 327.668 313.044 327.668ZM334.196 327.668C334.829 327.668 335.361 327.896 335.792 328.352C336.248 328.783 336.476 329.315 336.476 329.948C336.476 330.581 336.235 331.126 335.754 331.582C335.298 332.013 334.779 332.228 334.196 332.228C333.613 332.228 333.081 332.013 332.6 331.582C332.144 331.126 331.916 330.581 331.916 329.948C331.916 329.315 332.131 328.783 332.562 328.352C333.018 327.896 333.563 327.668 334.196 327.668ZM355.348 327.668C355.982 327.668 356.514 327.896 356.944 328.352C357.4 328.783 357.628 329.315 357.628 329.948C357.628 330.581 357.388 331.126 356.906 331.582C356.45 332.013 355.931 332.228 355.348 332.228C354.766 332.228 354.234 332.013 353.752 331.582C353.296 331.126 353.068 330.581 353.068 329.948C353.068 329.315 353.284 328.783 353.714 328.352C354.17 327.896 354.715 327.668 355.348 327.668ZM376.501 327.668C377.134 327.668 377.666 327.896 378.097 328.352C378.553 328.783 378.781 329.315 378.781 329.948C378.781 330.581 378.54 331.126 378.059 331.582C377.603 332.013 377.083 332.228 376.501 332.228C375.918 332.228 375.386 332.013 374.905 331.582C374.449 331.126 374.221 330.581 374.221 329.948C374.221 329.315 374.436 328.783 374.867 328.352C375.323 327.896 375.867 327.668 376.501 327.668ZM397.653 327.668C398.286 327.668 398.818 327.896 399.249 328.352C399.705 328.783 399.933 329.315 399.933 329.948C399.933 330.581 399.692 331.126 399.211 331.582C398.755 332.013 398.236 332.228 397.653 332.228C397.07 332.228 396.538 332.013 396.057 331.582C395.601 331.126 395.373 330.581 395.373 329.948C395.373 329.315 395.588 328.783 396.019 328.352C396.475 327.896 397.02 327.668 397.653 327.668ZM418.805 327.668C419.439 327.668 419.971 327.896 420.401 328.352C420.857 328.783 421.085 329.315 421.085 329.948C421.085 330.581 420.845 331.126 420.363 331.582C419.907 332.013 419.388 332.228 418.805 332.228C418.223 332.228 417.691 332.013 417.209 331.582C416.753 331.126 416.525 330.581 416.525 329.948C416.525 329.315 416.741 328.783 417.171 328.352C417.627 327.896 418.172 327.668 418.805 327.668ZM439.958 327.668C440.591 327.668 441.123 327.896 441.554 328.352C442.01 328.783 442.238 329.315 442.238 329.948C442.238 330.581 441.997 331.126 441.516 331.582C441.06 332.013 440.54 332.228 439.958 332.228C439.375 332.228 438.843 332.013 438.362 331.582C437.906 331.126 437.678 330.581 437.678 329.948C437.678 329.315 437.893 328.783 438.324 328.352C438.78 327.896 439.324 327.668 439.958 327.668ZM461.11 327.668C461.743 327.668 462.275 327.896 462.706 328.352C463.162 328.783 463.39 329.315 463.39 329.948C463.39 330.581 463.149 331.126 462.668 331.582C462.212 332.013 461.693 332.228 461.11 332.228C460.527 332.228 459.995 332.013 459.514 331.582C459.058 331.126 458.83 330.581 458.83 329.948C458.83 329.315 459.045 328.783 459.476 328.352C459.932 327.896 460.477 327.668 461.11 327.668ZM482.262 327.668C482.896 327.668 483.428 327.896 483.858 328.352C484.314 328.783 484.542 329.315 484.542 329.948C484.542 330.581 484.302 331.126 483.82 331.582C483.364 332.013 482.845 332.228 482.262 332.228C481.68 332.228 481.148 332.013 480.666 331.582C480.21 331.126 479.982 330.581 479.982 329.948C479.982 329.315 480.198 328.783 480.628 328.352C481.084 327.896 481.629 327.668 482.262 327.668ZM503.415 327.668C504.048 327.668 504.58 327.896 505.011 328.352C505.467 328.783 505.695 329.315 505.695 329.948C505.695 330.581 505.454 331.126 504.973 331.582C504.517 332.013 503.997 332.228 503.415 332.228C502.832 332.228 502.3 332.013 501.819 331.582C501.363 331.126 501.135 330.581 501.135 329.948C501.135 329.315 501.35 328.783 501.781 328.352C502.237 327.896 502.781 327.668 503.415 327.668ZM524.567 327.668C525.2 327.668 525.732 327.896 526.163 328.352C526.619 328.783 526.847 329.315 526.847 329.948C526.847 330.581 526.606 331.126 526.125 331.582C525.669 332.013 525.15 332.228 524.567 332.228C523.984 332.228 523.452 332.013 522.971 331.582C522.515 331.126 522.287 330.581 522.287 329.948C522.287 329.315 522.502 328.783 522.933 328.352C523.389 327.896 523.934 327.668 524.567 327.668ZM545.72 327.668C546.353 327.668 546.885 327.896 547.316 328.352C547.772 328.783 548 329.315 548 329.948C548 330.581 547.759 331.126 547.278 331.582C546.822 332.013 546.302 332.228 545.72 332.228C545.137 332.228 544.605 332.013 544.124 331.582C543.668 331.126 543.44 330.581 543.44 329.948C543.44 329.315 543.655 328.783 544.086 328.352C544.542 327.896 545.086 327.668 545.72 327.668ZM207.282 379.668C207.915 379.668 208.447 379.896 208.878 380.352C209.334 380.783 209.562 381.315 209.562 381.948C209.562 382.581 209.321 383.126 208.84 383.582C208.384 384.013 207.865 384.228 207.282 384.228C206.699 384.228 206.167 384.013 205.686 383.582C205.23 383.126 205.002 382.581 205.002 381.948C205.002 381.315 205.217 380.783 205.648 380.352C206.104 379.896 206.649 379.668 207.282 379.668ZM228.434 379.668C229.068 379.668 229.6 379.896 230.03 380.352C230.486 380.783 230.714 381.315 230.714 381.948C230.714 382.581 230.474 383.126 229.992 383.582C229.536 384.013 229.017 384.228 228.434 384.228C227.852 384.228 227.32 384.013 226.838 383.582C226.382 383.126 226.154 382.581 226.154 381.948C226.154 381.315 226.37 380.783 226.8 380.352C227.256 379.896 227.801 379.668 228.434 379.668ZM249.587 379.668C250.22 379.668 250.752 379.896 251.183 380.352C251.639 380.783 251.867 381.315 251.867 381.948C251.867 382.581 251.626 383.126 251.145 383.582C250.689 384.013 250.169 384.228 249.587 384.228C249.004 384.228 248.472 384.013 247.991 383.582C247.535 383.126 247.307 382.581 247.307 381.948C247.307 381.315 247.522 380.783 247.953 380.352C248.409 379.896 248.953 379.668 249.587 379.668ZM270.739 379.668C271.372 379.668 271.904 379.896 272.335 380.352C272.791 380.783 273.019 381.315 273.019 381.948C273.019 382.581 272.778 383.126 272.297 383.582C271.841 384.013 271.322 384.228 270.739 384.228C270.156 384.228 269.624 384.013 269.143 383.582C268.687 383.126 268.459 382.581 268.459 381.948C268.459 381.315 268.674 380.783 269.105 380.352C269.561 379.896 270.106 379.668 270.739 379.668ZM291.891 379.668C292.525 379.668 293.057 379.896 293.487 380.352C293.943 380.783 294.171 381.315 294.171 381.948C294.171 382.581 293.931 383.126 293.449 383.582C292.993 384.013 292.474 384.228 291.891 384.228C291.309 384.228 290.777 384.013 290.295 383.582C289.839 383.126 289.611 382.581 289.611 381.948C289.611 381.315 289.827 380.783 290.257 380.352C290.713 379.896 291.258 379.668 291.891 379.668ZM313.044 379.668C313.677 379.668 314.209 379.896 314.64 380.352C315.096 380.783 315.324 381.315 315.324 381.948C315.324 382.581 315.083 383.126 314.602 383.582C314.146 384.013 313.626 384.228 313.044 384.228C312.461 384.228 311.929 384.013 311.448 383.582C310.992 383.126 310.764 382.581 310.764 381.948C310.764 381.315 310.979 380.783 311.41 380.352C311.866 379.896 312.41 379.668 313.044 379.668ZM334.196 379.668C334.829 379.668 335.361 379.896 335.792 380.352C336.248 380.783 336.476 381.315 336.476 381.948C336.476 382.581 336.235 383.126 335.754 383.582C335.298 384.013 334.779 384.228 334.196 384.228C333.613 384.228 333.081 384.013 332.6 383.582C332.144 383.126 331.916 382.581 331.916 381.948C331.916 381.315 332.131 380.783 332.562 380.352C333.018 379.896 333.563 379.668 334.196 379.668ZM355.348 379.668C355.982 379.668 356.514 379.896 356.944 380.352C357.4 380.783 357.628 381.315 357.628 381.948C357.628 382.581 357.388 383.126 356.906 383.582C356.45 384.013 355.931 384.228 355.348 384.228C354.766 384.228 354.234 384.013 353.752 383.582C353.296 383.126 353.068 382.581 353.068 381.948C353.068 381.315 353.284 380.783 353.714 380.352C354.17 379.896 354.715 379.668 355.348 379.668ZM376.501 379.668C377.134 379.668 377.666 379.896 378.097 380.352C378.553 380.783 378.781 381.315 378.781 381.948C378.781 382.581 378.54 383.126 378.059 383.582C377.603 384.013 377.083 384.228 376.501 384.228C375.918 384.228 375.386 384.013 374.905 383.582C374.449 383.126 374.221 382.581 374.221 381.948C374.221 381.315 374.436 380.783 374.867 380.352C375.323 379.896 375.867 379.668 376.501 379.668ZM397.653 379.668C398.286 379.668 398.818 379.896 399.249 380.352C399.705 380.783 399.933 381.315 399.933 381.948C399.933 382.581 399.692 383.126 399.211 383.582C398.755 384.013 398.236 384.228 397.653 384.228C397.07 384.228 396.538 384.013 396.057 383.582C395.601 383.126 395.373 382.581 395.373 381.948C395.373 381.315 395.588 380.783 396.019 380.352C396.475 379.896 397.02 379.668 397.653 379.668ZM418.805 379.668C419.439 379.668 419.971 379.896 420.401 380.352C420.857 380.783 421.085 381.315 421.085 381.948C421.085 382.581 420.845 383.126 420.363 383.582C419.907 384.013 419.388 384.228 418.805 384.228C418.223 384.228 417.691 384.013 417.209 383.582C416.753 383.126 416.525 382.581 416.525 381.948C416.525 381.315 416.741 380.783 417.171 380.352C417.627 379.896 418.172 379.668 418.805 379.668ZM439.958 379.668C440.591 379.668 441.123 379.896 441.554 380.352C442.01 380.783 442.238 381.315 442.238 381.948C442.238 382.581 441.997 383.126 441.516 383.582C441.06 384.013 440.54 384.228 439.958 384.228C439.375 384.228 438.843 384.013 438.362 383.582C437.906 383.126 437.678 382.581 437.678 381.948C437.678 381.315 437.893 380.783 438.324 380.352C438.78 379.896 439.324 379.668 439.958 379.668ZM461.11 379.668C461.743 379.668 462.275 379.896 462.706 380.352C463.162 380.783 463.39 381.315 463.39 381.948C463.39 382.581 463.149 383.126 462.668 383.582C462.212 384.013 461.693 384.228 461.11 384.228C460.527 384.228 459.995 384.013 459.514 383.582C459.058 383.126 458.83 382.581 458.83 381.948C458.83 381.315 459.045 380.783 459.476 380.352C459.932 379.896 460.477 379.668 461.11 379.668ZM482.262 379.668C482.896 379.668 483.428 379.896 483.858 380.352C484.314 380.783 484.542 381.315 484.542 381.948C484.542 382.581 484.302 383.126 483.82 383.582C483.364 384.013 482.845 384.228 482.262 384.228C481.68 384.228 481.148 384.013 480.666 383.582C480.21 383.126 479.982 382.581 479.982 381.948C479.982 381.315 480.198 380.783 480.628 380.352C481.084 379.896 481.629 379.668 482.262 379.668ZM503.415 379.668C504.048 379.668 504.58 379.896 505.011 380.352C505.467 380.783 505.695 381.315 505.695 381.948C505.695 382.581 505.454 383.126 504.973 383.582C504.517 384.013 503.997 384.228 503.415 384.228C502.832 384.228 502.3 384.013 501.819 383.582C501.363 383.126 501.135 382.581 501.135 381.948C501.135 381.315 501.35 380.783 501.781 380.352C502.237 379.896 502.781 379.668 503.415 379.668ZM524.567 379.668C525.2 379.668 525.732 379.896 526.163 380.352C526.619 380.783 526.847 381.315 526.847 381.948C526.847 382.581 526.606 383.126 526.125 383.582C525.669 384.013 525.15 384.228 524.567 384.228C523.984 384.228 523.452 384.013 522.971 383.582C522.515 383.126 522.287 382.581 522.287 381.948C522.287 381.315 522.502 380.783 522.933 380.352C523.389 379.896 523.934 379.668 524.567 379.668ZM545.72 379.668C546.353 379.668 546.885 379.896 547.316 380.352C547.772 380.783 548 381.315 548 381.948C548 382.581 547.759 383.126 547.278 383.582C546.822 384.013 546.302 384.228 545.72 384.228C545.137 384.228 544.605 384.013 544.124 383.582C543.668 383.126 543.44 382.581 543.44 381.948C543.44 381.315 543.655 380.783 544.086 380.352C544.542 379.896 545.086 379.668 545.72 379.668ZM207.282 431.668C207.915 431.668 208.447 431.896 208.878 432.352C209.334 432.783 209.562 433.315 209.562 433.948C209.562 434.581 209.321 435.126 208.84 435.582C208.384 436.013 207.865 436.228 207.282 436.228C206.699 436.228 206.167 436.013 205.686 435.582C205.23 435.126 205.002 434.581 205.002 433.948C205.002 433.315 205.217 432.783 205.648 432.352C206.104 431.896 206.649 431.668 207.282 431.668ZM228.434 431.668C229.068 431.668 229.6 431.896 230.03 432.352C230.486 432.783 230.714 433.315 230.714 433.948C230.714 434.581 230.474 435.126 229.992 435.582C229.536 436.013 229.017 436.228 228.434 436.228C227.852 436.228 227.32 436.013 226.838 435.582C226.382 435.126 226.154 434.581 226.154 433.948C226.154 433.315 226.37 432.783 226.8 432.352C227.256 431.896 227.801 431.668 228.434 431.668ZM249.587 431.668C250.22 431.668 250.752 431.896 251.183 432.352C251.639 432.783 251.867 433.315 251.867 433.948C251.867 434.581 251.626 435.126 251.145 435.582C250.689 436.013 250.169 436.228 249.587 436.228C249.004 436.228 248.472 436.013 247.991 435.582C247.535 435.126 247.307 434.581 247.307 433.948C247.307 433.315 247.522 432.783 247.953 432.352C248.409 431.896 248.953 431.668 249.587 431.668ZM270.739 431.668C271.372 431.668 271.904 431.896 272.335 432.352C272.791 432.783 273.019 433.315 273.019 433.948C273.019 434.581 272.778 435.126 272.297 435.582C271.841 436.013 271.322 436.228 270.739 436.228C270.156 436.228 269.624 436.013 269.143 435.582C268.687 435.126 268.459 434.581 268.459 433.948C268.459 433.315 268.674 432.783 269.105 432.352C269.561 431.896 270.106 431.668 270.739 431.668ZM291.891 431.668C292.525 431.668 293.057 431.896 293.487 432.352C293.943 432.783 294.171 433.315 294.171 433.948C294.171 434.581 293.931 435.126 293.449 435.582C292.993 436.013 292.474 436.228 291.891 436.228C291.309 436.228 290.777 436.013 290.295 435.582C289.839 435.126 289.611 434.581 289.611 433.948C289.611 433.315 289.827 432.783 290.257 432.352C290.713 431.896 291.258 431.668 291.891 431.668ZM313.044 431.668C313.677 431.668 314.209 431.896 314.64 432.352C315.096 432.783 315.324 433.315 315.324 433.948C315.324 434.581 315.083 435.126 314.602 435.582C314.146 436.013 313.626 436.228 313.044 436.228C312.461 436.228 311.929 436.013 311.448 435.582C310.992 435.126 310.764 434.581 310.764 433.948C310.764 433.315 310.979 432.783 311.41 432.352C311.866 431.896 312.41 431.668 313.044 431.668ZM334.196 431.668C334.829 431.668 335.361 431.896 335.792 432.352C336.248 432.783 336.476 433.315 336.476 433.948C336.476 434.581 336.235 435.126 335.754 435.582C335.298 436.013 334.779 436.228 334.196 436.228C333.613 436.228 333.081 436.013 332.6 435.582C332.144 435.126 331.916 434.581 331.916 433.948C331.916 433.315 332.131 432.783 332.562 432.352C333.018 431.896 333.563 431.668 334.196 431.668ZM355.348 431.668C355.982 431.668 356.514 431.896 356.944 432.352C357.4 432.783 357.628 433.315 357.628 433.948C357.628 434.581 357.388 435.126 356.906 435.582C356.45 436.013 355.931 436.228 355.348 436.228C354.766 436.228 354.234 436.013 353.752 435.582C353.296 435.126 353.068 434.581 353.068 433.948C353.068 433.315 353.284 432.783 353.714 432.352C354.17 431.896 354.715 431.668 355.348 431.668ZM376.501 431.668C377.134 431.668 377.666 431.896 378.097 432.352C378.553 432.783 378.781 433.315 378.781 433.948C378.781 434.581 378.54 435.126 378.059 435.582C377.603 436.013 377.083 436.228 376.501 436.228C375.918 436.228 375.386 436.013 374.905 435.582C374.449 435.126 374.221 434.581 374.221 433.948C374.221 433.315 374.436 432.783 374.867 432.352C375.323 431.896 375.867 431.668 376.501 431.668ZM397.653 431.668C398.286 431.668 398.818 431.896 399.249 432.352C399.705 432.783 399.933 433.315 399.933 433.948C399.933 434.581 399.692 435.126 399.211 435.582C398.755 436.013 398.236 436.228 397.653 436.228C397.07 436.228 396.538 436.013 396.057 435.582C395.601 435.126 395.373 434.581 395.373 433.948C395.373 433.315 395.588 432.783 396.019 432.352C396.475 431.896 397.02 431.668 397.653 431.668ZM418.805 431.668C419.439 431.668 419.971 431.896 420.401 432.352C420.857 432.783 421.085 433.315 421.085 433.948C421.085 434.581 420.845 435.126 420.363 435.582C419.907 436.013 419.388 436.228 418.805 436.228C418.223 436.228 417.691 436.013 417.209 435.582C416.753 435.126 416.525 434.581 416.525 433.948C416.525 433.315 416.741 432.783 417.171 432.352C417.627 431.896 418.172 431.668 418.805 431.668ZM439.958 431.668C440.591 431.668 441.123 431.896 441.554 432.352C442.01 432.783 442.238 433.315 442.238 433.948C442.238 434.581 441.997 435.126 441.516 435.582C441.06 436.013 440.54 436.228 439.958 436.228C439.375 436.228 438.843 436.013 438.362 435.582C437.906 435.126 437.678 434.581 437.678 433.948C437.678 433.315 437.893 432.783 438.324 432.352C438.78 431.896 439.324 431.668 439.958 431.668ZM461.11 431.668C461.743 431.668 462.275 431.896 462.706 432.352C463.162 432.783 463.39 433.315 463.39 433.948C463.39 434.581 463.149 435.126 462.668 435.582C462.212 436.013 461.693 436.228 461.11 436.228C460.527 436.228 459.995 436.013 459.514 435.582C459.058 435.126 458.83 434.581 458.83 433.948C458.83 433.315 459.045 432.783 459.476 432.352C459.932 431.896 460.477 431.668 461.11 431.668ZM482.262 431.668C482.896 431.668 483.428 431.896 483.858 432.352C484.314 432.783 484.542 433.315 484.542 433.948C484.542 434.581 484.302 435.126 483.82 435.582C483.364 436.013 482.845 436.228 482.262 436.228C481.68 436.228 481.148 436.013 480.666 435.582C480.21 435.126 479.982 434.581 479.982 433.948C479.982 433.315 480.198 432.783 480.628 432.352C481.084 431.896 481.629 431.668 482.262 431.668ZM503.415 431.668C504.048 431.668 504.58 431.896 505.011 432.352C505.467 432.783 505.695 433.315 505.695 433.948C505.695 434.581 505.454 435.126 504.973 435.582C504.517 436.013 503.997 436.228 503.415 436.228C502.832 436.228 502.3 436.013 501.819 435.582C501.363 435.126 501.135 434.581 501.135 433.948C501.135 433.315 501.35 432.783 501.781 432.352C502.237 431.896 502.781 431.668 503.415 431.668ZM524.567 431.668C525.2 431.668 525.732 431.896 526.163 432.352C526.619 432.783 526.847 433.315 526.847 433.948C526.847 434.581 526.606 435.126 526.125 435.582C525.669 436.013 525.15 436.228 524.567 436.228C523.984 436.228 523.452 436.013 522.971 435.582C522.515 435.126 522.287 434.581 522.287 433.948C522.287 433.315 522.502 432.783 522.933 432.352C523.389 431.896 523.934 431.668 524.567 431.668ZM545.72 431.668C546.353 431.668 546.885 431.896 547.316 432.352C547.772 432.783 548 433.315 548 433.948C548 434.581 547.759 435.126 547.278 435.582C546.822 436.013 546.302 436.228 545.72 436.228C545.137 436.228 544.605 436.013 544.124 435.582C543.668 435.126 543.44 434.581 543.44 433.948C543.44 433.315 543.655 432.783 544.086 432.352C544.542 431.896 545.086 431.668 545.72 431.668ZM207.282 483.668C207.915 483.668 208.447 483.896 208.878 484.352C209.334 484.783 209.562 485.315 209.562 485.948C209.562 486.581 209.321 487.126 208.84 487.582C208.384 488.013 207.865 488.228 207.282 488.228C206.699 488.228 206.167 488.013 205.686 487.582C205.23 487.126 205.002 486.581 205.002 485.948C205.002 485.315 205.217 484.783 205.648 484.352C206.104 483.896 206.649 483.668 207.282 483.668ZM228.434 483.668C229.068 483.668 229.6 483.896 230.03 484.352C230.486 484.783 230.714 485.315 230.714 485.948C230.714 486.581 230.474 487.126 229.992 487.582C229.536 488.013 229.017 488.228 228.434 488.228C227.852 488.228 227.32 488.013 226.838 487.582C226.382 487.126 226.154 486.581 226.154 485.948C226.154 485.315 226.37 484.783 226.8 484.352C227.256 483.896 227.801 483.668 228.434 483.668ZM249.587 483.668C250.22 483.668 250.752 483.896 251.183 484.352C251.639 484.783 251.867 485.315 251.867 485.948C251.867 486.581 251.626 487.126 251.145 487.582C250.689 488.013 250.169 488.228 249.587 488.228C249.004 488.228 248.472 488.013 247.991 487.582C247.535 487.126 247.307 486.581 247.307 485.948C247.307 485.315 247.522 484.783 247.953 484.352C248.409 483.896 248.953 483.668 249.587 483.668ZM270.739 483.668C271.372 483.668 271.904 483.896 272.335 484.352C272.791 484.783 273.019 485.315 273.019 485.948C273.019 486.581 272.778 487.126 272.297 487.582C271.841 488.013 271.322 488.228 270.739 488.228C270.156 488.228 269.624 488.013 269.143 487.582C268.687 487.126 268.459 486.581 268.459 485.948C268.459 485.315 268.674 484.783 269.105 484.352C269.561 483.896 270.106 483.668 270.739 483.668ZM291.891 483.668C292.525 483.668 293.057 483.896 293.487 484.352C293.943 484.783 294.171 485.315 294.171 485.948C294.171 486.581 293.931 487.126 293.449 487.582C292.993 488.013 292.474 488.228 291.891 488.228C291.309 488.228 290.777 488.013 290.295 487.582C289.839 487.126 289.611 486.581 289.611 485.948C289.611 485.315 289.827 484.783 290.257 484.352C290.713 483.896 291.258 483.668 291.891 483.668ZM313.044 483.668C313.677 483.668 314.209 483.896 314.64 484.352C315.096 484.783 315.324 485.315 315.324 485.948C315.324 486.581 315.083 487.126 314.602 487.582C314.146 488.013 313.626 488.228 313.044 488.228C312.461 488.228 311.929 488.013 311.448 487.582C310.992 487.126 310.764 486.581 310.764 485.948C310.764 485.315 310.979 484.783 311.41 484.352C311.866 483.896 312.41 483.668 313.044 483.668ZM334.196 483.668C334.829 483.668 335.361 483.896 335.792 484.352C336.248 484.783 336.476 485.315 336.476 485.948C336.476 486.581 336.235 487.126 335.754 487.582C335.298 488.013 334.779 488.228 334.196 488.228C333.613 488.228 333.081 488.013 332.6 487.582C332.144 487.126 331.916 486.581 331.916 485.948C331.916 485.315 332.131 484.783 332.562 484.352C333.018 483.896 333.563 483.668 334.196 483.668ZM355.348 483.668C355.982 483.668 356.514 483.896 356.944 484.352C357.4 484.783 357.628 485.315 357.628 485.948C357.628 486.581 357.388 487.126 356.906 487.582C356.45 488.013 355.931 488.228 355.348 488.228C354.766 488.228 354.234 488.013 353.752 487.582C353.296 487.126 353.068 486.581 353.068 485.948C353.068 485.315 353.284 484.783 353.714 484.352C354.17 483.896 354.715 483.668 355.348 483.668ZM376.501 483.668C377.134 483.668 377.666 483.896 378.097 484.352C378.553 484.783 378.781 485.315 378.781 485.948C378.781 486.581 378.54 487.126 378.059 487.582C377.603 488.013 377.083 488.228 376.501 488.228C375.918 488.228 375.386 488.013 374.905 487.582C374.449 487.126 374.221 486.581 374.221 485.948C374.221 485.315 374.436 484.783 374.867 484.352C375.323 483.896 375.867 483.668 376.501 483.668ZM397.653 483.668C398.286 483.668 398.818 483.896 399.249 484.352C399.705 484.783 399.933 485.315 399.933 485.948C399.933 486.581 399.692 487.126 399.211 487.582C398.755 488.013 398.236 488.228 397.653 488.228C397.07 488.228 396.538 488.013 396.057 487.582C395.601 487.126 395.373 486.581 395.373 485.948C395.373 485.315 395.588 484.783 396.019 484.352C396.475 483.896 397.02 483.668 397.653 483.668ZM418.805 483.668C419.439 483.668 419.971 483.896 420.401 484.352C420.857 484.783 421.085 485.315 421.085 485.948C421.085 486.581 420.845 487.126 420.363 487.582C419.907 488.013 419.388 488.228 418.805 488.228C418.223 488.228 417.691 488.013 417.209 487.582C416.753 487.126 416.525 486.581 416.525 485.948C416.525 485.315 416.741 484.783 417.171 484.352C417.627 483.896 418.172 483.668 418.805 483.668ZM439.958 483.668C440.591 483.668 441.123 483.896 441.554 484.352C442.01 484.783 442.238 485.315 442.238 485.948C442.238 486.581 441.997 487.126 441.516 487.582C441.06 488.013 440.54 488.228 439.958 488.228C439.375 488.228 438.843 488.013 438.362 487.582C437.906 487.126 437.678 486.581 437.678 485.948C437.678 485.315 437.893 484.783 438.324 484.352C438.78 483.896 439.324 483.668 439.958 483.668ZM461.11 483.668C461.743 483.668 462.275 483.896 462.706 484.352C463.162 484.783 463.39 485.315 463.39 485.948C463.39 486.581 463.149 487.126 462.668 487.582C462.212 488.013 461.693 488.228 461.11 488.228C460.527 488.228 459.995 488.013 459.514 487.582C459.058 487.126 458.83 486.581 458.83 485.948C458.83 485.315 459.045 484.783 459.476 484.352C459.932 483.896 460.477 483.668 461.11 483.668ZM482.262 483.668C482.896 483.668 483.428 483.896 483.858 484.352C484.314 484.783 484.542 485.315 484.542 485.948C484.542 486.581 484.302 487.126 483.82 487.582C483.364 488.013 482.845 488.228 482.262 488.228C481.68 488.228 481.148 488.013 480.666 487.582C480.21 487.126 479.982 486.581 479.982 485.948C479.982 485.315 480.198 484.783 480.628 484.352C481.084 483.896 481.629 483.668 482.262 483.668ZM503.415 483.668C504.048 483.668 504.58 483.896 505.011 484.352C505.467 484.783 505.695 485.315 505.695 485.948C505.695 486.581 505.454 487.126 504.973 487.582C504.517 488.013 503.997 488.228 503.415 488.228C502.832 488.228 502.3 488.013 501.819 487.582C501.363 487.126 501.135 486.581 501.135 485.948C501.135 485.315 501.35 484.783 501.781 484.352C502.237 483.896 502.781 483.668 503.415 483.668ZM524.567 483.668C525.2 483.668 525.732 483.896 526.163 484.352C526.619 484.783 526.847 485.315 526.847 485.948C526.847 486.581 526.606 487.126 526.125 487.582C525.669 488.013 525.15 488.228 524.567 488.228C523.984 488.228 523.452 488.013 522.971 487.582C522.515 487.126 522.287 486.581 522.287 485.948C522.287 485.315 522.502 484.783 522.933 484.352C523.389 483.896 523.934 483.668 524.567 483.668ZM545.72 483.668C546.353 483.668 546.885 483.896 547.316 484.352C547.772 484.783 548 485.315 548 485.948C548 486.581 547.759 487.126 547.278 487.582C546.822 488.013 546.302 488.228 545.72 488.228C545.137 488.228 544.605 488.013 544.124 487.582C543.668 487.126 543.44 486.581 543.44 485.948C543.44 485.315 543.655 484.783 544.086 484.352C544.542 483.896 545.086 483.668 545.72 483.668ZM207.282 535.668C207.915 535.668 208.447 535.896 208.878 536.352C209.334 536.783 209.562 537.315 209.562 537.948C209.562 538.581 209.321 539.126 208.84 539.582C208.384 540.013 207.865 540.228 207.282 540.228C206.699 540.228 206.167 540.013 205.686 539.582C205.23 539.126 205.002 538.581 205.002 537.948C205.002 537.315 205.217 536.783 205.648 536.352C206.104 535.896 206.649 535.668 207.282 535.668ZM228.434 535.668C229.068 535.668 229.6 535.896 230.03 536.352C230.486 536.783 230.714 537.315 230.714 537.948C230.714 538.581 230.474 539.126 229.992 539.582C229.536 540.013 229.017 540.228 228.434 540.228C227.852 540.228 227.32 540.013 226.838 539.582C226.382 539.126 226.154 538.581 226.154 537.948C226.154 537.315 226.37 536.783 226.8 536.352C227.256 535.896 227.801 535.668 228.434 535.668ZM249.587 535.668C250.22 535.668 250.752 535.896 251.183 536.352C251.639 536.783 251.867 537.315 251.867 537.948C251.867 538.581 251.626 539.126 251.145 539.582C250.689 540.013 250.169 540.228 249.587 540.228C249.004 540.228 248.472 540.013 247.991 539.582C247.535 539.126 247.307 538.581 247.307 537.948C247.307 537.315 247.522 536.783 247.953 536.352C248.409 535.896 248.953 535.668 249.587 535.668ZM270.739 535.668C271.372 535.668 271.904 535.896 272.335 536.352C272.791 536.783 273.019 537.315 273.019 537.948C273.019 538.581 272.778 539.126 272.297 539.582C271.841 540.013 271.322 540.228 270.739 540.228C270.156 540.228 269.624 540.013 269.143 539.582C268.687 539.126 268.459 538.581 268.459 537.948C268.459 537.315 268.674 536.783 269.105 536.352C269.561 535.896 270.106 535.668 270.739 535.668ZM291.891 535.668C292.525 535.668 293.057 535.896 293.487 536.352C293.943 536.783 294.171 537.315 294.171 537.948C294.171 538.581 293.931 539.126 293.449 539.582C292.993 540.013 292.474 540.228 291.891 540.228C291.309 540.228 290.777 540.013 290.295 539.582C289.839 539.126 289.611 538.581 289.611 537.948C289.611 537.315 289.827 536.783 290.257 536.352C290.713 535.896 291.258 535.668 291.891 535.668ZM313.044 535.668C313.677 535.668 314.209 535.896 314.64 536.352C315.096 536.783 315.324 537.315 315.324 537.948C315.324 538.581 315.083 539.126 314.602 539.582C314.146 540.013 313.626 540.228 313.044 540.228C312.461 540.228 311.929 540.013 311.448 539.582C310.992 539.126 310.764 538.581 310.764 537.948C310.764 537.315 310.979 536.783 311.41 536.352C311.866 535.896 312.41 535.668 313.044 535.668ZM334.196 535.668C334.829 535.668 335.361 535.896 335.792 536.352C336.248 536.783 336.476 537.315 336.476 537.948C336.476 538.581 336.235 539.126 335.754 539.582C335.298 540.013 334.779 540.228 334.196 540.228C333.613 540.228 333.081 540.013 332.6 539.582C332.144 539.126 331.916 538.581 331.916 537.948C331.916 537.315 332.131 536.783 332.562 536.352C333.018 535.896 333.563 535.668 334.196 535.668ZM355.348 535.668C355.982 535.668 356.514 535.896 356.944 536.352C357.4 536.783 357.628 537.315 357.628 537.948C357.628 538.581 357.388 539.126 356.906 539.582C356.45 540.013 355.931 540.228 355.348 540.228C354.766 540.228 354.234 540.013 353.752 539.582C353.296 539.126 353.068 538.581 353.068 537.948C353.068 537.315 353.284 536.783 353.714 536.352C354.17 535.896 354.715 535.668 355.348 535.668ZM376.501 535.668C377.134 535.668 377.666 535.896 378.097 536.352C378.553 536.783 378.781 537.315 378.781 537.948C378.781 538.581 378.54 539.126 378.059 539.582C377.603 540.013 377.083 540.228 376.501 540.228C375.918 540.228 375.386 540.013 374.905 539.582C374.449 539.126 374.221 538.581 374.221 537.948C374.221 537.315 374.436 536.783 374.867 536.352C375.323 535.896 375.867 535.668 376.501 535.668ZM397.653 535.668C398.286 535.668 398.818 535.896 399.249 536.352C399.705 536.783 399.933 537.315 399.933 537.948C399.933 538.581 399.692 539.126 399.211 539.582C398.755 540.013 398.236 540.228 397.653 540.228C397.07 540.228 396.538 540.013 396.057 539.582C395.601 539.126 395.373 538.581 395.373 537.948C395.373 537.315 395.588 536.783 396.019 536.352C396.475 535.896 397.02 535.668 397.653 535.668ZM418.805 535.668C419.439 535.668 419.971 535.896 420.401 536.352C420.857 536.783 421.085 537.315 421.085 537.948C421.085 538.581 420.845 539.126 420.363 539.582C419.907 540.013 419.388 540.228 418.805 540.228C418.223 540.228 417.691 540.013 417.209 539.582C416.753 539.126 416.525 538.581 416.525 537.948C416.525 537.315 416.741 536.783 417.171 536.352C417.627 535.896 418.172 535.668 418.805 535.668ZM439.958 535.668C440.591 535.668 441.123 535.896 441.554 536.352C442.01 536.783 442.238 537.315 442.238 537.948C442.238 538.581 441.997 539.126 441.516 539.582C441.06 540.013 440.54 540.228 439.958 540.228C439.375 540.228 438.843 540.013 438.362 539.582C437.906 539.126 437.678 538.581 437.678 537.948C437.678 537.315 437.893 536.783 438.324 536.352C438.78 535.896 439.324 535.668 439.958 535.668ZM461.11 535.668C461.743 535.668 462.275 535.896 462.706 536.352C463.162 536.783 463.39 537.315 463.39 537.948C463.39 538.581 463.149 539.126 462.668 539.582C462.212 540.013 461.693 540.228 461.11 540.228C460.527 540.228 459.995 540.013 459.514 539.582C459.058 539.126 458.83 538.581 458.83 537.948C458.83 537.315 459.045 536.783 459.476 536.352C459.932 535.896 460.477 535.668 461.11 535.668ZM482.262 535.668C482.896 535.668 483.428 535.896 483.858 536.352C484.314 536.783 484.542 537.315 484.542 537.948C484.542 538.581 484.302 539.126 483.82 539.582C483.364 540.013 482.845 540.228 482.262 540.228C481.68 540.228 481.148 540.013 480.666 539.582C480.21 539.126 479.982 538.581 479.982 537.948C479.982 537.315 480.198 536.783 480.628 536.352C481.084 535.896 481.629 535.668 482.262 535.668ZM503.415 535.668C504.048 535.668 504.58 535.896 505.011 536.352C505.467 536.783 505.695 537.315 505.695 537.948C505.695 538.581 505.454 539.126 504.973 539.582C504.517 540.013 503.997 540.228 503.415 540.228C502.832 540.228 502.3 540.013 501.819 539.582C501.363 539.126 501.135 538.581 501.135 537.948C501.135 537.315 501.35 536.783 501.781 536.352C502.237 535.896 502.781 535.668 503.415 535.668ZM524.567 535.668C525.2 535.668 525.732 535.896 526.163 536.352C526.619 536.783 526.847 537.315 526.847 537.948C526.847 538.581 526.606 539.126 526.125 539.582C525.669 540.013 525.15 540.228 524.567 540.228C523.984 540.228 523.452 540.013 522.971 539.582C522.515 539.126 522.287 538.581 522.287 537.948C522.287 537.315 522.502 536.783 522.933 536.352C523.389 535.896 523.934 535.668 524.567 535.668ZM545.72 535.668C546.353 535.668 546.885 535.896 547.316 536.352C547.772 536.783 548 537.315 548 537.948C548 538.581 547.759 539.126 547.278 539.582C546.822 540.013 546.302 540.228 545.72 540.228C545.137 540.228 544.605 540.013 544.124 539.582C543.668 539.126 543.44 538.581 543.44 537.948C543.44 537.315 543.655 536.783 544.086 536.352C544.542 535.896 545.086 535.668 545.72 535.668Z" fill="#698191"/>
</svg>
