<svg width="734" height="624" viewBox="0 0 734 624" fill="none" xmlns="http://www.w3.org/2000/svg">
<path d="M588 363L-231 725.865L-231 0.135371L588 363Z" fill="#698191"/>
<path d="M75.282 222.668C75.9153 222.668 76.4473 222.896 76.878 223.352C77.334 223.783 77.562 224.315 77.562 224.948C77.562 225.581 77.3213 226.126 76.84 226.582C76.384 227.013 75.8647 227.228 75.282 227.228C74.6993 227.228 74.1673 227.013 73.686 226.582C73.23 226.126 73.002 225.581 73.002 224.948C73.002 224.315 73.2173 223.783 73.648 223.352C74.104 222.896 74.6487 222.668 75.282 222.668ZM96.4343 222.668C97.0677 222.668 97.5997 222.896 98.0303 223.352C98.4863 223.783 98.7143 224.315 98.7143 224.948C98.7143 225.581 98.4737 226.126 97.9923 226.582C97.5363 227.013 97.017 227.228 96.4343 227.228C95.8517 227.228 95.3197 227.013 94.8383 226.582C94.3823 226.126 94.1543 225.581 94.1543 224.948C94.1543 224.315 94.3697 223.783 94.8003 223.352C95.2563 222.896 95.801 222.668 96.4343 222.668ZM117.587 222.668C118.22 222.668 118.752 222.896 119.183 223.352C119.639 223.783 119.867 224.315 119.867 224.948C119.867 225.581 119.626 226.126 119.145 226.582C118.689 227.013 118.169 227.228 117.587 227.228C117.004 227.228 116.472 227.013 115.991 226.582C115.535 226.126 115.307 225.581 115.307 224.948C115.307 224.315 115.522 223.783 115.953 223.352C116.409 222.896 116.953 222.668 117.587 222.668ZM138.739 222.668C139.372 222.668 139.904 222.896 140.335 223.352C140.791 223.783 141.019 224.315 141.019 224.948C141.019 225.581 140.778 226.126 140.297 226.582C139.841 227.013 139.322 227.228 138.739 227.228C138.156 227.228 137.624 227.013 137.143 226.582C136.687 226.126 136.459 225.581 136.459 224.948C136.459 224.315 136.674 223.783 137.105 223.352C137.561 222.896 138.106 222.668 138.739 222.668ZM159.891 222.668C160.525 222.668 161.057 222.896 161.487 223.352C161.943 223.783 162.171 224.315 162.171 224.948C162.171 225.581 161.931 226.126 161.449 226.582C160.993 227.013 160.474 227.228 159.891 227.228C159.309 227.228 158.777 227.013 158.295 226.582C157.839 226.126 157.611 225.581 157.611 224.948C157.611 224.315 157.827 223.783 158.257 223.352C158.713 222.896 159.258 222.668 159.891 222.668ZM181.044 222.668C181.677 222.668 182.209 222.896 182.64 223.352C183.096 223.783 183.324 224.315 183.324 224.948C183.324 225.581 183.083 226.126 182.602 226.582C182.146 227.013 181.626 227.228 181.044 227.228C180.461 227.228 179.929 227.013 179.448 226.582C178.992 226.126 178.764 225.581 178.764 224.948C178.764 224.315 178.979 223.783 179.41 223.352C179.866 222.896 180.41 222.668 181.044 222.668ZM202.196 222.668C202.829 222.668 203.361 222.896 203.792 223.352C204.248 223.783 204.476 224.315 204.476 224.948C204.476 225.581 204.235 226.126 203.754 226.582C203.298 227.013 202.779 227.228 202.196 227.228C201.613 227.228 201.081 227.013 200.6 226.582C200.144 226.126 199.916 225.581 199.916 224.948C199.916 224.315 200.131 223.783 200.562 223.352C201.018 222.896 201.563 222.668 202.196 222.668ZM223.348 222.668C223.982 222.668 224.514 222.896 224.944 223.352C225.4 223.783 225.628 224.315 225.628 224.948C225.628 225.581 225.388 226.126 224.906 226.582C224.45 227.013 223.931 227.228 223.348 227.228C222.766 227.228 222.234 227.013 221.752 226.582C221.296 226.126 221.068 225.581 221.068 224.948C221.068 224.315 221.284 223.783 221.714 223.352C222.17 222.896 222.715 222.668 223.348 222.668ZM244.501 222.668C245.134 222.668 245.666 222.896 246.097 223.352C246.553 223.783 246.781 224.315 246.781 224.948C246.781 225.581 246.54 226.126 246.059 226.582C245.603 227.013 245.083 227.228 244.501 227.228C243.918 227.228 243.386 227.013 242.905 226.582C242.449 226.126 242.221 225.581 242.221 224.948C242.221 224.315 242.436 223.783 242.867 223.352C243.323 222.896 243.867 222.668 244.501 222.668ZM265.653 222.668C266.286 222.668 266.818 222.896 267.249 223.352C267.705 223.783 267.933 224.315 267.933 224.948C267.933 225.581 267.692 226.126 267.211 226.582C266.755 227.013 266.236 227.228 265.653 227.228C265.07 227.228 264.538 227.013 264.057 226.582C263.601 226.126 263.373 225.581 263.373 224.948C263.373 224.315 263.588 223.783 264.019 223.352C264.475 222.896 265.02 222.668 265.653 222.668ZM286.805 222.668C287.439 222.668 287.971 222.896 288.401 223.352C288.857 223.783 289.085 224.315 289.085 224.948C289.085 225.581 288.845 226.126 288.363 226.582C287.907 227.013 287.388 227.228 286.805 227.228C286.223 227.228 285.691 227.013 285.209 226.582C284.753 226.126 284.525 225.581 284.525 224.948C284.525 224.315 284.741 223.783 285.171 223.352C285.627 222.896 286.172 222.668 286.805 222.668ZM307.958 222.668C308.591 222.668 309.123 222.896 309.554 223.352C310.01 223.783 310.238 224.315 310.238 224.948C310.238 225.581 309.997 226.126 309.516 226.582C309.06 227.013 308.54 227.228 307.958 227.228C307.375 227.228 306.843 227.013 306.362 226.582C305.906 226.126 305.678 225.581 305.678 224.948C305.678 224.315 305.893 223.783 306.324 223.352C306.78 222.896 307.324 222.668 307.958 222.668ZM329.11 222.668C329.743 222.668 330.275 222.896 330.706 223.352C331.162 223.783 331.39 224.315 331.39 224.948C331.39 225.581 331.149 226.126 330.668 226.582C330.212 227.013 329.693 227.228 329.11 227.228C328.527 227.228 327.995 227.013 327.514 226.582C327.058 226.126 326.83 225.581 326.83 224.948C326.83 224.315 327.045 223.783 327.476 223.352C327.932 222.896 328.477 222.668 329.11 222.668ZM350.262 222.668C350.896 222.668 351.428 222.896 351.858 223.352C352.314 223.783 352.542 224.315 352.542 224.948C352.542 225.581 352.302 226.126 351.82 226.582C351.364 227.013 350.845 227.228 350.262 227.228C349.68 227.228 349.148 227.013 348.666 226.582C348.21 226.126 347.982 225.581 347.982 224.948C347.982 224.315 348.198 223.783 348.628 223.352C349.084 222.896 349.629 222.668 350.262 222.668ZM371.415 222.668C372.048 222.668 372.58 222.896 373.011 223.352C373.467 223.783 373.695 224.315 373.695 224.948C373.695 225.581 373.454 226.126 372.973 226.582C372.517 227.013 371.997 227.228 371.415 227.228C370.832 227.228 370.3 227.013 369.819 226.582C369.363 226.126 369.135 225.581 369.135 224.948C369.135 224.315 369.35 223.783 369.781 223.352C370.237 222.896 370.781 222.668 371.415 222.668ZM392.567 222.668C393.2 222.668 393.732 222.896 394.163 223.352C394.619 223.783 394.847 224.315 394.847 224.948C394.847 225.581 394.606 226.126 394.125 226.582C393.669 227.013 393.15 227.228 392.567 227.228C391.984 227.228 391.452 227.013 390.971 226.582C390.515 226.126 390.287 225.581 390.287 224.948C390.287 224.315 390.502 223.783 390.933 223.352C391.389 222.896 391.934 222.668 392.567 222.668ZM413.72 222.668C414.353 222.668 414.885 222.896 415.316 223.352C415.772 223.783 416 224.315 416 224.948C416 225.581 415.759 226.126 415.278 226.582C414.822 227.013 414.302 227.228 413.72 227.228C413.137 227.228 412.605 227.013 412.124 226.582C411.668 226.126 411.44 225.581 411.44 224.948C411.44 224.315 411.655 223.783 412.086 223.352C412.542 222.896 413.086 222.668 413.72 222.668ZM434.872 222.668C435.505 222.668 436.037 222.896 436.468 223.352C436.924 223.783 437.152 224.315 437.152 224.948C437.152 225.581 436.911 226.126 436.43 226.582C435.974 227.013 435.455 227.228 434.872 227.228C434.289 227.228 433.757 227.013 433.276 226.582C432.82 226.126 432.592 225.581 432.592 224.948C432.592 224.315 432.807 223.783 433.238 223.352C433.694 222.896 434.239 222.668 434.872 222.668ZM456.024 222.668C456.658 222.668 457.19 222.896 457.62 223.352C458.076 223.783 458.304 224.315 458.304 224.948C458.304 225.581 458.064 226.126 457.582 226.582C457.126 227.013 456.607 227.228 456.024 227.228C455.442 227.228 454.91 227.013 454.428 226.582C453.972 226.126 453.744 225.581 453.744 224.948C453.744 224.315 453.96 223.783 454.39 223.352C454.846 222.896 455.391 222.668 456.024 222.668ZM477.177 222.668C477.81 222.668 478.342 222.896 478.773 223.352C479.229 223.783 479.457 224.315 479.457 224.948C479.457 225.581 479.216 226.126 478.735 226.582C478.279 227.013 477.759 227.228 477.177 227.228C476.594 227.228 476.062 227.013 475.581 226.582C475.125 226.126 474.897 225.581 474.897 224.948C474.897 224.315 475.112 223.783 475.543 223.352C475.999 222.896 476.543 222.668 477.177 222.668ZM498.329 222.668C498.962 222.668 499.494 222.896 499.925 223.352C500.381 223.783 500.609 224.315 500.609 224.948C500.609 225.581 500.368 226.126 499.887 226.582C499.431 227.013 498.912 227.228 498.329 227.228C497.746 227.228 497.214 227.013 496.733 226.582C496.277 226.126 496.049 225.581 496.049 224.948C496.049 224.315 496.264 223.783 496.695 223.352C497.151 222.896 497.696 222.668 498.329 222.668ZM519.481 222.668C520.115 222.668 520.647 222.896 521.077 223.352C521.533 223.783 521.761 224.315 521.761 224.948C521.761 225.581 521.521 226.126 521.039 226.582C520.583 227.013 520.064 227.228 519.481 227.228C518.899 227.228 518.367 227.013 517.885 226.582C517.429 226.126 517.201 225.581 517.201 224.948C517.201 224.315 517.417 223.783 517.847 223.352C518.303 222.896 518.848 222.668 519.481 222.668ZM540.634 222.668C541.267 222.668 541.799 222.896 542.23 223.352C542.686 223.783 542.914 224.315 542.914 224.948C542.914 225.581 542.673 226.126 542.192 226.582C541.736 227.013 541.216 227.228 540.634 227.228C540.051 227.228 539.519 227.013 539.038 226.582C538.582 226.126 538.354 225.581 538.354 224.948C538.354 224.315 538.569 223.783 539 223.352C539.456 222.896 540 222.668 540.634 222.668ZM561.786 222.668C562.419 222.668 562.951 222.896 563.382 223.352C563.838 223.783 564.066 224.315 564.066 224.948C564.066 225.581 563.825 226.126 563.344 226.582C562.888 227.013 562.369 227.228 561.786 227.228C561.203 227.228 560.671 227.013 560.19 226.582C559.734 226.126 559.506 225.581 559.506 224.948C559.506 224.315 559.721 223.783 560.152 223.352C560.608 222.896 561.153 222.668 561.786 222.668ZM582.938 222.668C583.572 222.668 584.104 222.896 584.534 223.352C584.99 223.783 585.218 224.315 585.218 224.948C585.218 225.581 584.978 226.126 584.496 226.582C584.04 227.013 583.521 227.228 582.938 227.228C582.356 227.228 581.824 227.013 581.342 226.582C580.886 226.126 580.658 225.581 580.658 224.948C580.658 224.315 580.874 223.783 581.304 223.352C581.76 222.896 582.305 222.668 582.938 222.668ZM604.091 222.668C604.724 222.668 605.256 222.896 605.687 223.352C606.143 223.783 606.371 224.315 606.371 224.948C606.371 225.581 606.13 226.126 605.649 226.582C605.193 227.013 604.673 227.228 604.091 227.228C603.508 227.228 602.976 227.013 602.495 226.582C602.039 226.126 601.811 225.581 601.811 224.948C601.811 224.315 602.026 223.783 602.457 223.352C602.913 222.896 603.457 222.668 604.091 222.668ZM625.243 222.668C625.876 222.668 626.408 222.896 626.839 223.352C627.295 223.783 627.523 224.315 627.523 224.948C627.523 225.581 627.282 226.126 626.801 226.582C626.345 227.013 625.826 227.228 625.243 227.228C624.66 227.228 624.128 227.013 623.647 226.582C623.191 226.126 622.963 225.581 622.963 224.948C622.963 224.315 623.178 223.783 623.609 223.352C624.065 222.896 624.61 222.668 625.243 222.668ZM646.395 222.668C647.029 222.668 647.561 222.896 647.991 223.352C648.447 223.783 648.675 224.315 648.675 224.948C648.675 225.581 648.435 226.126 647.953 226.582C647.497 227.013 646.978 227.228 646.395 227.228C645.813 227.228 645.281 227.013 644.799 226.582C644.343 226.126 644.115 225.581 644.115 224.948C644.115 224.315 644.331 223.783 644.761 223.352C645.217 222.896 645.762 222.668 646.395 222.668ZM667.548 222.668C668.181 222.668 668.713 222.896 669.144 223.352C669.6 223.783 669.828 224.315 669.828 224.948C669.828 225.581 669.587 226.126 669.106 226.582C668.65 227.013 668.13 227.228 667.548 227.228C666.965 227.228 666.433 227.013 665.952 226.582C665.496 226.126 665.268 225.581 665.268 224.948C665.268 224.315 665.483 223.783 665.914 223.352C666.37 222.896 666.914 222.668 667.548 222.668ZM688.7 222.668C689.333 222.668 689.865 222.896 690.296 223.352C690.752 223.783 690.98 224.315 690.98 224.948C690.98 225.581 690.739 226.126 690.258 226.582C689.802 227.013 689.283 227.228 688.7 227.228C688.117 227.228 687.585 227.013 687.104 226.582C686.648 226.126 686.42 225.581 686.42 224.948C686.42 224.315 686.635 223.783 687.066 223.352C687.522 222.896 688.067 222.668 688.7 222.668ZM709.852 222.668C710.486 222.668 711.018 222.896 711.448 223.352C711.904 223.783 712.132 224.315 712.132 224.948C712.132 225.581 711.892 226.126 711.41 226.582C710.954 227.013 710.435 227.228 709.852 227.228C709.27 227.228 708.738 227.013 708.256 226.582C707.8 226.126 707.572 225.581 707.572 224.948C707.572 224.315 707.788 223.783 708.218 223.352C708.674 222.896 709.219 222.668 709.852 222.668ZM731.005 222.668C731.638 222.668 732.17 222.896 732.601 223.352C733.057 223.783 733.285 224.315 733.285 224.948C733.285 225.581 733.044 226.126 732.563 226.582C732.107 227.013 731.587 227.228 731.005 227.228C730.422 227.228 729.89 227.013 729.409 226.582C728.953 226.126 728.725 225.581 728.725 224.948C728.725 224.315 728.94 223.783 729.371 223.352C729.827 222.896 730.371 222.668 731.005 222.668ZM75.282 274.668C75.9153 274.668 76.4473 274.896 76.878 275.352C77.334 275.783 77.562 276.315 77.562 276.948C77.562 277.581 77.3213 278.126 76.84 278.582C76.384 279.013 75.8647 279.228 75.282 279.228C74.6993 279.228 74.1673 279.013 73.686 278.582C73.23 278.126 73.002 277.581 73.002 276.948C73.002 276.315 73.2173 275.783 73.648 275.352C74.104 274.896 74.6487 274.668 75.282 274.668ZM96.4343 274.668C97.0677 274.668 97.5997 274.896 98.0303 275.352C98.4863 275.783 98.7143 276.315 98.7143 276.948C98.7143 277.581 98.4737 278.126 97.9923 278.582C97.5363 279.013 97.017 279.228 96.4343 279.228C95.8517 279.228 95.3197 279.013 94.8383 278.582C94.3823 278.126 94.1543 277.581 94.1543 276.948C94.1543 276.315 94.3697 275.783 94.8003 275.352C95.2563 274.896 95.801 274.668 96.4343 274.668ZM117.587 274.668C118.22 274.668 118.752 274.896 119.183 275.352C119.639 275.783 119.867 276.315 119.867 276.948C119.867 277.581 119.626 278.126 119.145 278.582C118.689 279.013 118.169 279.228 117.587 279.228C117.004 279.228 116.472 279.013 115.991 278.582C115.535 278.126 115.307 277.581 115.307 276.948C115.307 276.315 115.522 275.783 115.953 275.352C116.409 274.896 116.953 274.668 117.587 274.668ZM138.739 274.668C139.372 274.668 139.904 274.896 140.335 275.352C140.791 275.783 141.019 276.315 141.019 276.948C141.019 277.581 140.778 278.126 140.297 278.582C139.841 279.013 139.322 279.228 138.739 279.228C138.156 279.228 137.624 279.013 137.143 278.582C136.687 278.126 136.459 277.581 136.459 276.948C136.459 276.315 136.674 275.783 137.105 275.352C137.561 274.896 138.106 274.668 138.739 274.668ZM159.891 274.668C160.525 274.668 161.057 274.896 161.487 275.352C161.943 275.783 162.171 276.315 162.171 276.948C162.171 277.581 161.931 278.126 161.449 278.582C160.993 279.013 160.474 279.228 159.891 279.228C159.309 279.228 158.777 279.013 158.295 278.582C157.839 278.126 157.611 277.581 157.611 276.948C157.611 276.315 157.827 275.783 158.257 275.352C158.713 274.896 159.258 274.668 159.891 274.668ZM181.044 274.668C181.677 274.668 182.209 274.896 182.64 275.352C183.096 275.783 183.324 276.315 183.324 276.948C183.324 277.581 183.083 278.126 182.602 278.582C182.146 279.013 181.626 279.228 181.044 279.228C180.461 279.228 179.929 279.013 179.448 278.582C178.992 278.126 178.764 277.581 178.764 276.948C178.764 276.315 178.979 275.783 179.41 275.352C179.866 274.896 180.41 274.668 181.044 274.668ZM202.196 274.668C202.829 274.668 203.361 274.896 203.792 275.352C204.248 275.783 204.476 276.315 204.476 276.948C204.476 277.581 204.235 278.126 203.754 278.582C203.298 279.013 202.779 279.228 202.196 279.228C201.613 279.228 201.081 279.013 200.6 278.582C200.144 278.126 199.916 277.581 199.916 276.948C199.916 276.315 200.131 275.783 200.562 275.352C201.018 274.896 201.563 274.668 202.196 274.668ZM223.348 274.668C223.982 274.668 224.514 274.896 224.944 275.352C225.4 275.783 225.628 276.315 225.628 276.948C225.628 277.581 225.388 278.126 224.906 278.582C224.45 279.013 223.931 279.228 223.348 279.228C222.766 279.228 222.234 279.013 221.752 278.582C221.296 278.126 221.068 277.581 221.068 276.948C221.068 276.315 221.284 275.783 221.714 275.352C222.17 274.896 222.715 274.668 223.348 274.668ZM244.501 274.668C245.134 274.668 245.666 274.896 246.097 275.352C246.553 275.783 246.781 276.315 246.781 276.948C246.781 277.581 246.54 278.126 246.059 278.582C245.603 279.013 245.083 279.228 244.501 279.228C243.918 279.228 243.386 279.013 242.905 278.582C242.449 278.126 242.221 277.581 242.221 276.948C242.221 276.315 242.436 275.783 242.867 275.352C243.323 274.896 243.867 274.668 244.501 274.668ZM265.653 274.668C266.286 274.668 266.818 274.896 267.249 275.352C267.705 275.783 267.933 276.315 267.933 276.948C267.933 277.581 267.692 278.126 267.211 278.582C266.755 279.013 266.236 279.228 265.653 279.228C265.07 279.228 264.538 279.013 264.057 278.582C263.601 278.126 263.373 277.581 263.373 276.948C263.373 276.315 263.588 275.783 264.019 275.352C264.475 274.896 265.02 274.668 265.653 274.668ZM286.805 274.668C287.439 274.668 287.971 274.896 288.401 275.352C288.857 275.783 289.085 276.315 289.085 276.948C289.085 277.581 288.845 278.126 288.363 278.582C287.907 279.013 287.388 279.228 286.805 279.228C286.223 279.228 285.691 279.013 285.209 278.582C284.753 278.126 284.525 277.581 284.525 276.948C284.525 276.315 284.741 275.783 285.171 275.352C285.627 274.896 286.172 274.668 286.805 274.668ZM307.958 274.668C308.591 274.668 309.123 274.896 309.554 275.352C310.01 275.783 310.238 276.315 310.238 276.948C310.238 277.581 309.997 278.126 309.516 278.582C309.06 279.013 308.54 279.228 307.958 279.228C307.375 279.228 306.843 279.013 306.362 278.582C305.906 278.126 305.678 277.581 305.678 276.948C305.678 276.315 305.893 275.783 306.324 275.352C306.78 274.896 307.324 274.668 307.958 274.668ZM329.11 274.668C329.743 274.668 330.275 274.896 330.706 275.352C331.162 275.783 331.39 276.315 331.39 276.948C331.39 277.581 331.149 278.126 330.668 278.582C330.212 279.013 329.693 279.228 329.11 279.228C328.527 279.228 327.995 279.013 327.514 278.582C327.058 278.126 326.83 277.581 326.83 276.948C326.83 276.315 327.045 275.783 327.476 275.352C327.932 274.896 328.477 274.668 329.11 274.668ZM350.262 274.668C350.896 274.668 351.428 274.896 351.858 275.352C352.314 275.783 352.542 276.315 352.542 276.948C352.542 277.581 352.302 278.126 351.82 278.582C351.364 279.013 350.845 279.228 350.262 279.228C349.68 279.228 349.148 279.013 348.666 278.582C348.21 278.126 347.982 277.581 347.982 276.948C347.982 276.315 348.198 275.783 348.628 275.352C349.084 274.896 349.629 274.668 350.262 274.668ZM371.415 274.668C372.048 274.668 372.58 274.896 373.011 275.352C373.467 275.783 373.695 276.315 373.695 276.948C373.695 277.581 373.454 278.126 372.973 278.582C372.517 279.013 371.997 279.228 371.415 279.228C370.832 279.228 370.3 279.013 369.819 278.582C369.363 278.126 369.135 277.581 369.135 276.948C369.135 276.315 369.35 275.783 369.781 275.352C370.237 274.896 370.781 274.668 371.415 274.668ZM392.567 274.668C393.2 274.668 393.732 274.896 394.163 275.352C394.619 275.783 394.847 276.315 394.847 276.948C394.847 277.581 394.606 278.126 394.125 278.582C393.669 279.013 393.15 279.228 392.567 279.228C391.984 279.228 391.452 279.013 390.971 278.582C390.515 278.126 390.287 277.581 390.287 276.948C390.287 276.315 390.502 275.783 390.933 275.352C391.389 274.896 391.934 274.668 392.567 274.668ZM413.72 274.668C414.353 274.668 414.885 274.896 415.316 275.352C415.772 275.783 416 276.315 416 276.948C416 277.581 415.759 278.126 415.278 278.582C414.822 279.013 414.302 279.228 413.72 279.228C413.137 279.228 412.605 279.013 412.124 278.582C411.668 278.126 411.44 277.581 411.44 276.948C411.44 276.315 411.655 275.783 412.086 275.352C412.542 274.896 413.086 274.668 413.72 274.668ZM434.872 274.668C435.505 274.668 436.037 274.896 436.468 275.352C436.924 275.783 437.152 276.315 437.152 276.948C437.152 277.581 436.911 278.126 436.43 278.582C435.974 279.013 435.455 279.228 434.872 279.228C434.289 279.228 433.757 279.013 433.276 278.582C432.82 278.126 432.592 277.581 432.592 276.948C432.592 276.315 432.807 275.783 433.238 275.352C433.694 274.896 434.239 274.668 434.872 274.668ZM456.024 274.668C456.658 274.668 457.19 274.896 457.62 275.352C458.076 275.783 458.304 276.315 458.304 276.948C458.304 277.581 458.064 278.126 457.582 278.582C457.126 279.013 456.607 279.228 456.024 279.228C455.442 279.228 454.91 279.013 454.428 278.582C453.972 278.126 453.744 277.581 453.744 276.948C453.744 276.315 453.96 275.783 454.39 275.352C454.846 274.896 455.391 274.668 456.024 274.668ZM477.177 274.668C477.81 274.668 478.342 274.896 478.773 275.352C479.229 275.783 479.457 276.315 479.457 276.948C479.457 277.581 479.216 278.126 478.735 278.582C478.279 279.013 477.759 279.228 477.177 279.228C476.594 279.228 476.062 279.013 475.581 278.582C475.125 278.126 474.897 277.581 474.897 276.948C474.897 276.315 475.112 275.783 475.543 275.352C475.999 274.896 476.543 274.668 477.177 274.668ZM498.329 274.668C498.962 274.668 499.494 274.896 499.925 275.352C500.381 275.783 500.609 276.315 500.609 276.948C500.609 277.581 500.368 278.126 499.887 278.582C499.431 279.013 498.912 279.228 498.329 279.228C497.746 279.228 497.214 279.013 496.733 278.582C496.277 278.126 496.049 277.581 496.049 276.948C496.049 276.315 496.264 275.783 496.695 275.352C497.151 274.896 497.696 274.668 498.329 274.668ZM519.481 274.668C520.115 274.668 520.647 274.896 521.077 275.352C521.533 275.783 521.761 276.315 521.761 276.948C521.761 277.581 521.521 278.126 521.039 278.582C520.583 279.013 520.064 279.228 519.481 279.228C518.899 279.228 518.367 279.013 517.885 278.582C517.429 278.126 517.201 277.581 517.201 276.948C517.201 276.315 517.417 275.783 517.847 275.352C518.303 274.896 518.848 274.668 519.481 274.668ZM540.634 274.668C541.267 274.668 541.799 274.896 542.23 275.352C542.686 275.783 542.914 276.315 542.914 276.948C542.914 277.581 542.673 278.126 542.192 278.582C541.736 279.013 541.216 279.228 540.634 279.228C540.051 279.228 539.519 279.013 539.038 278.582C538.582 278.126 538.354 277.581 538.354 276.948C538.354 276.315 538.569 275.783 539 275.352C539.456 274.896 540 274.668 540.634 274.668ZM561.786 274.668C562.419 274.668 562.951 274.896 563.382 275.352C563.838 275.783 564.066 276.315 564.066 276.948C564.066 277.581 563.825 278.126 563.344 278.582C562.888 279.013 562.369 279.228 561.786 279.228C561.203 279.228 560.671 279.013 560.19 278.582C559.734 278.126 559.506 277.581 559.506 276.948C559.506 276.315 559.721 275.783 560.152 275.352C560.608 274.896 561.153 274.668 561.786 274.668ZM582.938 274.668C583.572 274.668 584.104 274.896 584.534 275.352C584.99 275.783 585.218 276.315 585.218 276.948C585.218 277.581 584.978 278.126 584.496 278.582C584.04 279.013 583.521 279.228 582.938 279.228C582.356 279.228 581.824 279.013 581.342 278.582C580.886 278.126 580.658 277.581 580.658 276.948C580.658 276.315 580.874 275.783 581.304 275.352C581.76 274.896 582.305 274.668 582.938 274.668ZM604.091 274.668C604.724 274.668 605.256 274.896 605.687 275.352C606.143 275.783 606.371 276.315 606.371 276.948C606.371 277.581 606.13 278.126 605.649 278.582C605.193 279.013 604.673 279.228 604.091 279.228C603.508 279.228 602.976 279.013 602.495 278.582C602.039 278.126 601.811 277.581 601.811 276.948C601.811 276.315 602.026 275.783 602.457 275.352C602.913 274.896 603.457 274.668 604.091 274.668ZM625.243 274.668C625.876 274.668 626.408 274.896 626.839 275.352C627.295 275.783 627.523 276.315 627.523 276.948C627.523 277.581 627.282 278.126 626.801 278.582C626.345 279.013 625.826 279.228 625.243 279.228C624.66 279.228 624.128 279.013 623.647 278.582C623.191 278.126 622.963 277.581 622.963 276.948C622.963 276.315 623.178 275.783 623.609 275.352C624.065 274.896 624.61 274.668 625.243 274.668ZM646.395 274.668C647.029 274.668 647.561 274.896 647.991 275.352C648.447 275.783 648.675 276.315 648.675 276.948C648.675 277.581 648.435 278.126 647.953 278.582C647.497 279.013 646.978 279.228 646.395 279.228C645.813 279.228 645.281 279.013 644.799 278.582C644.343 278.126 644.115 277.581 644.115 276.948C644.115 276.315 644.331 275.783 644.761 275.352C645.217 274.896 645.762 274.668 646.395 274.668ZM667.548 274.668C668.181 274.668 668.713 274.896 669.144 275.352C669.6 275.783 669.828 276.315 669.828 276.948C669.828 277.581 669.587 278.126 669.106 278.582C668.65 279.013 668.13 279.228 667.548 279.228C666.965 279.228 666.433 279.013 665.952 278.582C665.496 278.126 665.268 277.581 665.268 276.948C665.268 276.315 665.483 275.783 665.914 275.352C666.37 274.896 666.914 274.668 667.548 274.668ZM688.7 274.668C689.333 274.668 689.865 274.896 690.296 275.352C690.752 275.783 690.98 276.315 690.98 276.948C690.98 277.581 690.739 278.126 690.258 278.582C689.802 279.013 689.283 279.228 688.7 279.228C688.117 279.228 687.585 279.013 687.104 278.582C686.648 278.126 686.42 277.581 686.42 276.948C686.42 276.315 686.635 275.783 687.066 275.352C687.522 274.896 688.067 274.668 688.7 274.668ZM709.852 274.668C710.486 274.668 711.018 274.896 711.448 275.352C711.904 275.783 712.132 276.315 712.132 276.948C712.132 277.581 711.892 278.126 711.41 278.582C710.954 279.013 710.435 279.228 709.852 279.228C709.27 279.228 708.738 279.013 708.256 278.582C707.8 278.126 707.572 277.581 707.572 276.948C707.572 276.315 707.788 275.783 708.218 275.352C708.674 274.896 709.219 274.668 709.852 274.668ZM731.005 274.668C731.638 274.668 732.17 274.896 732.601 275.352C733.057 275.783 733.285 276.315 733.285 276.948C733.285 277.581 733.044 278.126 732.563 278.582C732.107 279.013 731.587 279.228 731.005 279.228C730.422 279.228 729.89 279.013 729.409 278.582C728.953 278.126 728.725 277.581 728.725 276.948C728.725 276.315 728.94 275.783 729.371 275.352C729.827 274.896 730.371 274.668 731.005 274.668ZM75.282 326.668C75.9153 326.668 76.4473 326.896 76.878 327.352C77.334 327.783 77.562 328.315 77.562 328.948C77.562 329.581 77.3213 330.126 76.84 330.582C76.384 331.013 75.8647 331.228 75.282 331.228C74.6993 331.228 74.1673 331.013 73.686 330.582C73.23 330.126 73.002 329.581 73.002 328.948C73.002 328.315 73.2173 327.783 73.648 327.352C74.104 326.896 74.6487 326.668 75.282 326.668ZM96.4343 326.668C97.0677 326.668 97.5997 326.896 98.0303 327.352C98.4863 327.783 98.7143 328.315 98.7143 328.948C98.7143 329.581 98.4737 330.126 97.9923 330.582C97.5363 331.013 97.017 331.228 96.4343 331.228C95.8517 331.228 95.3197 331.013 94.8383 330.582C94.3823 330.126 94.1543 329.581 94.1543 328.948C94.1543 328.315 94.3697 327.783 94.8003 327.352C95.2563 326.896 95.801 326.668 96.4343 326.668ZM117.587 326.668C118.22 326.668 118.752 326.896 119.183 327.352C119.639 327.783 119.867 328.315 119.867 328.948C119.867 329.581 119.626 330.126 119.145 330.582C118.689 331.013 118.169 331.228 117.587 331.228C117.004 331.228 116.472 331.013 115.991 330.582C115.535 330.126 115.307 329.581 115.307 328.948C115.307 328.315 115.522 327.783 115.953 327.352C116.409 326.896 116.953 326.668 117.587 326.668ZM138.739 326.668C139.372 326.668 139.904 326.896 140.335 327.352C140.791 327.783 141.019 328.315 141.019 328.948C141.019 329.581 140.778 330.126 140.297 330.582C139.841 331.013 139.322 331.228 138.739 331.228C138.156 331.228 137.624 331.013 137.143 330.582C136.687 330.126 136.459 329.581 136.459 328.948C136.459 328.315 136.674 327.783 137.105 327.352C137.561 326.896 138.106 326.668 138.739 326.668ZM159.891 326.668C160.525 326.668 161.057 326.896 161.487 327.352C161.943 327.783 162.171 328.315 162.171 328.948C162.171 329.581 161.931 330.126 161.449 330.582C160.993 331.013 160.474 331.228 159.891 331.228C159.309 331.228 158.777 331.013 158.295 330.582C157.839 330.126 157.611 329.581 157.611 328.948C157.611 328.315 157.827 327.783 158.257 327.352C158.713 326.896 159.258 326.668 159.891 326.668ZM181.044 326.668C181.677 326.668 182.209 326.896 182.64 327.352C183.096 327.783 183.324 328.315 183.324 328.948C183.324 329.581 183.083 330.126 182.602 330.582C182.146 331.013 181.626 331.228 181.044 331.228C180.461 331.228 179.929 331.013 179.448 330.582C178.992 330.126 178.764 329.581 178.764 328.948C178.764 328.315 178.979 327.783 179.41 327.352C179.866 326.896 180.41 326.668 181.044 326.668ZM202.196 326.668C202.829 326.668 203.361 326.896 203.792 327.352C204.248 327.783 204.476 328.315 204.476 328.948C204.476 329.581 204.235 330.126 203.754 330.582C203.298 331.013 202.779 331.228 202.196 331.228C201.613 331.228 201.081 331.013 200.6 330.582C200.144 330.126 199.916 329.581 199.916 328.948C199.916 328.315 200.131 327.783 200.562 327.352C201.018 326.896 201.563 326.668 202.196 326.668ZM223.348 326.668C223.982 326.668 224.514 326.896 224.944 327.352C225.4 327.783 225.628 328.315 225.628 328.948C225.628 329.581 225.388 330.126 224.906 330.582C224.45 331.013 223.931 331.228 223.348 331.228C222.766 331.228 222.234 331.013 221.752 330.582C221.296 330.126 221.068 329.581 221.068 328.948C221.068 328.315 221.284 327.783 221.714 327.352C222.17 326.896 222.715 326.668 223.348 326.668ZM244.501 326.668C245.134 326.668 245.666 326.896 246.097 327.352C246.553 327.783 246.781 328.315 246.781 328.948C246.781 329.581 246.54 330.126 246.059 330.582C245.603 331.013 245.083 331.228 244.501 331.228C243.918 331.228 243.386 331.013 242.905 330.582C242.449 330.126 242.221 329.581 242.221 328.948C242.221 328.315 242.436 327.783 242.867 327.352C243.323 326.896 243.867 326.668 244.501 326.668ZM265.653 326.668C266.286 326.668 266.818 326.896 267.249 327.352C267.705 327.783 267.933 328.315 267.933 328.948C267.933 329.581 267.692 330.126 267.211 330.582C266.755 331.013 266.236 331.228 265.653 331.228C265.07 331.228 264.538 331.013 264.057 330.582C263.601 330.126 263.373 329.581 263.373 328.948C263.373 328.315 263.588 327.783 264.019 327.352C264.475 326.896 265.02 326.668 265.653 326.668ZM286.805 326.668C287.439 326.668 287.971 326.896 288.401 327.352C288.857 327.783 289.085 328.315 289.085 328.948C289.085 329.581 288.845 330.126 288.363 330.582C287.907 331.013 287.388 331.228 286.805 331.228C286.223 331.228 285.691 331.013 285.209 330.582C284.753 330.126 284.525 329.581 284.525 328.948C284.525 328.315 284.741 327.783 285.171 327.352C285.627 326.896 286.172 326.668 286.805 326.668ZM307.958 326.668C308.591 326.668 309.123 326.896 309.554 327.352C310.01 327.783 310.238 328.315 310.238 328.948C310.238 329.581 309.997 330.126 309.516 330.582C309.06 331.013 308.54 331.228 307.958 331.228C307.375 331.228 306.843 331.013 306.362 330.582C305.906 330.126 305.678 329.581 305.678 328.948C305.678 328.315 305.893 327.783 306.324 327.352C306.78 326.896 307.324 326.668 307.958 326.668ZM329.11 326.668C329.743 326.668 330.275 326.896 330.706 327.352C331.162 327.783 331.39 328.315 331.39 328.948C331.39 329.581 331.149 330.126 330.668 330.582C330.212 331.013 329.693 331.228 329.11 331.228C328.527 331.228 327.995 331.013 327.514 330.582C327.058 330.126 326.83 329.581 326.83 328.948C326.83 328.315 327.045 327.783 327.476 327.352C327.932 326.896 328.477 326.668 329.11 326.668ZM350.262 326.668C350.896 326.668 351.428 326.896 351.858 327.352C352.314 327.783 352.542 328.315 352.542 328.948C352.542 329.581 352.302 330.126 351.82 330.582C351.364 331.013 350.845 331.228 350.262 331.228C349.68 331.228 349.148 331.013 348.666 330.582C348.21 330.126 347.982 329.581 347.982 328.948C347.982 328.315 348.198 327.783 348.628 327.352C349.084 326.896 349.629 326.668 350.262 326.668ZM371.415 326.668C372.048 326.668 372.58 326.896 373.011 327.352C373.467 327.783 373.695 328.315 373.695 328.948C373.695 329.581 373.454 330.126 372.973 330.582C372.517 331.013 371.997 331.228 371.415 331.228C370.832 331.228 370.3 331.013 369.819 330.582C369.363 330.126 369.135 329.581 369.135 328.948C369.135 328.315 369.35 327.783 369.781 327.352C370.237 326.896 370.781 326.668 371.415 326.668ZM392.567 326.668C393.2 326.668 393.732 326.896 394.163 327.352C394.619 327.783 394.847 328.315 394.847 328.948C394.847 329.581 394.606 330.126 394.125 330.582C393.669 331.013 393.15 331.228 392.567 331.228C391.984 331.228 391.452 331.013 390.971 330.582C390.515 330.126 390.287 329.581 390.287 328.948C390.287 328.315 390.502 327.783 390.933 327.352C391.389 326.896 391.934 326.668 392.567 326.668ZM413.72 326.668C414.353 326.668 414.885 326.896 415.316 327.352C415.772 327.783 416 328.315 416 328.948C416 329.581 415.759 330.126 415.278 330.582C414.822 331.013 414.302 331.228 413.72 331.228C413.137 331.228 412.605 331.013 412.124 330.582C411.668 330.126 411.44 329.581 411.44 328.948C411.44 328.315 411.655 327.783 412.086 327.352C412.542 326.896 413.086 326.668 413.72 326.668ZM434.872 326.668C435.505 326.668 436.037 326.896 436.468 327.352C436.924 327.783 437.152 328.315 437.152 328.948C437.152 329.581 436.911 330.126 436.43 330.582C435.974 331.013 435.455 331.228 434.872 331.228C434.289 331.228 433.757 331.013 433.276 330.582C432.82 330.126 432.592 329.581 432.592 328.948C432.592 328.315 432.807 327.783 433.238 327.352C433.694 326.896 434.239 326.668 434.872 326.668ZM456.024 326.668C456.658 326.668 457.19 326.896 457.62 327.352C458.076 327.783 458.304 328.315 458.304 328.948C458.304 329.581 458.064 330.126 457.582 330.582C457.126 331.013 456.607 331.228 456.024 331.228C455.442 331.228 454.91 331.013 454.428 330.582C453.972 330.126 453.744 329.581 453.744 328.948C453.744 328.315 453.96 327.783 454.39 327.352C454.846 326.896 455.391 326.668 456.024 326.668ZM477.177 326.668C477.81 326.668 478.342 326.896 478.773 327.352C479.229 327.783 479.457 328.315 479.457 328.948C479.457 329.581 479.216 330.126 478.735 330.582C478.279 331.013 477.759 331.228 477.177 331.228C476.594 331.228 476.062 331.013 475.581 330.582C475.125 330.126 474.897 329.581 474.897 328.948C474.897 328.315 475.112 327.783 475.543 327.352C475.999 326.896 476.543 326.668 477.177 326.668ZM498.329 326.668C498.962 326.668 499.494 326.896 499.925 327.352C500.381 327.783 500.609 328.315 500.609 328.948C500.609 329.581 500.368 330.126 499.887 330.582C499.431 331.013 498.912 331.228 498.329 331.228C497.746 331.228 497.214 331.013 496.733 330.582C496.277 330.126 496.049 329.581 496.049 328.948C496.049 328.315 496.264 327.783 496.695 327.352C497.151 326.896 497.696 326.668 498.329 326.668ZM519.481 326.668C520.115 326.668 520.647 326.896 521.077 327.352C521.533 327.783 521.761 328.315 521.761 328.948C521.761 329.581 521.521 330.126 521.039 330.582C520.583 331.013 520.064 331.228 519.481 331.228C518.899 331.228 518.367 331.013 517.885 330.582C517.429 330.126 517.201 329.581 517.201 328.948C517.201 328.315 517.417 327.783 517.847 327.352C518.303 326.896 518.848 326.668 519.481 326.668ZM540.634 326.668C541.267 326.668 541.799 326.896 542.23 327.352C542.686 327.783 542.914 328.315 542.914 328.948C542.914 329.581 542.673 330.126 542.192 330.582C541.736 331.013 541.216 331.228 540.634 331.228C540.051 331.228 539.519 331.013 539.038 330.582C538.582 330.126 538.354 329.581 538.354 328.948C538.354 328.315 538.569 327.783 539 327.352C539.456 326.896 540 326.668 540.634 326.668ZM561.786 326.668C562.419 326.668 562.951 326.896 563.382 327.352C563.838 327.783 564.066 328.315 564.066 328.948C564.066 329.581 563.825 330.126 563.344 330.582C562.888 331.013 562.369 331.228 561.786 331.228C561.203 331.228 560.671 331.013 560.19 330.582C559.734 330.126 559.506 329.581 559.506 328.948C559.506 328.315 559.721 327.783 560.152 327.352C560.608 326.896 561.153 326.668 561.786 326.668ZM582.938 326.668C583.572 326.668 584.104 326.896 584.534 327.352C584.99 327.783 585.218 328.315 585.218 328.948C585.218 329.581 584.978 330.126 584.496 330.582C584.04 331.013 583.521 331.228 582.938 331.228C582.356 331.228 581.824 331.013 581.342 330.582C580.886 330.126 580.658 329.581 580.658 328.948C580.658 328.315 580.874 327.783 581.304 327.352C581.76 326.896 582.305 326.668 582.938 326.668ZM604.091 326.668C604.724 326.668 605.256 326.896 605.687 327.352C606.143 327.783 606.371 328.315 606.371 328.948C606.371 329.581 606.13 330.126 605.649 330.582C605.193 331.013 604.673 331.228 604.091 331.228C603.508 331.228 602.976 331.013 602.495 330.582C602.039 330.126 601.811 329.581 601.811 328.948C601.811 328.315 602.026 327.783 602.457 327.352C602.913 326.896 603.457 326.668 604.091 326.668ZM625.243 326.668C625.876 326.668 626.408 326.896 626.839 327.352C627.295 327.783 627.523 328.315 627.523 328.948C627.523 329.581 627.282 330.126 626.801 330.582C626.345 331.013 625.826 331.228 625.243 331.228C624.66 331.228 624.128 331.013 623.647 330.582C623.191 330.126 622.963 329.581 622.963 328.948C622.963 328.315 623.178 327.783 623.609 327.352C624.065 326.896 624.61 326.668 625.243 326.668ZM646.395 326.668C647.029 326.668 647.561 326.896 647.991 327.352C648.447 327.783 648.675 328.315 648.675 328.948C648.675 329.581 648.435 330.126 647.953 330.582C647.497 331.013 646.978 331.228 646.395 331.228C645.813 331.228 645.281 331.013 644.799 330.582C644.343 330.126 644.115 329.581 644.115 328.948C644.115 328.315 644.331 327.783 644.761 327.352C645.217 326.896 645.762 326.668 646.395 326.668ZM667.548 326.668C668.181 326.668 668.713 326.896 669.144 327.352C669.6 327.783 669.828 328.315 669.828 328.948C669.828 329.581 669.587 330.126 669.106 330.582C668.65 331.013 668.13 331.228 667.548 331.228C666.965 331.228 666.433 331.013 665.952 330.582C665.496 330.126 665.268 329.581 665.268 328.948C665.268 328.315 665.483 327.783 665.914 327.352C666.37 326.896 666.914 326.668 667.548 326.668ZM688.7 326.668C689.333 326.668 689.865 326.896 690.296 327.352C690.752 327.783 690.98 328.315 690.98 328.948C690.98 329.581 690.739 330.126 690.258 330.582C689.802 331.013 689.283 331.228 688.7 331.228C688.117 331.228 687.585 331.013 687.104 330.582C686.648 330.126 686.42 329.581 686.42 328.948C686.42 328.315 686.635 327.783 687.066 327.352C687.522 326.896 688.067 326.668 688.7 326.668ZM709.852 326.668C710.486 326.668 711.018 326.896 711.448 327.352C711.904 327.783 712.132 328.315 712.132 328.948C712.132 329.581 711.892 330.126 711.41 330.582C710.954 331.013 710.435 331.228 709.852 331.228C709.27 331.228 708.738 331.013 708.256 330.582C707.8 330.126 707.572 329.581 707.572 328.948C707.572 328.315 707.788 327.783 708.218 327.352C708.674 326.896 709.219 326.668 709.852 326.668ZM731.005 326.668C731.638 326.668 732.17 326.896 732.601 327.352C733.057 327.783 733.285 328.315 733.285 328.948C733.285 329.581 733.044 330.126 732.563 330.582C732.107 331.013 731.587 331.228 731.005 331.228C730.422 331.228 729.89 331.013 729.409 330.582C728.953 330.126 728.725 329.581 728.725 328.948C728.725 328.315 728.94 327.783 729.371 327.352C729.827 326.896 730.371 326.668 731.005 326.668Z" fill="black"/>
</svg>
