<?xml version="1.0" encoding="UTF-8" standalone="no"?><!-- Generator: Gravit.io --><svg xmlns="http://www.w3.org/2000/svg" xmlns:xlink="http://www.w3.org/1999/xlink" style="isolation:isolate" viewBox="0 0 466.457 329.826" width="466.457pt" height="329.826pt"><defs><clipPath id="_clipPath_BMR6pKUq6ASAfQTJuHvlCsSeE15wcKED"><rect width="466.457" height="329.826"/></clipPath></defs><g clip-path="url(#_clipPath_BMR6pKUq6ASAfQTJuHvlCsSeE15wcKED)"><path d=" M 330.763 231.254 L 284.503 257.009 L 238.244 282.764 C 234.429 284.888 228.289 284.792 224.542 282.551 L 179.108 255.366 L 133.674 228.182 C 129.927 225.94 126.94 220.575 127.008 216.209 L 127.834 163.27 L 128.659 110.33 C 128.727 105.964 131.88 100.695 135.695 98.571 L 181.954 72.816 L 228.214 47.062 C 232.029 44.938 238.168 45.033 241.915 47.275 L 287.349 74.46 L 332.783 101.644 C 336.53 103.886 339.517 109.251 339.449 113.617 L 338.624 166.556 L 337.798 219.495 C 337.73 223.861 334.578 229.13 330.763 231.254 Z " fill="rgb(235,235,235)"/><path d=" M 167.479 136.413 L 140.479 164.913 L 167.479 193.413" fill="none" vector-effect="non-scaling-stroke" stroke-width="1" stroke="rgb(105,129,145)" stroke-linejoin="round" stroke-linecap="round" stroke-miterlimit="3"/><path d=" M 298.979 136.413 L 325.979 164.913 L 298.979 193.413" fill="none" vector-effect="non-scaling-stroke" stroke-width="1" stroke="rgb(105,129,145)" stroke-linejoin="round" stroke-linecap="round" stroke-miterlimit="3"/><g><path d=" M 278.979 208.341 L 278.979 159.634 C 278.478 140.229 274.236 113.341 245.429 113.341 L 242.379 107.913 L 233.229 107.913 C 212.748 107.913 187.479 113.341 187.479 175.77 L 187.479 208.341 L 208.829 221.913 L 208.829 156.77 L 248.479 132.341 L 257.629 143.199 L 257.629 221.913 L 278.979 208.341 Z " fill="rgb(141,110,99)"/><path d=" M 242.379 112 L 245.429 118 L 248.479 132.341 L 208.829 156.77 L 208.829 148.627 C 208.829 148.627 239.329 139.143 242.379 112 Z  M 208.829 148.627 C 208.829 148.627 202.729 151.341 202.729 156.77 L 202.729 218.031 L 208.829 221.913 L 208.829 148.627 Z " fill="rgb(109,76,65)"/></g><g><ellipse vector-effect="non-scaling-stroke" cx="200.72833355018744" cy="153.07500241628506" rx="1.6052627897324498" ry="1.7297297297297405" fill="rgb(234,76,137)"/><path d=" M 200.728 151.778 C 200.303 151.774 199.895 151.6 199.581 151.292 C 198.061 149.83 195.511 146.883 195.511 143.561 C 195.511 140.24 198.061 137.293 199.581 135.831 C 199.906 135.517 200.313 135.345 200.728 135.345 C 201.143 135.345 201.55 135.517 201.876 135.831 C 203.395 137.293 205.945 140.24 205.945 143.561 C 205.945 146.883 203.395 149.83 201.876 151.292 C 201.562 151.6 201.153 151.774 200.728 151.778 Z " fill="rgb(255,181,210)"/><path d=" M 200.728 135.778 C 201.049 135.778 201.353 135.907 201.609 136.153 C 203.078 137.567 205.544 140.409 205.544 143.561 C 205.544 146.714 203.078 149.556 201.609 150.97 C 201.353 151.216 201.049 151.345 200.728 151.345 C 200.408 151.345 200.104 151.216 199.848 150.97 C 198.378 149.556 195.913 146.714 195.913 143.561 C 195.913 140.409 198.378 137.567 199.848 136.153 C 200.088 135.914 200.402 135.78 200.728 135.778 Z  M 200.728 134.913 C 200.227 134.913 199.727 135.111 199.314 135.508 C 197.649 137.109 195.11 140.116 195.11 143.561 C 195.11 147.007 197.649 150.014 199.314 151.615 C 199.727 152.012 200.227 152.21 200.728 152.21 C 201.229 152.21 201.73 152.012 202.143 151.615 C 203.807 150.014 206.347 147.007 206.347 143.561 C 206.347 140.116 203.807 137.109 202.143 135.508 C 201.756 135.128 201.252 134.916 200.728 134.913 Z " fill="rgb(234,76,137)"/><path d=" M 200.728 151.345 C 201.049 151.345 201.353 151.216 201.609 150.97 C 201.782 150.803 201.971 150.614 202.167 150.409 C 202.573 149.187 203.136 147.639 203.136 146.597 C 203.136 144.342 200.728 140.967 200.728 140.967 C 200.728 140.967 198.32 144.267 198.32 146.597 C 198.32 149.14 199.662 150.79 199.848 150.97 C 200.104 151.216 200.408 151.345 200.728 151.345 Z " fill="rgb(255,238,163)"/><path d=" M 208.111 155.237 C 205.798 155.237 203.482 154.106 201.948 153.157 C 201.199 152.694 200.927 151.817 201.286 151.025 C 202.116 149.194 203.94 145.991 206.829 145.11 C 207.404 144.94 207.998 144.855 208.595 144.859 C 210.908 144.859 213.224 145.99 214.758 146.939 C 215.506 147.401 215.778 148.278 215.42 149.071 C 214.59 150.902 212.766 154.105 209.877 154.985 C 209.302 155.156 208.707 155.241 208.111 155.237 Z " fill="rgb(255,181,210)"/><path d=" M 208.596 145.291 C 210.82 145.291 213.066 146.391 214.558 147.314 C 215.124 147.664 215.325 148.293 215.059 148.88 C 214.258 150.647 212.506 153.735 209.767 154.569 C 209.227 154.729 208.67 154.808 208.111 154.805 C 205.887 154.805 203.64 153.705 202.148 152.782 C 201.583 152.432 201.382 151.803 201.648 151.216 C 202.448 149.449 204.201 146.361 206.94 145.526 C 207.479 145.367 208.036 145.288 208.596 145.291 Z  M 208.596 144.426 C 207.966 144.426 207.336 144.507 206.72 144.694 C 203.718 145.609 201.837 148.826 200.926 150.836 C 200.474 151.833 200.817 152.956 201.748 153.532 C 203.241 154.455 205.669 155.67 208.111 155.67 C 208.741 155.67 209.371 155.589 209.987 155.401 C 212.989 154.487 214.87 151.27 215.781 149.26 C 216.233 148.263 215.89 147.14 214.959 146.564 C 213.465 145.641 211.037 144.426 208.596 144.426 Z " fill="rgb(234,76,137)"/><path d=" M 210.36 149.616 C 210.36 149.616 206.913 148.206 204.615 148.994 C 203.136 149.501 201.781 150.919 201.647 151.216 C 201.382 151.803 201.625 152.362 202.147 152.782 C 203.186 153.616 206.325 153.688 206.791 153.495 C 209.372 152.424 210.36 149.616 210.36 149.616 Z " fill="rgb(255,238,163)"/><path d=" M 209.593 166.48 C 207.58 166.464 203.908 166.072 201.944 163.632 C 199.982 161.192 200.162 157.245 200.445 155.11 C 200.569 154.166 201.279 153.507 202.17 153.507 C 204.197 153.523 207.869 153.915 209.833 156.355 C 211.795 158.795 211.614 162.742 211.332 164.877 C 211.207 165.821 210.498 166.48 209.607 166.48 L 209.593 166.48 Z " fill="rgb(255,181,210)"/><path d=" M 202.169 153.075 L 202.18 153.94 C 204.126 153.955 207.669 154.326 209.529 156.639 C 211.388 158.95 211.207 162.754 210.935 164.816 C 210.838 165.541 210.292 166.048 209.596 166.048 C 207.65 166.032 204.107 165.661 202.247 163.349 C 200.388 161.038 200.569 157.234 200.842 155.171 C 200.938 154.447 201.484 153.94 202.169 153.94 L 202.169 153.075 Z  M 202.169 153.075 C 201.082 153.075 200.2 153.895 200.048 155.049 C 199.738 157.39 199.6 161.377 201.641 163.915 C 203.682 166.453 207.384 166.896 209.59 166.913 L 209.607 166.913 C 210.694 166.913 211.576 166.093 211.728 164.938 C 212.038 162.598 212.176 158.611 210.135 156.073 C 208.094 153.534 204.392 153.092 202.186 153.075 L 202.169 153.075 Z " fill="rgb(234,76,137)"/><path d=" M 200.958 154.791 C 201.098 156.248 201.441 158.188 202.296 159.494 C 203.522 161.37 207.149 161.724 207.149 161.724 C 207.149 161.724 207.392 158.209 205.856 156.191 C 204.658 154.618 202.582 153.943 202.18 153.94 L 202.169 153.94 C 201.614 153.94 201.165 154.281 200.958 154.791 Z " fill="rgb(255,238,163)"/><path d=" M 191.85 166.48 C 190.959 166.48 190.249 165.821 190.125 164.877 C 189.842 162.742 189.662 158.796 191.624 156.355 C 193.588 153.915 197.259 153.523 199.273 153.507 C 200.178 153.507 200.887 154.166 201.012 155.11 C 201.294 157.245 201.475 161.191 199.512 163.632 C 197.548 166.072 193.877 166.464 191.863 166.48 L 191.85 166.48 Z " fill="rgb(255,181,210)"/><path d=" M 199.288 153.075 L 199.288 153.94 C 199.973 153.94 200.519 154.447 200.614 155.171 C 200.887 157.233 201.068 161.038 199.209 163.348 C 197.348 165.661 193.806 166.032 191.849 166.047 C 191.163 166.047 190.618 165.54 190.522 164.816 C 190.249 162.754 190.069 158.949 191.927 156.638 C 193.788 154.326 197.33 153.955 199.276 153.939 L 199.288 153.075 Z  M 199.288 153.075 L 199.271 153.075 C 197.064 153.092 193.363 153.535 191.321 156.073 C 189.28 158.61 189.418 162.597 189.728 164.938 C 189.881 166.093 190.763 166.913 191.85 166.913 L 191.866 166.913 C 194.073 166.896 197.775 166.453 199.816 163.915 C 201.857 161.378 201.719 157.391 201.409 155.049 C 201.256 153.895 200.374 153.075 199.288 153.075 Z " fill="rgb(234,76,137)"/><path d=" M 200.672 155.651 C 200.655 155.491 200.636 155.332 200.615 155.172 C 200.519 154.447 199.973 153.94 199.288 153.94 L 199.276 153.94 C 199.046 153.942 198.791 153.949 198.521 153.964 C 197.519 154.455 196.405 155.182 195.624 156.215 C 194.29 157.982 194.307 161.724 194.307 161.724 C 194.307 161.724 198.153 161.348 199.564 158.79 C 200.073 157.865 200.543 156.767 200.672 155.651 Z " fill="rgb(255,238,163)"/><path d=" M 199.314 151.615 C 197.865 150.221 195.754 147.76 195.232 144.873 C 195.069 144.806 194.904 144.746 194.737 144.694 C 191.735 143.78 188.377 145.403 186.498 146.564 C 185.567 147.14 185.225 148.263 185.677 149.26 C 186.588 151.271 188.469 154.488 191.471 155.401 C 194.473 156.316 197.83 154.693 199.709 153.532 C 200.219 153.217 200.544 152.736 200.667 152.204 C 200.166 152.187 199.686 151.978 199.314 151.615 Z " fill="rgb(255,181,210)"/><path d=" M 199.881 152.004 C 199.807 152.311 199.619 152.59 199.308 152.782 C 197.816 153.705 195.57 154.805 193.346 154.805 C 192.76 154.805 192.202 154.725 191.688 154.569 C 188.949 153.736 187.198 150.647 186.397 148.88 C 186.131 148.293 186.332 147.664 186.897 147.314 C 188.39 146.391 190.636 145.291 192.861 145.291 C 193.447 145.291 194.004 145.371 194.518 145.526 C 194.86 145.631 195.188 145.77 195.5 145.939 C 195.387 145.59 195.297 145.234 195.23 144.872 C 195.068 144.805 194.902 144.746 194.735 144.694 C 194.125 144.512 193.494 144.422 192.861 144.426 C 190.42 144.426 187.991 145.641 186.498 146.564 C 185.567 147.14 185.225 148.263 185.677 149.26 C 186.588 151.271 188.469 154.488 191.471 155.401 C 192.086 155.589 192.716 155.67 193.346 155.67 C 195.787 155.67 198.215 154.455 199.708 153.532 C 200.218 153.217 200.543 152.736 200.667 152.204 C 200.395 152.194 200.128 152.126 199.881 152.004 Z " fill="rgb(234,76,137)"/><path d=" M 199.314 151.615 C 198.522 150.858 197.797 150.023 197.148 149.123 C 197.046 149.079 196.946 149.03 196.842 148.995 C 194.544 148.207 191.049 149.723 191.049 149.723 C 191.049 149.723 192.432 152.84 195.11 153.584 C 196.708 154.029 198.583 153.231 199.309 152.782 C 199.619 152.59 199.808 152.311 199.882 152.004 C 199.675 151.907 199.483 151.776 199.314 151.615 Z " fill="rgb(255,238,163)"/></g></g></svg>