<?xml version="1.0" standalone="no"?>
<!DOCTYPE svg PUBLIC "-//W3C//DTD SVG 20010904//EN"
        "http://www.w3.org/TR/2001/REC-SVG-20010904/DTD/svg10.dtd">
<svg version="1.0" xmlns="http://www.w3.org/2000/svg"
     viewBox="0 0 1640 600"
     preserveAspectRatio="xMinYMin meet">

    <g transform="translate(-55 599) scale(0.06,-0.06)"
       fill="#000" stroke="#CBCBCB">
        <path d="M10845 9673 c-11 -3 -34 -16 -52 -30 -25 -19 -39 -23 -63 -18 -29 6
-30 5 -25 -17 4 -15 -3 -44 -19 -78 -21 -45 -26 -70 -26 -137 l0 -82 -54 -11
c-85 -17 -88 -22 -94 -136 l-4 -99 34 -18 c24 -13 43 -36 63 -75 27 -54 29
-63 26 -167 -3 -109 -3 -110 33 -178 32 -60 38 -84 56 -223 11 -86 20 -214 20
-288 0 -135 12 -216 69 -459 l21 -87 -46 -83 c-57 -103 -82 -177 -96 -284 -8
-64 -8 -94 1 -124 13 -44 71 -115 102 -124 17 -6 19 -13 13 -56 l-7 -49 57
-55 c40 -38 56 -60 52 -72 -3 -10 -6 -88 -8 -174 l-3 -155 53 -78 c28 -43 52
-84 52 -92 0 -8 -21 -58 -46 -112 -61 -131 -82 -214 -90 -351 -5 -96 -3 -124
11 -161 10 -25 20 -62 22 -83 4 -32 11 -41 35 -49 21 -8 27 -15 23 -27 -4 -9
-22 -67 -40 -128 -75 -245 -70 -309 35 -493 12 -22 20 -54 20 -85 1 -27 7 -94
14 -149 11 -81 10 -108 0 -155 -8 -31 -14 -122 -15 -206 -1 -82 -8 -187 -16
-233 -16 -94 -9 -203 30 -437 16 -96 21 -175 22 -300 0 -160 -1 -173 -24 -215
-45 -87 -74 -107 -231 -159 -126 -41 -156 -61 -169 -108 -6 -21 -11 -48 -11
-61 0 -36 -24 -85 -60 -120 -32 -32 -32 -35 -24 -85 13 -79 7 -243 -13 -332
l-18 -80 -147 -3 c-131 -2 -147 -4 -153 -20 -3 -10 -1 -63 5 -117 9 -83 17
-112 55 -192 24 -52 60 -120 79 -151 19 -31 44 -86 56 -122 19 -56 21 -78 16
-160 -3 -52 -11 -123 -17 -157 l-11 -63 -103 0 -102 0 -7 77 c-3 42 -6 100 -6
130 l0 53 -145 0 -145 0 0 -405 0 -405 -195 0 -195 0 0 1289 c0 1022 -3 1290
-12 1293 -7 3 -85 4 -173 4 l-160 -1 -3 -283 -2 -283 -113 3 -112 3 3 645 c2
412 -1 650 -7 660 -7 11 -32 15 -93 16 l-83 1 -6 44 c-4 24 -10 200 -14 391
l-8 346 -79 4 c-51 2 -82 8 -87 16 -5 8 -11 74 -15 148 -3 74 -9 195 -12 269
l-7 135 -58 0 c-67 0 -65 -4 -74 120 -3 47 -8 102 -11 123 l-6 37 -77 0 -78 0
-7 53 c-3 28 -6 82 -6 118 0 108 -39 567 -56 659 -22 124 -52 236 -80 302
l-24 57 0 393 c0 477 -10 942 -21 960 -29 47 -38 -96 -58 -964 l-9 -387 -35
-58 c-56 -92 -59 -117 -87 -698 -11 -225 -22 -416 -25 -422 -3 -9 -30 -13 -90
-13 -47 0 -85 -3 -85 -6 0 -31 -33 -261 -38 -266 -4 -4 -25 -8 -47 -10 -38 -3
-40 -5 -47 -43 -4 -22 -7 -146 -7 -276 l-1 -236 -67 -6 c-37 -4 -70 -10 -74
-14 -4 -5 -11 -181 -15 -393 l-7 -385 -55 -2 c-30 -2 -58 -6 -61 -9 -7 -7 -19
-1342 -20 -2311 l-1 -693 -100 -2 c-55 -1 -121 -2 -146 -3 l-47 0 -3 340 c-1
187 -3 350 -3 363 l-1 22 -237 -2 -238 -3 -3 -792 -2 -793 -60 0 -60 0 -2
1787 -3 1788 -175 3 c-96 2 -203 0 -237 -3 l-63 -7 0 -415 0 -416 -142 4 -143
4 -3 -848 -2 -847 -120 0 -120 0 0 523 c0 288 -3 599 -7 692 l-6 167 -57 -5
-58 -5 -6 332 c-3 182 -8 529 -12 771 -3 242 -8 442 -11 445 -2 3 -91 7 -196
10 l-192 5 -2 250 c-6 551 -35 765 -118 863 -40 46 -148 116 -245 159 -60 26
-75 28 -190 28 -123 0 -126 -1 -200 -36 -146 -71 -240 -200 -279 -386 -30
-138 -39 -247 -47 -553 -4 -157 -10 -295 -15 -307 -8 -23 -11 -23 -189 -23
l-180 0 0 -612 c0 -585 -4 -788 -16 -907 l-6 -54 -51 6 c-29 4 -102 9 -163 13
l-111 7 -6 -33 c-4 -18 -8 -197 -8 -399 -1 -201 -4 -420 -8 -486 l-6 -120
-154 -3 c-87 -1 -159 2 -164 7 -5 5 -13 95 -18 200 -4 106 -11 196 -14 201 -4
6 -149 10 -374 10 l-368 0 -22 -24 c-12 -13 -47 -79 -77 -147 -68 -152 -177
-400 -215 -493 l-29 -68 0 -549 c0 -452 2 -549 13 -549 11 0 15 63 20 322 4
178 7 426 7 552 l0 229 59 131 c32 72 91 203 131 291 40 88 81 182 93 208 15
33 29 50 47 55 28 8 668 7 676 -1 3 -3 9 -91 13 -196 5 -130 11 -195 20 -204
9 -9 64 -12 204 -12 l192 0 7 105 c3 58 8 290 11 515 4 348 6 410 19 409 8 -1
80 -4 160 -8 l145 -8 7 29 c14 63 26 734 19 1121 l-6 412 201 0 202 0 0 333
c0 354 10 476 51 629 26 98 49 148 97 206 83 102 194 152 335 152 105 0 142
-11 254 -72 149 -82 181 -125 219 -293 11 -53 18 -176 25 -500 5 -236 11 -436
14 -443 3 -9 52 -12 199 -12 l194 0 6 -92 c3 -51 8 -390 10 -754 3 -363 8
-668 11 -676 4 -10 25 -18 61 -23 l54 -6 0 -690 0 -689 170 0 170 0 0 844 0
844 128 7 c70 3 133 8 140 10 9 3 12 61 12 243 0 131 3 314 7 405 l6 167 189
0 188 0 0 -1770 0 -1770 110 0 110 0 0 774 c0 426 3 776 8 778 4 2 89 2 190 0
l182 -3 0 -354 0 -355 201 0 201 0 -3 1507 -4 1508 73 3 72 3 0 368 c0 203 3
383 6 400 l6 31 69 -6 69 -7 0 229 c0 126 3 253 6 282 6 49 8 52 35 52 34 0
69 31 70 63 0 12 6 65 12 117 l12 95 87 3 c104 3 94 -17 103 207 8 206 32 618
45 763 13 140 44 222 86 222 20 0 65 -84 85 -157 40 -145 77 -470 85 -748 2
-110 7 -219 10 -242 l5 -43 80 0 c59 0 81 -4 85 -14 3 -8 8 -70 12 -137 l7
-124 61 -3 61 -3 6 -97 c4 -53 7 -138 7 -188 0 -50 3 -132 6 -182 l7 -92 83 0
c73 0 84 -2 85 -17 1 -10 3 -27 4 -39 1 -11 5 -173 9 -360 4 -186 9 -347 12
-356 5 -15 18 -18 88 -18 l83 0 7 -662 c4 -365 8 -663 9 -663 1 0 73 1 160 3
l157 3 0 274 0 275 120 0 120 0 0 -1290 0 -1290 252 2 253 3 1 35 c1 19 2 200
3 403 l1 367 95 0 94 0 3 -128 3 -127 140 0 140 0 18 70 c13 49 19 110 20 205
l2 135 -47 95 c-27 52 -66 129 -88 170 -48 91 -67 152 -76 248 l-7 73 110 -7
c60 -4 130 -4 155 0 l45 7 12 57 c24 119 34 286 22 357 l-12 68 36 37 c30 30
38 49 51 116 9 43 23 87 32 96 8 10 52 29 98 43 193 59 259 108 291 214 22 79
13 439 -16 600 -30 167 -35 247 -21 316 15 73 33 400 33 590 -1 175 -18 263
-67 337 -72 108 -68 208 18 474 30 92 53 171 50 176 -3 4 -19 8 -35 8 -70 0
-96 74 -86 236 7 102 28 174 88 306 56 121 55 148 -10 246 l-50 77 8 145 c5
80 14 158 21 175 9 23 9 30 -1 34 -7 2 -24 16 -38 31 -14 14 -38 34 -53 43
-33 20 -35 43 -8 77 11 14 20 30 20 35 0 6 -28 24 -62 40 -76 37 -98 73 -98
160 0 82 18 143 78 266 28 57 53 120 57 140 7 37 -6 113 -51 309 -22 96 -26
139 -26 260 0 96 -8 198 -23 303 -20 141 -26 163 -57 215 -33 55 -34 60 -30
140 2 45 8 82 13 82 16 0 10 41 -10 68 -10 15 -25 43 -34 63 -8 19 -31 49 -52
67 l-38 31 5 69 c3 38 8 74 12 81 4 6 33 11 65 11 32 0 72 3 89 6 l31 6 -24
49 c-27 52 -33 125 -14 160 19 36 135 149 152 149 19 0 22 -36 8 -107 -5 -24
-7 -43 -5 -43 3 0 18 15 34 33 l29 32 1 -40 c0 -23 -11 -64 -26 -95 -41 -87
-53 -126 -43 -141 5 -9 33 -16 71 -19 l63 -5 3 -71 c2 -63 0 -75 -20 -99 -13
-14 -39 -30 -58 -34 -34 -6 -35 -9 -38 -56 -2 -32 -10 -57 -23 -71 -19 -20
-19 -20 15 -53 45 -44 53 -76 71 -291 17 -195 22 -226 80 -465 20 -82 40 -199
46 -259 14 -171 38 -199 175 -205 101 -4 118 5 111 58 -4 29 1 42 24 67 21 21
30 42 32 71 l2 41 46 -5 c30 -4 64 0 97 11 l50 17 9 62 9 62 23 -60 c12 -33
28 -63 34 -67 20 -13 106 -9 144 7 52 22 57 19 35 -20 l-21 -34 29 -25 c16
-13 45 -30 65 -36 32 -11 48 -30 25 -30 -20 0 -9 -47 20 -82 l30 -37 -22 -15
c-12 -9 -28 -16 -35 -16 -17 0 -18 -160 -1 -245 6 -33 12 -118 13 -190 1 -141
8 -166 64 -242 19 -26 50 -52 79 -65 104 -49 176 -160 212 -327 11 -51 28
-106 37 -121 17 -24 176 -170 186 -170 3 0 24 34 46 75 26 47 48 75 58 75 10
0 27 12 39 27 l21 26 89 -48 c104 -57 180 -109 188 -130 9 -25 -3 -76 -32
-132 -25 -48 -26 -55 -14 -97 17 -66 15 -94 -14 -155 -28 -62 -98 -170 -122
-188 -9 -7 -28 -13 -43 -13 -31 0 -30 4 -49 -143 -15 -113 -38 -205 -68 -266
-22 -44 -34 -57 -63 -67 -20 -6 -56 -26 -79 -43 -24 -17 -51 -31 -61 -31 -33
0 -34 23 25 -445 13 -110 27 -249 30 -308 l5 -109 -31 -27 -30 -27 12 -99 c6
-55 13 -113 16 -130 4 -24 -1 -37 -26 -65 -51 -56 -52 -68 -34 -231 20 -177
16 -212 -27 -229 -16 -7 -35 -22 -41 -33 -14 -26 -3 -277 17 -369 16 -77 66
-180 145 -298 100 -149 110 -171 110 -232 0 -52 3 -58 39 -91 53 -48 59 -79
25 -128 -23 -34 -25 -44 -19 -86 4 -27 13 -63 21 -81 19 -47 125 -154 216
-219 94 -68 103 -86 95 -200 -6 -77 -9 -90 -33 -111 -24 -22 -26 -30 -21 -73
l6 -48 -51 -28 c-38 -20 -54 -36 -61 -58 -10 -34 -15 -370 -6 -379 3 -4 99 -9
212 -13 l207 -6 0 736 0 737 225 0 225 0 0 -450 0 -450 69 0 69 0 -5 -42 c-3
-24 -18 -115 -33 -203 -16 -88 -42 -236 -59 -330 -135 -760 -130 -729 -127
-732 1 -2 89 -6 194 -9 l192 -7 0 191 0 192 100 0 100 0 0 233 c0 221 1 233
20 245 19 11 20 23 20 185 0 170 0 174 24 196 l24 23 4 281 c3 155 8 290 12
300 5 9 18 17 30 17 44 0 49 13 57 132 4 62 11 783 14 1603 4 820 10 1506 14
1525 6 29 11 35 32 33 13 -1 44 0 67 3 l44 6 -7 533 -8 534 27 7 c21 5 35 22
60 73 41 80 90 133 159 168 48 24 61 26 170 26 110 0 121 -2 180 -31 34 -17
79 -48 101 -69 51 -50 109 -139 124 -189 9 -30 10 -175 5 -562 l-6 -522 76 0
75 0 4 -1624 c2 -893 6 -1628 11 -1632 4 -4 32 -6 61 -5 l55 2 6 -43 c3 -24 4
-161 3 -306 -3 -263 -3 -264 20 -282 21 -18 22 -24 22 -197 0 -178 0 -180 23
-190 17 -8 23 -20 25 -49 2 -21 5 -41 8 -44 3 -3 68 -6 145 -8 l139 -4 -3 719
-2 718 67 5 c36 3 70 9 75 13 4 5 9 92 11 193 l3 184 88 0 88 0 5 520 5 521
31 27 32 27 1 255 c2 324 2 327 44 345 27 11 34 20 37 46 3 30 7 34 43 43 22
5 135 9 250 10 239 1 252 -2 257 -61 3 -33 7 -39 33 -43 l30 -5 3 -304 2 -304
27 -25 26 -24 -6 -896 c-6 -883 1 -1260 25 -1289 6 -7 21 -13 34 -13 23 0 23
-3 26 -97 l3 -97 33 -10 32 -9 0 -112 c0 -120 3 -127 53 -139 l27 -6 0 -95 0
-95 65 0 65 0 0 2463 0 2464 167 6 c91 4 230 7 307 7 l141 0 46 -58 c75 -95
120 -168 234 -377 189 -351 278 -464 392 -502 57 -19 58 -21 66 -64 5 -24 11
-920 14 -1991 l5 -1948 113 0 c62 0 120 3 129 6 14 6 16 90 16 856 l0 850 260
-8 260 -7 0 426 0 426 83 -6 c45 -3 83 -6 83 -7 1 -1 4 -120 8 -266 29 -1241
47 -1943 52 -1986 l5 -51 326 -7 c227 -4 330 -3 337 4 8 8 13 561 16 1842 l5
1830 561 2 562 1 7 -77 c6 -76 7 -78 33 -80 85 -6 140 23 200 104 l39 53 94 0
94 0 -4 177 c-3 169 -2 177 17 187 28 15 127 14 140 -1 6 -9 12 -847 16 -2508
3 -1372 10 -2523 14 -2557 l7 -61 128 116 127 116 0 1649 0 1650 66 -7 c114
-12 143 25 122 156 -9 62 -9 81 0 87 7 4 86 8 177 10 l165 2 0 -69 c0 -61 3
-71 26 -93 27 -25 62 -29 184 -19 l55 4 7 -84 c3 -47 6 -136 7 -198 1 -106 2
-114 22 -119 11 -3 25 -17 30 -30 5 -14 9 -388 9 -899 l0 -874 200 0 200 0 0
164 0 165 70 7 70 7 0 391 0 391 35 28 35 28 0 214 0 214 25 25 c14 14 25 34
25 44 0 17 12 19 158 25 229 10 262 9 262 -6 0 -7 10 -31 22 -52 19 -37 21
-53 19 -200 -2 -196 5 -270 29 -293 17 -16 18 -71 22 -959 2 -518 6 -945 9
-947 3 -3 30 -9 60 -13 l54 -8 3 -256 2 -256 38 -7 c20 -3 112 -9 205 -12
l167 -7 0 331 0 332 324 0 324 0 6 -31 c3 -17 6 -54 6 -81 0 -70 22 -116 64
-133 41 -18 41 -14 53 -282 5 -100 13 -186 17 -190 4 -4 68 -9 142 -11 l134
-4 0 194 c0 237 -1 233 97 233 55 -1 81 -7 126 -28 63 -31 146 -102 189 -161
l28 -39 0 -189 0 -188 25 0 25 0 0 185 c0 183 0 186 -27 228 -40 65 -145 162
-204 190 -97 46 -185 54 -276 26 l-33 -11 0 -194 0 -194 -94 0 c-57 0 -97 4
-101 11 -4 6 -9 81 -11 167 -7 276 -9 285 -65 297 -39 9 -49 31 -49 107 0 35
-3 80 -6 101 l-7 37 -358 0 -359 0 0 -325 c0 -284 -2 -326 -15 -332 -9 -3 -82
-2 -163 3 l-147 9 -3 268 -2 269 -65 -7 -65 -7 0 438 c0 242 -3 672 -7 956 -6
475 -8 518 -23 523 -15 5 -18 31 -25 228 -5 168 -10 226 -21 238 -7 8 -20 33
-27 55 l-14 39 -219 -2 c-120 -1 -228 -4 -241 -8 -14 -3 -25 -16 -29 -33 -4
-15 -15 -35 -25 -45 -16 -15 -19 -34 -19 -130 0 -62 -3 -162 -7 -224 l-6 -111
-28 -6 c-28 -5 -29 -7 -31 -78 -1 -40 0 -220 2 -400 l3 -328 -77 0 -76 0 0
-160 0 -160 -155 0 -155 0 0 890 0 891 -30 6 c-28 5 -30 9 -32 52 -1 25 -1 66
1 91 1 25 0 92 -4 149 l-7 104 -113 -7 c-148 -9 -155 -6 -155 77 0 103 4 101
-213 101 -232 1 -224 6 -210 -121 6 -51 6 -98 1 -112 -8 -23 -11 -23 -86 -17
-45 4 -83 2 -92 -4 -13 -8 -15 -207 -19 -1664 l-3 -1655 -83 -75 c-46 -42 -86
-76 -89 -76 -3 0 -6 854 -6 1898 0 1044 -3 2183 -7 2532 l-6 632 -36 15 c-44
19 -152 11 -187 -12 -24 -15 -24 -18 -24 -174 0 -136 -2 -160 -16 -165 -9 -3
-49 -6 -90 -6 l-74 0 -15 -37 c-30 -71 -121 -144 -160 -129 -12 4 -15 23 -15
87 l0 82 -596 -5 c-442 -4 -598 -8 -607 -17 -9 -9 -13 -423 -14 -1769 -2 -966
-6 -1785 -9 -1820 l-6 -62 -296 2 -297 3 -6 140 c-4 77 -9 300 -13 495 -15
867 -38 1639 -49 1658 -6 8 -43 12 -128 12 l-119 0 0 -419 0 -419 -249 -4
c-137 -2 -253 -7 -257 -11 -5 -4 -10 -386 -12 -847 l-4 -840 -78 0 -78 0 -6
393 c-3 215 -9 1072 -12 1902 -4 831 -9 1548 -13 1595 l-6 84 -55 11 c-69 14
-91 29 -161 107 -78 89 -103 128 -219 343 -56 105 -122 224 -147 265 -55 94
-157 218 -188 230 -13 5 -168 9 -344 10 l-321 0 0 -2470 c0 -2083 -2 -2470
-14 -2470 -10 0 -15 21 -18 75 -5 83 -24 115 -65 115 -23 0 -23 1 -23 106 0
58 -4 113 -10 123 -5 10 -23 21 -40 24 l-30 7 0 98 0 98 -29 10 c-22 9 -30 20
-37 50 -5 22 -9 514 -9 1095 0 1108 1 1089 -41 1089 -12 0 -13 46 -7 290 l6
291 -36 33 c-21 19 -37 40 -37 48 0 52 -121 73 -355 64 -88 -4 -187 -12 -220
-19 -59 -12 -60 -12 -63 -49 -2 -26 -9 -39 -22 -43 -43 -14 -45 -25 -50 -329
l-5 -291 -27 -3 c-23 -3 -27 -8 -32 -50 -3 -26 -8 -265 -12 -532 l-6 -485 -87
0 -86 0 3 -175 c2 -96 -1 -181 -6 -188 -5 -8 -39 -16 -78 -20 l-69 -7 -3 -712
-2 -713 -95 0 -96 0 -6 30 c-3 17 -17 39 -30 50 -24 19 -24 21 -23 177 2 200
4 183 -25 217 l-25 29 0 293 c0 332 2 325 -73 317 l-44 -5 -7 1612 c-4 1041
-10 1619 -17 1631 -6 12 -21 19 -42 20 -18 1 -43 4 -56 8 l-24 6 1 530 c0 292
-2 542 -5 558 -3 17 -12 27 -23 27 -10 0 -34 22 -54 48 -51 71 -120 130 -180
158 -107 49 -304 51 -395 4 -59 -29 -140 -113 -172 -175 -21 -43 -30 -50 -57
-53 l-33 -3 7 -545 7 -544 -65 0 c-63 0 -66 -1 -72 -26 -12 -46 -25 -1057 -26
-1894 0 -443 -3 -929 -7 -1082 l-6 -276 -31 -9 c-52 -15 -56 -33 -56 -318 0
-143 -3 -270 -6 -282 -3 -11 -14 -23 -24 -26 -26 -7 -33 -70 -28 -238 l4 -139
-28 0 -28 0 0 -235 0 -235 -100 0 -100 0 0 -190 0 -190 -145 0 c-129 0 -145 2
-145 17 0 9 14 89 30 177 55 292 78 419 115 631 20 116 47 268 60 340 13 71
21 133 19 137 -3 5 -24 8 -47 8 -23 0 -52 3 -64 6 l-23 6 0 449 0 449 -275 0
-275 0 0 -735 0 -735 -171 0 -172 0 7 153 c4 83 10 162 13 175 3 13 21 31 42
42 52 26 65 46 66 98 0 36 4 46 21 52 17 7 22 20 27 77 18 188 11 205 -125
310 -118 92 -151 127 -184 198 -29 61 -30 96 -4 120 46 42 34 131 -25 178 -32
25 -35 33 -35 78 0 59 -5 70 -110 231 -139 212 -159 270 -167 494 l-6 152 24
7 c66 20 76 68 54 255 -20 173 -21 165 21 207 l37 36 -7 139 -7 138 28 24 c34
29 34 20 -8 411 -17 160 -33 326 -36 370 l-5 80 48 35 c27 19 66 43 86 52 62
28 106 121 140 293 22 112 36 144 87 196 47 48 130 186 153 256 18 53 18 58 2
109 l-16 53 41 62 c29 43 38 66 31 73 -5 5 -10 22 -10 37 0 47 -69 102 -246
196 -101 53 -108 55 -118 38 -6 -10 -25 -33 -42 -49 -17 -17 -46 -52 -63 -79
-32 -47 -33 -47 -54 -30 -123 98 -130 107 -141 183 -24 155 -99 298 -186 350
-88 53 -116 78 -144 130 -39 72 -47 113 -36 192 7 49 6 85 -3 130 -19 90 -22
242 -5 255 16 13 93 27 277 53 79 11 147 22 149 25 3 3 -30 5 -74 6 -215 3
-285 8 -314 26 -17 10 -29 22 -27 27 2 6 46 32 98 58 51 27 103 57 114 68 19
20 19 20 -10 20 -17 -1 -57 -7 -90 -15 -77 -19 -175 -19 -200 -1 -19 13 -15
20 66 142 47 71 92 140 99 153 14 28 32 41 -170 -123 -90 -73 -110 -86 -142
-86 -23 0 -45 7 -56 18 -9 9 -44 91 -77 182 l-60 165 -3 -178 -2 -178 -35 -15
c-56 -23 -77 -17 -170 47 -62 43 -90 58 -98 50 -8 -8 -5 -19 11 -38 64 -80 93
-132 90 -160 -3 -27 -5 -28 -65 -31 -76 -4 -80 -16 -22 -65 25 -20 39 -39 35
-46 -9 -14 -81 -13 -126 2 -58 20 -76 60 -84 184 -5 67 -20 159 -41 243 -50
198 -72 322 -80 435 -10 167 -24 254 -45 303 -16 36 -20 58 -15 93 6 41 12 51
50 78 31 22 47 43 55 69 20 73 8 174 -23 194 -7 4 -33 8 -59 8 -27 0 -48 4
-48 9 0 5 16 42 35 82 28 60 35 85 34 134 0 86 -17 126 -59 147 -19 9 -37 17
-40 16 -3 0 -14 -3 -25 -5z"/>
        <path d="M26720 7019 l0 -570 23 3 c22 3 22 4 25 196 l2 192 25 0 c25 0 102
-67 315 -277 l115 -113 173 -6 172 -7 0 175 0 175 258 6 c141 4 267 10 279 13
64 17 -16 24 -288 24 l-299 0 0 -170 0 -170 -138 0 -137 0 -194 194 -193 193
192 174 c128 116 187 175 176 177 -22 5 -95 -50 -254 -190 -148 -131 -176
-153 -192 -143 -6 4 -10 97 -10 268 0 144 -3 299 -7 345 -5 71 -8 82 -24 82
-18 0 -19 -22 -19 -571z"/>
        <path d="M22025 7516 c-4 -24 -5 -249 -3 -500 2 -276 -1 -455 -6 -453 -5 2
-110 140 -233 308 -327 443 -469 632 -496 657 l-24 23 -6 -30 c-3 -16 -9 -255
-13 -530 l-7 -501 -314 0 -313 0 0 226 0 226 -502 -7 c-277 -4 -505 -9 -508
-12 -3 -3 -6 -254 -8 -559 l-3 -554 -42 -1 c-312 -5 -658 -17 -663 -22 -4 -4
-4 -10 0 -14 4 -5 176 -10 382 -12 l374 -3 0 566 0 566 458 -2 457 -3 3 -224
2 -224 358 7 c196 4 358 9 359 10 1 1 6 226 9 499 4 273 10 497 14 497 7 0
123 -154 335 -444 205 -279 390 -524 416 -551 l29 -30 0 568 0 567 -24 0 c-22
0 -26 -6 -31 -44z"/>
        <path d="M24444 7523 c8 -16 98 -156 200 -313 l186 -285 0 -237 0 -238 25 0
25 0 0 238 0 238 48 75 c27 41 99 153 162 249 62 96 130 202 152 235 40 60 37
85 -4 49 -12 -11 -96 -134 -189 -274 -92 -140 -174 -264 -182 -275 -16 -22
-15 -22 -259 355 -119 183 -139 210 -165 210 -11 0 -11 -5 1 -27z"/>
        <path d="M22560 7231 c-81 -18 -169 -91 -212 -178 -20 -42 -23 -66 -26 -186
-3 -110 0 -148 14 -190 32 -96 80 -153 168 -200 35 -18 58 -21 151 -22 100 0
115 3 172 29 62 28 102 61 90 73 -4 3 -39 -9 -79 -27 -132 -61 -293 -51 -377
25 -63 58 -110 174 -111 278 l0 47 249 0 c136 0 270 3 296 7 l47 6 -6 65 c-4
36 -16 86 -27 112 -24 56 -90 123 -141 144 -44 19 -159 28 -208 17z m200 -61
c75 -38 123 -113 132 -205 l3 -30 -267 -3 c-171 -1 -268 1 -268 7 0 22 33 107
56 143 65 102 232 145 344 88z"/>
        <path d="M25487 7230 c-56 -14 -88 -34 -137 -82 -55 -54 -89 -129 -102 -221
-21 -149 13 -293 89 -377 66 -74 109 -93 220 -98 116 -5 175 14 249 80 63 58
91 119 106 233 26 204 -50 386 -188 446 -50 23 -181 33 -237 19z m218 -59 c78
-34 131 -106 155 -210 16 -69 8 -230 -16 -296 -79 -223 -424 -235 -520 -19
-80 181 -35 426 94 506 83 51 197 59 287 19z"/>
        <path d="M26306 7228 c-25 -7 -57 -29 -92 -64 -29 -30 -56 -54 -59 -54 -3 0
-5 17 -5 38 0 44 -9 82 -20 82 -4 0 -11 -25 -15 -55 -8 -70 -8 -685 1 -708 3
-10 12 -16 18 -14 8 2 13 87 17 273 6 293 5 287 72 382 20 27 49 52 84 68 50
25 59 26 144 19 74 -5 90 -4 87 7 -10 30 -153 47 -232 26z"/>
        <path d="M23020 7226 c0 -1 32 -95 71 -207 39 -112 90 -260 114 -329 42 -123
62 -176 85 -235 l12 -30 12 35 c7 19 58 163 114 320 111 313 131 365 138 357
5 -5 73 -197 124 -347 53 -159 122 -340 130 -340 10 0 27 43 92 225 50 138
188 545 188 552 0 1 -7 3 -16 3 -21 0 -41 -49 -144 -348 -111 -324 -111 -322
-119 -322 -4 0 -13 15 -19 33 -14 42 -100 285 -164 462 -55 155 -64 175 -78
175 -13 0 -25 -30 -114 -286 -122 -348 -140 -394 -148 -386 -5 5 -37 94 -73
198 -139 412 -164 474 -190 474 -8 0 -15 -2 -15 -4z"/>
        <path d="M27340 132 l-35 -7 -3 -62 c-3 -61 -2 -63 22 -63 23 0 25 4 28 47 l3
48 220 3 c121 1 230 0 243 -3 19 -5 22 -12 22 -51 0 -38 3 -45 18 -42 13 2 18
17 23 58 3 30 2 60 -3 65 -10 11 -482 17 -538 7z"/>
    </g>
</svg>
