<svg width="63" height="72" viewBox="0 0 63 72" fill="none" xmlns="http://www.w3.org/2000/svg">
<path d="M1.40661 69.5923C8.86016 65.5963 14.7584 59.2935 18.7547 51.8661C24.7317 40.7577 28.7086 28.6258 31.3882 16.3355C32.2166 12.5355 32.8208 8.01418 32.8208 4.10958C32.8208 3.00603 32.8208 6.31667 32.8208 7.42021C32.8208 9.68222 32.3231 11.9579 32.3519 14.3282C32.4509 22.4522 34.216 30.8038 35.3996 38.8321C36.8081 48.3859 42.5309 76.7404 39.8799 67.4548C37.2427 58.2177 26.6159 51.8671 19.9269 45.688C16.2401 42.2822 7.98077 38.1543 2.81322 38.1543C-2.00206 38.1543 4.09666 36.7467 5.88691 36.7467C12.0863 36.7467 17.4984 37.7005 23.5476 38.9885C30.0219 40.3671 35.9207 40.9697 42.5629 40.9697C48.4721 40.9697 57.3995 37.1505 60.5882 31.9502C62.3582 29.0635 61.8907 25.9607 61.8907 22.67C61.8907 19.7722 62.4722 16.2442 60.9529 13.6505C58.6124 9.65481 55.7979 5.47009 52.0444 2.59763C49.9165 0.969172 45.7657 -0.168129 44.6467 3.06686C41.5734 11.952 41.1029 21.3444 40.4269 30.6468C39.8309 38.8476 40.0241 47.4447 41.7293 55.4896C42.4394 58.8396 43.2724 62.1461 44.0737 65.4736C44.5133 67.2994 45.4803 69.1072 45.4803 71" stroke="#232C27" stroke-width="2" stroke-linecap="round" stroke-linejoin="round"/>
</svg>
