<?xml version="1.0" encoding="UTF-8"?><svg xmlns="http://www.w3.org/2000/svg" xmlns:xlink="http://www.w3.org/1999/xlink" viewBox="0 0 1176.58 2172.76"><defs><style>.cls-1,.cls-2{fill:none;}.cls-3{fill:url(#radial-gradient-6);}.cls-3,.cls-4,.cls-5,.cls-6,.cls-7,.cls-8,.cls-9,.cls-10,.cls-11,.cls-12,.cls-13,.cls-14,.cls-15,.cls-16,.cls-17,.cls-18,.cls-19,.cls-20,.cls-21,.cls-22,.cls-23,.cls-24,.cls-25,.cls-26,.cls-27,.cls-28,.cls-29,.cls-30{mix-blend-mode:multiply;}.cls-4{fill:url(#radial-gradient-7);}.cls-5{fill:url(#radial-gradient-9);}.cls-6{fill:url(#radial-gradient-8);}.cls-31,.cls-32,.cls-33,.cls-34,.cls-35,.cls-36,.cls-37,.cls-38,.cls-39,.cls-2{clip-rule:evenodd;}.cls-31,.cls-40{fill:#f7e6e1;}.cls-32,.cls-41{fill:#cb775d;}.cls-33,.cls-42{fill:#beafbf;}.cls-34,.cls-43{fill:#ffc4af;}.cls-35,.cls-44{fill:#ffc4b3;}.cls-36,.cls-45{fill:#fff3fa;}.cls-37,.cls-46{fill:#4d3c47;}.cls-38,.cls-47{fill:#836361;}.cls-48{clip-path:url(#clippath);}.cls-49,.cls-50,.cls-51,.cls-7,.cls-8,.cls-9,.cls-10,.cls-11,.cls-12,.cls-13,.cls-14,.cls-15,.cls-16,.cls-17,.cls-18,.cls-19,.cls-20,.cls-21,.cls-22,.cls-23,.cls-24,.cls-25,.cls-52,.cls-53,.cls-54,.cls-55,.cls-56,.cls-57,.cls-58,.cls-40,.cls-59,.cls-60,.cls-61,.cls-46,.cls-62,.cls-63,.cls-64,.cls-65,.cls-47,.cls-66,.cls-67,.cls-68,.cls-69,.cls-70,.cls-41,.cls-71,.cls-42,.cls-72,.cls-73,.cls-74,.cls-75,.cls-76,.cls-45,.cls-77,.cls-44,.cls-43,.cls-78,.cls-79,.cls-80{fill-rule:evenodd;}.cls-49,.cls-39{fill:url(#linear-gradient);}.cls-50{fill:#7ac6c2;}.cls-50,.cls-51,.cls-81,.cls-52,.cls-53,.cls-54,.cls-55,.cls-56,.cls-82,.cls-83,.cls-78,.cls-79{mix-blend-mode:screen;}.cls-50,.cls-51,.cls-30{opacity:.5;}.cls-51{fill:#7dabd8;}.cls-84,.cls-59{fill:#2e2b2e;}.cls-7{fill:#a17993;}.cls-8,.cls-75{fill:#b88a9e;}.cls-9{fill:#e3b8b8;}.cls-10{fill:#e6dee5;}.cls-11{fill:#e7d2da;}.cls-12{fill:#eacad0;}.cls-13{fill:#f5ddee;}.cls-14{fill:#e4d5e7;}.cls-15{fill:#eed3e5;}.cls-16,.cls-54,.cls-66{fill:#a37f97;}.cls-17{fill:#d5bbbc;}.cls-18{fill:#d3b4c0;}.cls-19{fill:#dec9d0;}.cls-20,.cls-80{fill:#c9bace;}.cls-21{fill:#d4c5df;}.cls-22{fill:#cfc5d3;}.cls-23{fill:#cbc2cc;}.cls-24{fill:#fadadd;}.cls-25{fill:#f2ecf7;}.cls-81{fill:url(#radial-gradient-12);}.cls-85{fill:url(#radial-gradient-2);}.cls-85,.cls-86,.cls-87,.cls-88,.cls-57,.cls-89,.cls-90{mix-blend-mode:soft-light;}.cls-86{fill:url(#radial-gradient-5);}.cls-87{fill:url(#radial-gradient-3);}.cls-88{fill:url(#radial-gradient-4);}.cls-91{clip-path:url(#clippath-1);}.cls-92{clip-path:url(#clippath-4);}.cls-93{clip-path:url(#clippath-3);}.cls-94{clip-path:url(#clippath-2);}.cls-95{clip-path:url(#clippath-7);}.cls-96{clip-path:url(#clippath-8);}.cls-97{clip-path:url(#clippath-6);}.cls-98{clip-path:url(#clippath-5);}.cls-99{clip-path:url(#clippath-9);}.cls-100{clip-path:url(#clippath-20);}.cls-101{clip-path:url(#clippath-14);}.cls-102{clip-path:url(#clippath-13);}.cls-103{clip-path:url(#clippath-12);}.cls-104{clip-path:url(#clippath-10);}.cls-105{clip-path:url(#clippath-15);}.cls-106{clip-path:url(#clippath-17);}.cls-107{clip-path:url(#clippath-16);}.cls-108{clip-path:url(#clippath-19);}.cls-109{clip-path:url(#clippath-11);}.cls-110{clip-path:url(#clippath-18);}.cls-52{fill:#927988;}.cls-53{fill:#707479;}.cls-55{fill:#555d64;}.cls-56{fill:#5f2626;}.cls-57{fill:#d8917d;}.cls-27{fill:url(#radial-gradient-13);}.cls-28{fill:url(#radial-gradient-11);}.cls-29{fill:url(#radial-gradient-10);}.cls-111{opacity:.6;}.cls-83{opacity:.41;}.cls-58{fill:#f7e7f4;}.cls-60{fill:#481b29;}.cls-61{fill:#291e2e;}.cls-62{fill:#613836;}.cls-63{fill:#614644;}.cls-64{fill:#51232a;}.cls-65{fill:#785451;}.cls-67{fill:#451719;}.cls-68{fill:#e27563;}.cls-69{fill:#d6c3d1;}.cls-70{fill:#dbcbd5;}.cls-71{fill:#cdb5c3;}.cls-72{fill:#d7b9d0;}.cls-73{fill:#7dcbd8;}.cls-74{fill:#685862;}.cls-76{fill:#b4d3d8;}.cls-77{fill:#e6d3e0;}.cls-112{isolation:isolate;}.cls-89{fill:url(#radial-gradient);}.cls-78{fill:url(#linear-gradient-2);}.cls-78,.cls-79{opacity:.4;}.cls-79{fill:url(#linear-gradient-3);}.cls-30{fill:url(#radial-gradient-14);}.cls-90{opacity:.8;}.cls-80{mix-blend-mode:color-burn;}</style><clipPath id="clippath"><path class="cls-2" d="m738.04,245.44c.84-5.19-60.14-62.61-12.54-147.91C773.55,11.4,840.54.32,853.35,1c12.82.69,31.34,13.79,31.34,13.79,0,0,37.68-2.46,57.65,36.35,19.97,38.82,60.64,189.15,91.51,243.18,30.87,54.03,64.46,87.9,85.25,162.95,20.78,75.05,12.53,259.47,12.53,259.47,0,0-273.13-18.93-334.46-26.35-55.27-6.68-76.49-18.58-76.68-18.77,0,0-.82-132.55,11.28-178,45.67-171.52,6.27-248.18,6.27-248.18Z"/></clipPath><radialGradient id="radial-gradient" cx="278.5" cy="-544.26" fx="278.5" fy="-544.26" r="493.9" gradientTransform="translate(563.09 99.67) rotate(38.71) scale(.23)" gradientUnits="userSpaceOnUse"><stop offset="0" stop-color="#fff"/><stop offset=".3" stop-color="#ddd"/><stop offset=".95" stop-color="#878787"/><stop offset="1" stop-color="gray"/></radialGradient><radialGradient id="radial-gradient-2" cx="332.15" cy="-1082.25" fx="332.15" fy="-1082.25" r="493.9" xlink:href="#radial-gradient"/><radialGradient id="radial-gradient-3" cx="3365.25" cy="64.77" fx="3365.25" fy="64.77" r="821.71" gradientTransform="translate(692.36 285.85) rotate(-21.33) scale(.11 .39) skewX(-.02)" gradientUnits="userSpaceOnUse"><stop offset=".56" stop-color="#fff"/><stop offset=".69" stop-color="#ddd"/><stop offset=".98" stop-color="#878787"/><stop offset="1" stop-color="gray"/></radialGradient><radialGradient id="radial-gradient-4" cx="3449.78" cy="357.58" fx="3449.78" fy="357.58" r="821.71" xlink:href="#radial-gradient-3"/><radialGradient id="radial-gradient-5" cx="3505.23" cy="-219.54" fx="3505.23" fy="-219.54" r="821.69" xlink:href="#radial-gradient-3"/><clipPath id="clippath-1"><path class="cls-34" d="m528.7,912.29s-104.11-12.88-127.65,37.96c-23.83,51.45-29.65,84.29-75.41,181.4-45.82,97.23-89.28,200.92-112.81,264.49-23.78,64.24-66.72,108.14-37.29,123.41,24.31,12.62,97.08,1.32,103.72-48.2,8.36-62.38,43.35-102.11,85.24-149.17,107.34-120.6,129.91-184.87,135.38-221.87,5.47-36.99,28.82-188.02,28.82-188.02Z"/></clipPath><radialGradient id="radial-gradient-6" cx="-773.33" cy="4215.9" fx="-773.33" fy="4215.9" r="1135.28" gradientTransform="translate(552.32 216.98) scale(.23)" gradientUnits="userSpaceOnUse"><stop offset="0" stop-color="#f2bbd1"/><stop offset=".25" stop-color="#f2bed3"/><stop offset=".49" stop-color="#f4cadb"/><stop offset=".72" stop-color="#f8dde8"/><stop offset=".95" stop-color="#fdf7f9"/><stop offset="1" stop-color="#fff"/></radialGradient><clipPath id="clippath-2"><path class="cls-38" d="m1044.48,1715.08l-201.65,30.22c-10.23,1.53-18.55,11.2-18.61,21.58-.04,10.39,8.2,17.56,18.43,16.03l201.65-30.22c10.23-1.54,18.56-11.2,18.61-21.58.04-10.38-8.2-17.56-18.43-16.03Z"/></clipPath><clipPath id="clippath-3"><path class="cls-38" d="m825.33,1746.75l-183.79-16.31c-8.85-.79-16.89,7.57-18.01,18.58-1.12,10.96,5.05,20.5,13.78,21.38l181.59,18.17c9.7.96,19.09-7.56,20.92-19.13,1.85-11.63-4.66-21.82-14.49-22.69Z"/></clipPath><clipPath id="clippath-4"><path class="cls-2" d="m963.66,1206.86s-189.46,17.86-260.73,23.82c-71.27,5.96-110.31,3.76-110.31,3.76,0,0,16.24,62.28,5.01,164.21-11.22,101.92-15.78,174.24-15.04,208.07.74,33.85,14.24,103.42,20.06,126.61,5.82,23.19-51.28,116.41-73.95,72.7-22.68-43.71-61.81-307.69-78.97-387.33-17.17-79.64-44.48-299.15-16.88-319.96,27.6-20.8,71.58-39.88,128.44-36.04,56.84,3.85,402.37,144.15,402.37,144.15Z"/></clipPath><radialGradient id="radial-gradient-7" cx="-134.05" cy="5101.82" fx="-134.05" fy="5101.82" r="1135.27" xlink:href="#radial-gradient-6"/><clipPath id="clippath-5"><path class="cls-36" d="m499.88,1767.17s-22.67-37.79-17.56-43.87c5.13-6.08,5.13,7.57,21.31,7.52,16.18-.04,32.69-13.99,33.85-6.26,1.16,7.73,10.03,40.11,10.03,40.11,0,0,3.32-11.51,13.79-12.53,10.46-1.03,37.39,4.59,36.35-20.06-1.05-24.65-2.5-32.6-2.5-32.6l-5.01-30.08s14.25.03,16.29,11.28c2.05,11.26-4.09,26.4,6.27,35.1,10.35,8.69,24.81,25.41,43.87,42.61,19.06,17.21,25.07,28.83,25.07,28.83,0,0,1.25,32.37-20.05,53.91-21.31,21.53-62.41,50.71-68.95,63.93-6.53,13.21-5.79,47.95-53.08,75.52-45.85,26.74-82.89,37.27-100.73,30.43-17.83-6.84-28.31-31.65-28.31-31.65,0,0,1.88-35.1,26.19-64.52,24-29.03,39.62-51.86,44.57-62.09,3.97-8.19,18.61-85.58,18.61-85.58Z"/></clipPath><clipPath id="clippath-6"><path class="cls-36" d="m103.86,1589.19s19.84-40.1,32.62-65.11c12.79-25.02,28.87-46.33,28.87-46.33,0,0-8.02-50.4-3.76-52.59,4.25-2.2,11.29-1.25,11.29-1.25,0,0-6.65,1.27,3.77,8.76,10.42,7.5,36.9,4.74,38.9,8.76,2.02,4.03-2.5,52.59-2.5,52.59,0,0,.21,13.16,5.02,8.76,4.81-4.39,7.5-4.06,20.08-1.25,12.57,2.82,31.84-18.42,37.34-26.43,5.51-8.02,6.27-21.31,6.27-21.31,0,0,11.29.38,10.36,8.93-.94,8.55-9.25,24.88-3.77,37.55,5.49,12.67,14.41,23.08,27.26,48.78,13.87,27.71,6.27,52.65,6.27,52.65,0,0-49.47,25.5-69.92,32.56-20.46,7.05-60.8,55.67-90.36,65.11-29.57,9.44-132.19,27.09-151.86-2.5-19.68-29.6,0-37.57,0-37.57,0,0,27.51-25,41.42-35.06,13.9-10.05,52.71-35.06,52.71-35.06Z"/></clipPath><clipPath id="clippath-7"><path class="cls-37" d="m607.67,784.43s33.95-16.07,46.38-21.31c15.4-6.5,26.32-12.54,26.32-12.54,0,0,21.26-208.73,23.82-241.92,2.55-33.19,2.3-99.23,43.87-119.09,41.57-19.84,87.6-38.63,117.83-42.61,30.23-3.98,61.4-70.12,132.87-28.83,71.47,41.29,149.8,70.94,159.19,135.38,9.4,64.43,18.64,319.06,17.55,343.46-1.09,24.39.65,52.6-31.33,51.39-31.99-1.21-54.73-37.73-58.92-63.93-4.19-26.2-25.07-115.32-25.07-115.32,0,0-21.07,66.69-17.55,83.98,5.61,27.5-18.8,41.37-18.8,41.37,0,0-1.17.64-77.72,12.53-78.48,12.19-144.15-11.28-144.15-11.28,0,0-19.95,4.48-17.54-33.85,1.12-17.74-12.54-40.11-12.54-40.11,0,0-1.41,95.22-28.83,110.31-27.41,15.08-134.24,37.64-154.18,32.58-19.94-5.05,18.8-80.22,18.8-80.22Z"/></clipPath><clipPath id="clippath-8"><path class="cls-32" d="m794.44,288.05s2.96,80.02-8.78,117.83c-18.58,59.86-31.95,77.63-42.08,122.14-10.14,44.51-13.37,58.8-5.54,77.16,7.83,18.36,27.57,42.62,27.57,42.62,0,0,1.92-46.87,12.53-105.29,10.38-57.07,28.8-62.08,39.17-167.49,5.81-59.05-2.82-100.76-2.82-100.76l-20.05,13.79Z"/></clipPath><radialGradient id="radial-gradient-8" cx="1317.95" cy="292.06" fx="1317.95" fy="292.06" r="929.26" gradientTransform="translate(552.32 216.98) scale(.23)" gradientUnits="userSpaceOnUse"><stop offset="0" stop-color="#c99fa1"/><stop offset=".38" stop-color="#dcc0c2"/><stop offset="1" stop-color="#fff"/></radialGradient><clipPath id="clippath-9"><path class="cls-34" d="m824.52,331.93s15.92-9.93,26.33,13.79c11.09,25.3,11.65,39.02,22.56,40.11,32.18,3.2,101.61-60.98,96.52-82.74-5.09-21.74-21.93-55.76-31.34-71.44-7.61-12.68-25.07,5.01-25.07,5.01l-89,95.27Z"/></clipPath><radialGradient id="radial-gradient-9" cx="1662.49" cy="-18.93" fx="1662.49" fy="-18.93" r="929.26" gradientTransform="translate(552.32 216.98) scale(.23)" gradientUnits="userSpaceOnUse"><stop offset="0" stop-color="#e1a2a5"/><stop offset=".18" stop-color="#e4abae"/><stop offset=".49" stop-color="#ecc5c7"/><stop offset=".87" stop-color="#faeff0"/><stop offset="1" stop-color="#fff"/></radialGradient><clipPath id="clippath-10"><path class="cls-31" d="m850.85,339.44s5.53,12.08,10.03,20.06c4.5,7.96,10.03,12.53,10.03,12.53,0,0,40.01-19.13,57.65-46.38,22-33.95,18.81-80.22,18.81-80.22,0,0,10.07,7.32,13.78,25.06,9.21,43.93,23.51,36.9,23.82,52.65.31,15.75-31.31,103.56-61.42,106.55-31.69,3.14-47.27-35.94-52.64-40.12-5.38-4.16-39.43,41.89-47.63,30.09-8.79-12.64-4.55-20.59,1.25-38.86,5.81-18.27,11.28-36.35,11.28-36.35l15.05-5.02Z"/></clipPath><clipPath id="clippath-11"><path class="cls-2" d="m1028.84,769.4s123.37,239.19,124.1,308.36c.73,69.16-27.37,137.41-42.62,147.91-15.25,10.5-124.97,22.21-154.17,12.53-314.32-104.18-663.99-377.71-236.91-314.62,45.96,6.78,67.14-4.46,75.98-23.09,17.58-37.03-13.59-103.22,4.23-114.8,26.79-17.41,229.38-16.29,229.38-16.29Z"/></clipPath><clipPath id="clippath-12"><path class="cls-34" d="m889.61,829.88s47.54,3.46,82.82-11.6c35.29-15.06,62.87-54.64,112.82-58.92,22.85-1.96,79.66,12.7,85.24,32.59,7.51,26.73,1.17,48.63-11.29,53.9-25.04,10.6-95.37,28.63-148.23,36.98-55.23,8.73-92.63,7.4-92.63,7.4,0,0-42.35,13.57-53.81,4.62-11.48-8.95-24.62-39.67-39.19-38.63-14.58,1.06-22.03,11.21-24.58,13.52-2.56,2.31-14.84,18.99-18.12,18.27-3.28-.7-4.26-5.22-3.05-13.68,1.21-8.45,8.05-14.66,11.85-18.02,3.76-3.33,7.33-5.31,7.33-5.31,0,0-12.01-.91-23.14,9.89-5.26,5.11-24.97,9.1-30.43,1-5.46-8.09-1.47-15.09,2.66-30.57,3.09-11.62,6.51-18.3,11.48-21.82,11.18-7.89,37.6-18.8,37.6-18.8,0,0-19.41-5.54-27.57-2.51-13.55,5.03-35.68,27.33-30.4,26.29-4.94.97-8.47-6.76-3.81-18.21,4.67-11.45,20.97-30.45,34.22-29.39,13.23,1.07,30.31.43,45.5,14.48,15.2,14.05,74.74,48.51,74.74,48.51Z"/></clipPath><clipPath id="clippath-13"><path class="cls-32" d="m944.86,207.83s9-4.56,10.03,70.19c1.04,74.76,13.8,90.79,0,162.96-13.8,72.17-42.94,155.42-43.87,180.5-.92,25.07-5.01,42.61-5.01,42.61,0,0,61.22-36.41,76.46-71.45,15.23-35.04,41.09-202.31,30.08-248.19-12.97-54.07-53.9-154.19-53.9-154.19l-13.79,17.56Z"/></clipPath><radialGradient id="radial-gradient-10" cx="1747.04" cy="-29.77" fx="1747.04" fy="-29.77" r="929.26" xlink:href="#radial-gradient-8"/><radialGradient id="radial-gradient-11" cx="1788.11" cy="2039.73" fx="1788.11" fy="2039.73" r="929.27" gradientTransform="translate(552.32 216.98) scale(.23)" gradientUnits="userSpaceOnUse"><stop offset="0" stop-color="#cfaeb0"/><stop offset=".45" stop-color="#e3cfd1"/><stop offset="1" stop-color="#fff"/></radialGradient><clipPath id="clippath-14"><path class="cls-2" d="m768.12,125.1s6.17,23.07,67.69,45.13c30.19,10.82,51.15,12.05,70.2,17.54.94.27,9.61,41.59,11.28,41.37,11.84-1.55,11.28-51.4,11.28-51.4,0,0,.31-3.72,6.27-16.29,5.97-12.58,24.12-9.87,27.58,20.05,3.81,33.05-23.82,38.86-23.82,38.86,0,0,.5,9.27-2.51,23.82-2.98,14.41-17.32,43.41-47.93,73.25-29.3,28.54-51.47,35.79-64.88,34.55-13.41-1.23-16.12-6.01-46.37-41.36-30.27-35.35-28.79-52.18-30.09-56.41-1.3-4.24-4.65-10.25-7.52-21.31-2.88-11.06-6.87-15.03.99-46.91,7.58-30.74,27.84-61.88,27.83-62.15v1.25Z"/></clipPath><radialGradient id="radial-gradient-12" cx="794.8" cy="-215.47" fx="794.8" fy="-215.47" r="1107.35" gradientTransform="translate(552.32 216.98) scale(.23)" gradientUnits="userSpaceOnUse"><stop offset=".52" stop-color="#000"/><stop offset=".58" stop-color="#020304"/><stop offset=".65" stop-color="#0b0e10"/><stop offset=".71" stop-color="#1a2125"/><stop offset=".78" stop-color="#2f3b42"/><stop offset=".84" stop-color="#4a5c67"/><stop offset=".91" stop-color="#6b8595"/><stop offset=".97" stop-color="#91b5ca"/><stop offset="1" stop-color="#a2cae1"/></radialGradient><radialGradient id="radial-gradient-13" cx="1121.3" cy="-886.07" fx="1121.3" fy="-886.07" r="929.26" xlink:href="#radial-gradient-9"/><clipPath id="clippath-15"><path class="cls-33" d="m356.97,900.99s7.98,25.71,34.66,24.81c26.68-.9,364.26,9.84,409.24,7.45,44.98-2.39,66.56-.12,73.32-8.68,6.76-8.57,8-19.85,8-19.85,0,0-180.9-17.81-197.29-16.13-16.38,1.67-327.92,12.4-327.92,12.4Z"/></clipPath><clipPath id="clippath-16"><path class="cls-2" d="m341.93,903.52h441.23l-83.96-341.14-510.49,38.08,153.21,303.06Z"/></clipPath><linearGradient id="linear-gradient" x1="383.6" y1="1066.01" x2="572.81" y2="655.97" gradientUnits="userSpaceOnUse"><stop offset="0" stop-color="#ad94ab"/><stop offset="1" stop-color="#cbc0cc"/></linearGradient><clipPath id="clippath-17"><path class="cls-39" d="m270.85,649.07h385.82c9.45,0,20.16,7.94,23.91,17.72l88.21,230.39c3.76,9.79-.88,17.72-10.33,17.72h-385.81c-9.46,0-20.16-7.93-23.91-17.72l-88.21-230.39c-3.74-9.78.88-17.72,10.33-17.72Z"/></clipPath><linearGradient id="linear-gradient-2" x1="290.28" y1="775.03" x2="649.04" y2="775.03" gradientUnits="userSpaceOnUse"><stop offset="0" stop-color="#fff"/><stop offset="1" stop-color="#000"/></linearGradient><linearGradient id="linear-gradient-3" x1="382.54" y1="772.53" x2="679.12" y2="772.53" xlink:href="#linear-gradient-2"/><clipPath id="clippath-18"><path class="cls-35" d="m541.23,1081.51s-25.98-64.41-31.33-95.27c-5.35-30.85-3.65-82.98-37.61-82.72-12.23.09-67.29.73-104.04,102.78-35.04,97.31-116.53,285.94-119.07,292.07-2.55,6.12,70.87,59.84,125.34,63.93,35.44,2.66,48.89-5.02,48.89-5.02,0,0,5.5-231.47,10.02-248.18,14.37-53.06,107.8-27.58,107.8-27.58Z"/></clipPath><clipPath id="clippath-19"><path class="cls-2" d="m632.74,1050.17s-215.92-7.07-219.36,68.95c-3.45,76.02,32.8,426.22,32.8,426.22,0,0,84.61,29.84,134,18.8,49.39-11.03,111.47-53.9,111.47-53.9,0,0-64.79-208.42-70.2-230.68-5.4-22.25-12.54-38.86-12.54-38.86.12.31,119.25-4.05,172.99-3.76,113.08.61,205.57,2.52,205.57,2.52,0,0-35.94-147.06-77.72-174.24-41.79-27.18-277.02-15.05-277.02-15.05Z"/></clipPath><radialGradient id="radial-gradient-14" cx="1031.25" cy="3698.7" fx="1031.25" fy="3698.7" r="968.57" gradientTransform="translate(456.06 213.78) rotate(-.09) scale(.39 .23)" gradientUnits="userSpaceOnUse"><stop offset="0" stop-color="#a6638e"/><stop offset="1" stop-color="#fff"/></radialGradient><clipPath id="clippath-20"><path class="cls-1" d="m451.61,2014.01c-5.1,0-9.52-.7-13.14-2.09-18.01-6.91-28.42-31.16-28.86-32.18-.06-.79,2.1-36.19,26.34-65.52,25.78-31.18,40.06-52.83,44.44-61.89,3.73-7.7,17.36-79.2,18.45-84.97-4.24-7.09-22.49-38.49-17.28-44.68,1.1-1.3,2.1-1.91,3.17-1.91,1.48,0,2.62,1.16,4.07,2.62,2.53,2.57,6.35,6.45,14.73,6.45.92,0,1.83-.05,2.81-.14-10.73-49.79-22.09-113.72-32.81-175.04-16.35-4.43-27.56-8.37-27.67-8.41l-.58-.21-.06-.61c-.12-1.11-11.02-106.61-20.2-213.19-.4,15.44-.63,25.05-.63,25.05v.55s-.49.27-.49.27c-.41.23-10.28,5.71-35.08,5.71-4.55,0-9.39-.19-14.37-.56-11.01-.83-23.44-3.71-36.95-8.57-22.36,26.89-44.28,57.43-53.88,98.32,2.2.34,5.77,1.29,7.87,3.87,1.32,1.62,1.86,3.62,1.6,5.94-.28,2.54-1.16,5.64-2.17,9.22-2.42,8.53-5.43,19.15-1.68,27.85,2.55,5.9,5.85,11.28,10.01,18.09,4.63,7.57,10.4,17,17.22,30.64,13.88,27.74,6.41,53.11,6.33,53.37l-.12.39-.37.19c-.5.26-49.76,25.62-70.05,32.62-8.99,3.1-22.32,14.75-36.42,27.09-17.56,15.36-37.46,32.76-53.96,38.03-17.61,5.62-60.37,13.94-96.22,13.94-30.23,0-49.33-5.66-56.75-16.83-7.74-11.64-10.46-21.43-8.09-29.11,2.07-6.7,7.33-9.36,8.37-9.83,1.99-1.81,28.05-25.38,41.38-35.02,13.21-9.55,49.31-32.87,52.53-34.94,1.67-3.38,20.39-41.15,32.51-64.88,11.81-23.11,26.62-43.32,28.71-46.14-2.47-15.58-7.55-50.95-3.18-53.2,2.5-1.29,5.84-1.56,8.19-1.56,2.08,0,3.61.2,3.67.21l.05,1.93c-.29.06-1.16.36-1.28.93-.09.44.02,2.18,5.43,6.08,4.18,3.01,11.19,4.24,16.36,4.89,8-15.71,13.66-28.37,18.33-40.97,9.75-26.34,22.68-58.94,37.41-94.33-1.08-1.5-1.41-2.62-1.04-3.49.25-.6,1.29-3.03,2.98-6.99,55.3-129.16,95.43-227.72,116.07-285.02,15.64-43.42,36.34-73.7,61.57-90.08h-56.26c-9.81,0-20.94-8.23-24.82-18.35l-88.21-230.39c-2.03-5.31-1.77-10.44.73-14.06,2.21-3.21,5.95-4.98,10.52-4.98h385.82c9.81,0,20.94,8.23,24.82,18.35l5.08,13.27c5.71-56.69,15.03-150.04,16.65-171.12.25-3.24.47-6.8.71-10.6,2.27-36.29,5.69-91.13,43.72-109.29l2.94-1.39c3.51-36.29,2.96-69.35-1.64-98.29-12.96-5.99-23.53-17.17-27.65-29.3-3.09-9.13-2.23-17.73,2.42-24.22,1.18-1.65,2.59-3.13,4.2-4.4-27.63-43.32-28.73-88.41-3.26-134.05C769.06,17.44,831.77,0,852.19,0c.45,0,.85.01,1.22.03,12.24.66,29.12,12.07,31.57,13.77.24,0,.6-.02,1.06-.02,6.38,0,39.09,1.78,57.17,36.91,8.52,16.57,20.52,52.51,34.4,94.13,18.46,55.33,39.38,118.04,57.08,149.02,8.81,15.41,17.92,29.32,26.74,42.76,5.02,7.66,10.21,15.58,15.19,23.54,39.05,22.94,76.01,50.12,82.29,93.22,9.21,63.13,18.75,316.81,17.56,343.64-.08,1.89-.15,3.8-.22,5.71-.11,3.03-.22,6.16-.39,9.21.54,17.8-5.51,31.62-15.79,35.97-23.75,10.05-93.89,28.47-148.75,37.13-42.84,6.77-75.21,7.5-87.14,7.5-3.32,0-6.65.39-8.34.62-.61.08-1.95.48-3.66.97-3.72,1.08-9.95,2.89-17.93,4.3-.03,0-.21.03-.46.03-.89,0-1.58-.33-1.95-.91-5.41.87-10.19,1.32-14.23,1.32-6.31,0-10.91-1.09-13.68-3.25-4.31-3.36-8.74-9.56-13.43-16.12-7.48-10.46-15.96-22.32-24.43-22.32-.22,0-.44,0-.66.02-12.17.89-19.2,8.29-22.59,11.84-.57.6-1.04,1.09-1.41,1.43-.69.62-2.27,2.53-4.11,4.74-6.5,7.82-11.69,13.81-14.45,13.81-.15,0-.29-.01-.43-.04-3.87-.83-5.11-5.66-3.8-14.77,1.29-8.98,8.64-15.49,12.17-18.62,1.57-1.39,3.09-2.54,4.36-3.43-4.3.55-11.74,2.54-18.84,9.43-3.21,3.12-10.87,5.6-17.86,5.87l11.24,29.37c2.04,5.31,1.78,10.43-.72,14.06-2.21,3.22-5.95,4.99-10.53,4.99h-121.17c17.51,2.52,36,5.26,55.34,8.14,7.93,1.18,16.01,2.38,24.25,3.6,24.29,3.59,76.68,32.24,127.35,59.95,52.05,28.47,105.88,57.9,127.18,58.92,5.36.26,10.47.39,15.18.39,47.02,0,53.43-12.87,59.08-24.23,2.82-5.66,5.48-11,12.39-14.59,5.47-2.84,13.2-4.4,21.79-4.4,25.58,0,69.96,15.59,74.07,74.02,4.9,69.54-27.89,138.35-43.04,148.78-11.29,7.78-73.16,16.32-118.21,16.32-15.11,0-26.59-.97-34.13-2.88-33.41-.56-100.67-1.57-176.63-1.98-1.72,0-3.5-.01-5.35-.01-39.28,0-106.36,2.02-142.4,3.1-12.06.36-20.52.62-23.78.67,1.8,4.43,7.54,19.19,12.02,37.65,5.33,21.97,69.53,228.53,70.18,230.62l.21.68-.59.41c-.59.41-59.46,40.81-107.74,53.07-.83,17.56-1.13,31.89-.9,42.58.3,13.71,2.88,35.62,7.2,61.75,2.92.18,14.69,1.58,16.6,12.05.7,3.84.47,8.14.25,12.3-.43,8.22-.88,16.72,5.69,22.23,4.99,4.19,10.93,10.23,17.8,17.23,7.58,7.71,16.17,16.45,26.09,25.41,18.98,17.13,25.03,28.63,25.28,29.11.12.74,1.13,33.45-20.22,55.04-8.71,8.8-20.69,18.86-32.28,28.58-16.82,14.11-32.7,27.44-36.49,35.09-1.33,2.7-2.39,6.43-3.6,10.76-4.55,16.16-12.18,43.2-49.85,65.17-36.03,21.02-67.44,32.59-88.44,32.59Z"/></clipPath></defs><g class="cls-112"><g id="Layer_2"><g id="Layer_1-2"><g><path class="cls-41" d="m738.04,245.44c.84-5.19-60.14-62.61-12.54-147.91C773.55,11.4,840.54.32,853.35,1c12.82.69,31.34,13.79,31.34,13.79,0,0,37.68-2.46,57.65,36.35,19.97,38.82,60.64,189.15,91.51,243.18,30.87,54.03,64.46,87.9,85.25,162.95,20.78,75.05,12.53,259.47,12.53,259.47,0,0-273.13-18.93-334.46-26.35-55.27-6.68-76.49-18.58-76.68-18.77,0,0-.82-132.55,11.28-178,45.67-171.52,6.27-248.18,6.27-248.18Z"/><g class="cls-48"><g><path class="cls-19" d="m933.58,172.73s-2.8-28.3-3.77-32.6c-.95-4.29-13.78-46.37-13.78-46.37,0,0,13.83,19.67,18.8,36.35,4.97,16.68,6.27,30.08,6.27,30.08l5.01-23.82,2.51,31.34-15.04,5.02Z"/><path class="cls-19" d="m859.62,41.12s63.71,9.94,94.01,100.28c30.3,90.33,66.95,155.43,83.99,190.53,17.02,35.09,36.34,58.91,36.34,58.91,0,0-38.72-66.52-75.21-147.91-35.27-78.67-68.1-172.14-81.48-181.76-27.21-19.57-57.66-20.05-57.66-20.05Z"/><path class="cls-19" d="m864.63,31.09s46.02-2.75,62.68,16.3c16.65,19.05,42.72,92.49,57.65,125.35,14.93,32.86,43.87,88.99,43.87,88.99l-55.15-119.08s-32.01-97.01-57.66-109.05c-27.57-12.95-51.4-2.51-51.4-2.51Z"/><path class="cls-19" d="m815.75,64.93s16.82-5.69,41.36,11.28c37.5,25.95,69.27,88.12,66.43,83.99-1.19-1.74-43.64-61.05-62.8-76.06-14.43-11.3-44.99-19.21-44.99-19.21Z"/><path class="cls-19" d="m934.83,171.48s-30.27,2.47-65.18-15.05c-34.92-17.52-71.46-42.62-71.46-42.62,0,0,29.25,25.63,41.37,33.85,12.13,8.21,36.78,19.95,46.37,22.56,9.61,2.61,25.07,6.26,25.07,6.26,0,0-79-4.72-100.28-32.59-21.27-27.87-30.95-43.83-30.09-41.37.88,2.47,12.54,50.14,12.54,50.14l68.95,36.35h58.91l16.3-21.31-2.51,3.76Z"/></g><path class="cls-19" d="m781.91,105.04c-.47-1.97,16.45-30.24,46.37-52.65,30.17-22.58,56.41-38.86,56.41-38.86l-13.79-17.55s2.91,17.76-6.27,25.07c-9.17,7.31-73.89,52.38-81.47,65.18-7.59,12.8-15.23,27.33-15.92,38.03-1,15.68-3.34,7.97.87,3.33l13.8-22.56Z"/><path class="cls-56" d="m720.49,96.27s16.86-34.69,51.39-41.37c34.53-6.68,46.37,1.26,46.37,1.26,0,0-45.44,4.55-63.93,13.79-18.47,9.24-33.84,26.32-33.84,26.32Z"/><path class="cls-19" d="m849.6,21.06s-23.96-24.34-55.16-1.25c-31.19,23.07-46.38,37.61-46.38,37.61,0,0,43.3-41.78,68.94-40.12,25.65,1.66,32.6,3.76,32.6,3.76Z"/><path class="cls-19" d="m834.55,32.35s-25.6-12.02-57.65-1.26c-89.98,30.19-82.74,147.91-82.74,147.91,0,0,9.76-118.35,68.95-135.38,59.19-17.03,71.44-11.28,71.44-11.28Z"/><path class="cls-19" d="m781.91,91.26s-51.74-13.26-71.45,30.08c-19.71,43.34,6.27,124.1,6.27,124.1-.86-.26-23.29-112.78,2.91-132.69,24.18-18.39,62.28-21.49,62.28-21.49Z"/><path class="cls-19" d="m778.14,97.53s-47.33,16.69-68.94,48.88c-21.61,32.19,5.01,99.03,5.01,99.03,0,0-20.79-68.79-3.76-96.53,10.56-17.18,67.68-51.39,67.68-51.39Z"/><path class="cls-67" d="m1041.38,372.04s-12.08-22.52-26.32-51.39c-26.32-53.37-70.2-139.14-70.2-139.14,0,0-58.76,5.23-102.79-15.04-43.08-19.84-75.21-41.37-75.21-41.37,0,0-44.76,50.47-33.84,97.77,10.91,47.3,53.9,81.48,53.9,81.48,0,0-16.57,68.91-36.35,136.63-11.89,40.72,76.71,62.45,88.99,63.93,12.29,1.47,201.81-132.87,201.81-132.87Z"/><path class="cls-56" d="m748.06,44.88s49.86-31.15,75.21-26.33c25.35,4.82,27.58,8.77,27.58,8.77,0,0-20-9.16-51.4-3.75-31.39,5.4-51.4,21.31-51.4,21.31Z"/><path class="cls-56" d="m715.47,230.39c-.65-1.59-10.63-59.12,8.78-86.49,19.41-27.37,52.65-42.62,52.65-42.62,0,0-33.67,25.52-53.91,57.66-13.87,22.04-6.87,73.04-7.52,71.45Z"/><path class="cls-19" d="m775.64,250.45s7.53,21.95-3.76,87.74c-11.29,65.8-16.3,107.8-16.3,107.8l-11.27,27.57s26.11-145.13,27.57-183.01c1.46-37.87,3.76-40.11,3.76-40.11Z"/><path class="cls-56" d="m804.47,93.76s13.97,29.56,62.67,51.4c48.71,21.83,56.4,21.31,56.4,21.31,0,0-77.55-42.77-87.74-52.65-10.19-9.87-31.33-20.05-31.33-20.05Z"/><path class="cls-56" d="m814.5,86.24s26.56,18.44,43.87,32.59c17.31,14.16,61.42,47.64,61.42,47.64,0,0-56.07-50.39-68.94-60.17-12.88-9.78-36.35-20.06-36.35-20.06Z"/><path class="cls-56" d="m844.58,46.13s47.87,36.64,61.42,62.67c13.55,26.04,25.07,60.17,25.07,60.17,0,0-18.59-69.14-37.61-89-19.03-19.86-48.89-33.84-48.89-33.84Z"/><path class="cls-89" d="m783.55,113.32c-39.87,49.76-112.54,57.77-162.29,17.89-49.75-39.88-57.76-112.54-17.89-162.29,39.88-49.75,112.54-57.76,162.3-17.89,49.75,39.87,57.76,112.54,17.88,162.29Z"/><path class="cls-85" d="m871.99,23.04c-39.87,49.76-112.54,57.77-162.28,17.89-49.75-39.88-57.77-112.54-17.9-162.29,39.89-49.75,112.54-57.77,162.3-17.89,49.75,39.88,57.76,112.54,17.88,162.29Z"/><path class="cls-87" d="m1145.44,136.3c65.06,166.58,78.81,316.85,30.72,335.63-48.09,18.79-139.82-101.03-204.88-267.61-65.06-166.58-78.81-316.85-30.73-335.64,48.1-18.78,139.83,101.03,204.89,267.61Z"/><path class="cls-88" d="m1196.36,240.25c65.06,166.58,78.81,316.85,30.72,335.64-48.1,18.78-139.82-101.03-204.88-267.62-65.06-166.58-78.82-316.85-30.73-335.63,48.09-18.78,139.83,101.03,204.89,267.61Z"/><path class="cls-86" d="m1119.53,26.15c65.06,166.59,78.81,316.85,30.73,335.64-48.1,18.78-139.83-101.03-204.88-267.62-65.06-166.58-78.82-316.85-30.72-335.63,48.09-18.79,139.82,101.03,204.88,267.61Z"/></g><polygon class="cls-47" points="605.35 2172.76 718.71 1298.55 668.08 1291.95 553.87 2172.76 605.35 2172.76"/><polygon class="cls-63" points="910.54 2172.76 916.95 1295.61 865.85 1295.27 859.45 2172.76 910.54 2172.76"/><g><path class="cls-43" d="m528.7,912.29s-104.11-12.88-127.65,37.96c-23.83,51.45-29.65,84.29-75.41,181.4-45.82,97.23-89.28,200.92-112.81,264.49-23.78,64.24-66.72,108.14-37.29,123.41,24.31,12.62,97.08,1.32,103.72-48.2,8.36-62.38,43.35-102.11,85.24-149.17,107.34-120.6,129.91-184.87,135.38-221.87,5.47-36.99,28.82-188.02,28.82-188.02Z"/><g class="cls-91"><path class="cls-11" d="m293.04,1446.28s-12.84,26.56-32.59,36.35c-19.75,9.78-32.59,6.27-32.59,6.27,0,0,18.59-35.01,7.52-42.62-11.08-7.61-45.12-6.27-45.12-6.27,0,0-24.76,14.36-26.33,23.82-1.56,9.45,22.33,89.51,26.33,87.74,3.99-1.76,107.8-12.53,107.8-12.53l-5.02-92.76Z"/><path class="cls-3" d="m636.9,1202.23c0,146.53-118.78,265.31-265.31,265.31s-265.32-118.78-265.32-265.31,118.79-265.32,265.32-265.32,265.31,118.78,265.31,265.32Z"/><path class="cls-8" d="m246.67,1293.35s28.54,43.73,51.39,60.16c22.85,16.44,55.15,43.88,55.15,43.88l35.1-78.97-55.15-62.67-86.49,37.61Z"/></g></g><polygon class="cls-47" points="1121.16 2172.76 1061.37 1334.14 1010.11 1337.8 1069.64 2172.76 1121.16 2172.76"/><g><path class="cls-47" d="m1044.48,1715.08l-201.65,30.22c-10.23,1.53-18.55,11.2-18.61,21.58-.04,10.39,8.2,17.56,18.43,16.03l201.65-30.22c10.23-1.54,18.56-11.2,18.61-21.58.04-10.38-8.2-17.56-18.43-16.03Z"/><g class="cls-94"><path class="cls-65" d="m1070.21,1735.83s-49.57,10.93-106.55,20.06c-62.82,10.05-136.63,16.3-136.63,16.3l13.78,35.1,181.76-11.28,47.63-60.17Z"/></g></g><g><path class="cls-47" d="m825.33,1746.75l-183.79-16.31c-8.85-.79-16.89,7.57-18.01,18.58-1.12,10.96,5.05,20.5,13.78,21.38l181.59,18.17c9.7.96,19.09-7.56,20.92-19.13,1.85-11.63-4.66-21.82-14.49-22.69Z"/><g class="cls-93"><path class="cls-62" d="m808.23,1775.94s-104.51-12.72-126.61-15.04c-22.09-2.32-58.91-2.51-58.91-2.51l6.27,25.08,121.59,25.07,66.43,6.27-8.77-38.86Z"/></g></g><polygon class="cls-47" points="825.85 2172.76 867.39 1337.24 816.14 1334.69 774.47 2172.76 825.85 2172.76"/><path class="cls-64" d="m1095.28,1216.89c13.76,5.38,36.97,20.74,32.59,51.39-4.5,31.43-18.78,71.35-72.7,88.99-52.32,17.13-203.91,26.32-278.27,12.54-79.59-14.75-122.6-49.48-131.62-75.21-12.8-36.51-11.43-75.93,11.28-91.5,22.71-15.58,424.96,8.41,438.73,13.78Z"/><path class="cls-43" d="m963.66,1206.86s-189.46,17.86-260.73,23.82c-71.27,5.96-110.31,3.76-110.31,3.76,0,0,16.24,62.28,5.01,164.21-11.22,101.92-15.78,174.24-15.04,208.07.74,33.85,14.24,103.42,20.06,126.61,5.82,23.19-51.28,116.41-73.95,72.7-22.68-43.71-61.81-307.69-78.97-387.33-17.17-79.64-49.83-294.78-22.23-315.59,27.6-20.8,76.93-44.25,133.79-40.4,56.84,3.85,402.37,144.15,402.37,144.15Z"/><g class="cls-92"><path class="cls-11" d="m593.88,1670.65s-3.91,23.89-5.01,47.63c-1.11,23.75-3.92,23.43-12.53,26.33-8.61,2.89-26.32,8.78-26.32,8.78,0,0,3.91-30.61-3.77-35.1-7.67-4.49-50.14-6.27-50.14-6.27l-18.8,95.27,125.35,31.34,61.42-94.01-70.2-73.96Z"/><path class="cls-4" d="m786.3,1409.27c0,146.53-118.78,265.31-265.32,265.31s-265.31-118.78-265.31-265.31,118.78-265.31,265.31-265.31,265.32,118.78,265.32,265.31Z"/><path class="cls-8" d="m468.53,1559.09s38.73,26.13,76.47,22.56c37.73-3.58,86.49-13.8,86.49-13.8l-10.03-90.25s-95.29-23.2-134.12-2.5c-37.62,20.04-18.81,83.99-18.81,83.99Z"/></g><g><path class="cls-45" d="m499.88,1767.17s-22.67-37.79-17.56-43.87c5.13-6.08,5.13,7.57,21.31,7.52,16.18-.04,32.69-13.99,33.85-6.26,1.16,7.73,10.03,40.11,10.03,40.11,0,0,3.32-11.51,13.79-12.53,10.46-1.03,37.39,4.59,36.35-20.06-1.05-24.65-2.5-32.6-2.5-32.6l-5.01-30.08s14.25.03,16.29,11.28c2.05,11.26-4.09,26.4,6.27,35.1,10.35,8.69,24.81,25.41,43.87,42.61,19.06,17.21,25.07,28.83,25.07,28.83,0,0,1.25,32.37-20.05,53.91-21.31,21.53-62.41,50.71-68.95,63.93-6.53,13.21-5.79,47.95-53.08,75.52-45.85,26.74-82.89,37.27-100.73,30.43-17.83-6.84-28.31-31.65-28.31-31.65,0,0,1.88-35.1,26.19-64.52,24-29.03,39.62-51.86,44.57-62.09,3.97-8.19,18.61-85.58,18.61-85.58Z"/><g class="cls-98"><path class="cls-58" d="m566.3,1952.69c-1.77.65-31.4-22.05-46.38-40.12-32.54-39.24-72.7-25.07-72.7-25.07l-57.66,85.24,51.4,67.69,125.34-87.74Z"/><path class="cls-77" d="m498.62,1762.15s3.75,4.99,13.79,3.76c10.04-1.23,32.59-3.76,32.59-3.76,0,0,9.64,34.3-1.26,66.44-10.9,32.13-30.08,78.97-30.08,78.97,0,0-26.39-11.99-35.1-15.05-8.7-3.05-15.04-5.01-15.04-5.01,0,0,26.49-30.24,33.84-66.43,7.35-36.19,6.35-43.78,5.01-47.63-1.33-3.86-3.76-11.29-3.76-11.29Z"/><path class="cls-66" d="m586.36,1673.16s10.73-.66,11.28,7.52c.55,8.17,1.33,4.84,0,21.32-1.32,16.47-2.5,36.34-2.5,36.34l-23.82-36.34,15.04-28.84Z"/><path class="cls-58" d="m607.67,1703.24s16.86,35.74,28.84,58.91c15.03,29.09,36.35,45.13,36.35,45.13l32.59-26.33-41.36-65.18-56.41-12.54Z"/><path class="cls-72" d="m670.35,1750.87s10.7,24.99-7.52,57.67c-18.23,32.68-51.59,58.55-62.67,81.48-11.09,22.92-22.48,55.58-52.65,73.96-30.17,18.36-96.73,51.82-117.83,35.09-21.09-16.73-30.08-32.59-30.08-32.59l13.78,66.44s117.24-17.69,129.1-22.56c11.87-4.87,206.83-152.92,206.83-152.92l25.07-117.83-104.04,11.27Z"/><path class="cls-70" d="m553.77,1742.1s-6.08,3.21-3.76,33.84c2.31,30.63-6.69,62.99-13.79,83.99-20.21,59.78-25.51,48.36-26.33,47.63,0,0,33.36-61.68,33.84-101.54.24-20.52,0-55.16,0-55.16l10.03-8.77Z"/><path class="cls-70" d="m499.88,1767.17s.42,6.73,1.25,18.8c.81,11.78,1.13,20.09-20.05,76.46-5.07,13.5-13.07,15.19-13.79,18.8-.72,3.61,0,7.52,0,7.52,0,0,23.14-29.88,31.34-66.44,4.5-20.08,8.5-33.49,7.52-42.62-.8-7.5-6.26-12.54-6.26-12.54Z"/><g><path class="cls-69" d="m557.44,1777.03v12.54c-24.02-1.88-52.74.93-68.93-8.78v-6.27c21.08-2.22,50.99-2.57,68.93,2.51Z"/><path class="cls-69" d="m559.94,1805.86v10.44c-2.18.23-4.27,3.62-6.28,3.49-12.46-.82-22.03-7.79-33.83-10.15-11.16-2.24-23.43,1.74-30.08-7.52,1.22-7.53,11.6-7.17,17.54-7.52,17.8-1.05,42.44,4.16,52.64,11.28Z"/><path class="cls-69" d="m557.44,1829.68c0,3.76-.94,4.18-.94,7.95-1.85-.26-2.71,2.75-4.44,2.37-22.32-4.81-36.19-18.08-64.81-16.59-1.77-11.06,12.08-11.04,17.54-11.28,19-.83,41.45,10.54,52.65,17.55Z"/><path class="cls-69" d="m544.9,1862.26c-26.38-1.18-37.07-18.08-62.66-20.06v-8.77c15.88-7.63,60.62,6.62,63.91,17.55,1.14,3.77,0,7.78-1.25,11.27Z"/><path class="cls-69" d="m532.37,1867.27c0,2.53,3.42,6.76,3.42,9.29,0,1.66-3.42,1.6-3.42,3.25-25.52-1.64-39.85-14.45-61.41-20.05,1.05-1.46,1.65-3.37,1.25-6.27,24.46-4.76,43.85,6.24,60.16,13.78Z"/><path class="cls-69" d="m526.1,1908.64c-26.05,2.19-39.39-19.07-63.92-22.56-.32-7.84,4.76-10.28,5.01-17.55,15.45-.85,28.37,5.56,40.1,13.79,8.94,6.28,22.41,14.04,18.8,26.32Z"/></g></g></g><g><path class="cls-45" d="m103.86,1589.19s19.84-40.1,32.62-65.11c12.79-25.02,28.87-46.33,28.87-46.33,0,0-8.02-50.4-3.76-52.59,4.25-2.2,11.29-1.25,11.29-1.25,0,0-6.65,1.27,3.77,8.76,10.42,7.5,36.9,4.74,38.9,8.76,2.02,4.03-2.5,52.59-2.5,52.59,0,0,.21,13.16,5.02,8.76,4.81-4.39,7.5-4.06,20.08-1.25,12.57,2.82,31.84-18.42,37.34-26.43,5.51-8.02,6.27-21.31,6.27-21.31,0,0,11.29.38,10.36,8.93-.94,8.55-9.25,24.88-3.77,37.55,5.49,12.67,14.41,23.08,27.26,48.78,13.87,27.71,6.27,52.65,6.27,52.65,0,0-49.47,25.5-69.92,32.56-20.46,7.05-60.8,55.67-90.36,65.11-29.57,9.44-132.19,27.09-151.86-2.5-19.68-29.6,0-37.57,0-37.57,0,0,27.51-25,41.42-35.06,13.9-10.05,52.71-35.06,52.71-35.06Z"/><g class="cls-97"><path class="cls-66" d="m280.51,1453.8s7.98,3.47,5.01,11.28c-3.61,9.54-31.33,31.33-31.33,31.33l-3.76-16.3,30.08-26.31Z"/><path class="cls-10" d="m171.46,1411.18s-14.45,8.76-8.77,16.3c5.67,7.54,20.49,14.89,32.58,13.78,4.27-.38,2.78,9.44,3.77,7.52,1.24-2.45-3.27,40.65-6.27,50.14-3,9.49-18.89-1.66-22.56-2.5-3.67-.84-12.54-1.25-12.54-1.25,0,0-34.09,59.37-41.36,72.7-7.26,13.34-12.53,22.57-12.53,22.57,0,0,10.01.42,12.53,7.52,2.52,7.11,7.52,11.29,7.52,11.29,0,0,46.5-55.54,61.42-71.46,14.91-15.91,35.1-42.61,35.1-42.61l11.28-42.62-18.8-28.83-41.37-12.54Z"/><path class="cls-70" d="m229.11,1492.66s-14.48,4.59-9.34,2.16c5.14-2.41-10.28,7-13.23,16.64-6.02,19.7-14.5,18.39-28.82,37.61-13.17,17.67-28.47,29.65-36.35,40.12-6.98,9.26-17.54,27.57-17.54,27.57,0,0-4.36-16.02-12.53-20.06-8.18-4.03-13.8-7.52-13.8-7.52,0,0,11.74-4.04,17.56,3.75,5.81,7.79,5.36,14.86,10.02,12.53,4.66-2.31,57.46-69.54,70.19-82.72,12.74-13.2,33.84-30.08,33.84-30.08Z"/><path class="cls-58" d="m160.17,1700.73s-21.47-74.62-50.14-107.8c-28.66-33.17-58.91,6.27-58.91,6.27,0,0-59.21,78.23-57.67,82.72,1.55,4.5,42.62,57.67,42.62,57.67l124.1-38.86Z"/><path class="cls-58" d="m290.54,1487.64s-4.94-3.17-6.27,27.58c-1.32,30.75-6.69,63.2-8.78,72.7-2.08,9.51-6.27,22.57-6.27,22.57l77.72-22.57-16.29-73.95-40.12-26.33Z"/><path class="cls-72" d="m345.69,1580.4s-71.2,15.08-99.02,33.84c-27.83,18.75-28.68,36.03-51.4,55.15-22.71,19.12-123.67,42.77-154.17,26.33-30.51-16.45-52.42-24.85-42.62-57.67,9.8-32.82-30.09-18.8-30.09-18.8l12.54,120.34,106.55,36.35,284.54-104.04,38.86-61.42-65.18-30.08Z"/><g><path class="cls-69" d="m161.38,1485.01h5.01c18.41,11.26,48.7,10.63,50.14,38.86-12.46,3.47-19.47-8.28-31.33-15.04-8.87-5.07-31.22-12.01-23.82-23.82Z"/><path class="cls-69" d="m201.49,1537.65c-27.2-2.46-39.85-19.47-60.16-28.82v-7.52c16.36-4.49,58.34,20.71,60.16,26.32,1.19,3.66-.94,7.47,0,10.03Z"/><path class="cls-69" d="m188.96,1557.7c-23.89,2.04-34.3-19.91-56.4-23.81v-8.78c24.18-2.82,41.27,12.16,56.4,22.56v10.03Z"/><path class="cls-69" d="m171.41,1572.74c-9.56,4.82-18.83-4.16-28.83-10.03-8.61-5.05-23.85-9.61-23.8-21.31,16.66-2.27,53.91,12.75,52.63,31.33Z"/><path class="cls-69" d="m152.61,1589.04c-21.5-1.05-30.09-15.03-46.37-21.31.68-1.82-1.47-6.48,1.25-6.26,11.64-1.37,47.91,8.7,45.12,27.57Z"/><path class="cls-69" d="m98.71,1576.51c10.73-.6,20.71,5.06,28.82,10.03,6.51,3.97,15.67,9.8,12.54,18.8-19.65-2.08-27.3-16.15-41.36-23.82v-5.01Z"/></g></g></g><path class="cls-44" d="m1028.84,769.4s123.37,239.19,124.1,308.36c.73,69.16-27.37,137.41-42.62,147.91-15.25,10.5-124.97,22.21-154.17,12.53-314.32-104.18-663.99-377.71-236.91-314.62,45.96,6.78,67.14-4.46,75.98-23.09,17.58-37.03-13.59-103.22,4.23-114.8,26.79-17.41,229.38-16.29,229.38-16.29Z"/><g><path class="cls-46" d="m607.67,784.43s33.95-16.07,46.38-21.31c15.4-6.5,26.32-12.54,26.32-12.54,0,0,21.26-208.73,23.82-241.92,2.55-33.19,2.3-99.23,43.87-119.09,41.57-19.84,87.6-38.63,117.83-42.61,30.23-3.98,61.4-70.12,132.87-28.83,71.47,41.29,149.8,70.94,159.19,135.38,9.4,64.43,18.64,319.06,17.55,343.46-1.09,24.39.65,52.6-31.33,51.39-31.99-1.21-54.73-37.73-58.92-63.93-4.19-26.2-25.07-115.32-25.07-115.32,0,0-21.07,66.69-17.55,83.98,5.61,27.5-18.8,41.37-18.8,41.37,0,0-1.17.64-77.72,12.53-78.48,12.19-144.15-11.28-144.15-11.28,0,0-19.95,4.48-17.54-33.85,1.12-17.74-12.54-40.11-12.54-40.11,0,0-1.41,95.22-28.83,110.31-27.41,15.08-134.24,37.64-154.18,32.58-19.94-5.05,18.8-80.22,18.8-80.22Z"/><g class="cls-95"><path class="cls-14" d="m780.62,794.41s3.43-5.61,7.56-16.24c40.91.99,40.56,23.88,151.25,17.64,85.13-4.8,141.24-53.39,157.1-52.74,38.35,1.57,58.92,31.34,58.92,31.34,0,0-64.57,5.23-105.73,8.57-7.92.65-64.27,46.38-127.42,47.83-50.45,1.16-105.39-11.42-144.16-22.8.3-6.28,2.48-13.6,2.48-13.6Z"/><path class="cls-22" d="m1065.19,692.93s-16.15-72.06-18.8-94.01c-2.66-21.95-7.52-62.67-7.52-62.67,0,0,1.46,179.85,1.25,185.52-.22,5.66,25.07-28.83,25.07-28.83Z"/><path class="cls-14" d="m989.98,803.23c129.6-18.25,61.24-152.2,56.41-186.76-5.08-36.36-93.99-74.75-157.94-47.63-63.95,27.12-66.8,14.56-90.25-2.51-23.45-17.07-77.1-6.46-87.74,20.05-8.98,22.38,35.56,189.91,76.46,213.1,40.89,23.19,158.94,9.97,203.06,3.76Z"/><path class="cls-22" d="m729.26,540s-35.22,25.21-13.79,82.74c17.46,46.84,56.38,90.24,58.92,104.04,2.54,13.81-2.51,68.95-2.51,68.95l-51.39,52.64-11.29-165.46s-12.42-93.75-3.76-114.07c7.57-17.74,23.82-28.84,23.82-28.84Z"/><path class="cls-22" d="m1012.55,311.87s26.94-.43,15.04,52.64c-11.89,53.07-26.32,91.51-26.32,91.51l-7.52-119.08,18.8-25.07Z"/><path class="cls-22" d="m839.57,333.18s11.38,28.32,1.25,52.65c-12.89,30.96-72.7,129.11-72.7,129.11l32.59-195.53,38.86,13.78Z"/><path class="cls-22" d="m986.22,339.44s-34.49,69.38-46.37,82.73c-11.89,13.35-30.82,13.43-50.14,2.5-19.31-10.92-23.82-21.31-23.82-21.31,0,0-27.5,26.02-36.35,16.3-8.86-9.74-6.27-26.33-6.27-26.33l48.88-13.79,114.06-40.11Z"/></g></g><g><path class="cls-41" d="m794.44,288.05s2.96,80.02-8.78,117.83c-18.58,59.86-31.95,77.63-42.08,122.14-10.14,44.51-13.37,58.8-5.54,77.16,7.83,18.36,27.57,42.62,27.57,42.62,0,0,1.92-46.87,12.53-105.29,10.38-57.07,28.8-62.08,39.17-167.49,5.81-59.05-2.82-100.76-2.82-100.76l-20.05,13.79Z"/><g class="cls-96"><g><path class="cls-19" d="m813.24,319.4s13.82,48.32-10.03,122.84c-23.85,74.52-50.83,152.14-51.4,170.47-.56,18.33-2.51,50.14-2.51,50.14l-11.27-3.75s34.28-135.13,51.39-200.56c17.1-65.43,22.7-103.08,21.31-116.58-1.39-13.5-5.01-23.82-5.01-23.82l7.52,1.26Z"/><path class="cls-19" d="m786.92,301.84s31.71,12.61,16.29,72.71c-15.42,60.09-57.47,166.78-62.67,198.05-5.21,31.27-10.03,73.96-10.03,73.96l-7.52-11.29s.44-36.85,21.89-100.98c10.72-32.04,31.99-86.88,40.77-129.66,8.63-42.01,4.87-72.18,5.72-80.89,2.01-20.67.56-23.16.56-23.16l-5.01,1.25Z"/></g><path class="cls-6" d="m1077.49,285.23c0,119.94-97.23,217.17-217.17,217.17s-217.17-97.23-217.17-217.17,97.23-217.16,217.17-217.16,217.17,97.23,217.17,217.16Z"/></g></g><g><path class="cls-43" d="m824.52,331.93s15.92-9.93,26.33,13.79c11.09,25.3,11.65,39.02,22.56,40.11,32.18,3.2,101.61-60.98,96.52-82.74-5.09-21.74-21.93-55.76-31.34-71.44-7.61-12.68-25.07,5.01-25.07,5.01l-89,95.27Z"/><g class="cls-99"><path class="cls-5" d="m1158.01,212.55c0,119.94-97.23,217.17-217.16,217.17s-217.17-97.23-217.17-217.17S820.9-4.62,940.85-4.62s217.16,97.23,217.16,217.17Z"/></g></g><path class="cls-9" d="m853.35,348.22s5.69,15.38,21.31,12.53c15.62-2.84,50.9-21.78,61.42-52.64,10.51-30.86,15.05-52.65,15.05-52.65,0,0-.71,48.5-3.76,52.65-3.05,4.14-45.13,63.93-45.13,63.93,0,0-39.04,18.01-40.78,14.76-1.75-3.25-8.1-38.57-8.1-38.57Z"/><path class="cls-7" d="m854.61,296.83l81.48-66.44s-.94,75.89-38.86,104.04c-13.67,10.15-57.66,8.77-57.66,8.77l15.04-46.38Z"/><g><path class="cls-40" d="m850.85,339.44s5.53,12.08,10.03,20.06c4.5,7.96,10.03,12.53,10.03,12.53,0,0,40.01-19.13,57.65-46.38,22-33.95,18.81-80.22,18.81-80.22,0,0,10.07,7.32,13.78,25.06,9.21,43.93,23.51,36.9,23.82,52.65.31,15.75-31.31,103.56-61.42,106.55-31.69,3.14-47.27-35.94-52.64-40.12-5.38-4.16-39.43,41.89-47.63,30.09-8.79-12.64-4.55-20.59,1.25-38.86,5.81-18.27,11.28-36.35,11.28-36.35l15.05-5.02Z"/><g class="cls-104"><g><path class="cls-13" d="m840.82,320.65s-.28,38.22,13.79,48.89c14.07,10.65,32.36,3.29,61.42-18.81,14.79-11.24,26.32-23.81,26.32-23.81,0,0-1.5-.33,6.27,30.09,7.77,30.42,23.81,43.87,23.81,43.87l10.03-124.1-28.83-65.17-55.16,17.55-57.66,91.51Z"/><path class="cls-13" d="m811.99,409.64s9.07,16.77,22.56,5.01c13.5-11.76,32.59-26.32,32.59-26.32l1.26-13.79s3.55,5.42,13.78,22.56c10.23,17.14,28.06,33.03,38.86,30.08,20.91-5.71,46.38-35.1,46.38-35.1l-25.08,58.91s-65.24,7.12-68.94,3.76c-3.7-3.36-70.19-22.56-70.19-22.56l8.78-22.56Z"/></g></g></g><g class="cls-109"><g class="cls-26"><path class="cls-75" d="m675.36,913.54s130.72,7.01,188.02,27.58c57.3,20.56,179.25,61.42,179.25,61.42,0,0-60.99-44.91-100.28-60.17-39.28-15.26-167.96-40.1-167.96-40.1l-107.8,15.03,8.78-3.76Z"/><path class="cls-75" d="m823.27,919.81s83.1.68,129.11,2.52c46.01,1.82,120.33,27.57,120.33,27.57,0,0-110.29-5.33-130.36-5.01-20.07.34-66.43-1.25-66.43-1.25l-67.69-21.31,15.04-2.52Z"/><path class="cls-75" d="m870.91,931.09s31.49-6.05,55.15-11.29c23.66-5.22,94.01,8.78,94.01,8.78l-127.86,5.02-21.31-2.51Z"/></g><path class="cls-8" d="m1157.95,969.94s-71.11-42.84-127.85-58.91-240.51-19.06-240.51-19.06l3.55-20.36s47.52,1.22,90.67-2.44c43.15-3.67,165.09-39.62,165.09-39.62l109.06,140.38Z"/></g><g><g><path class="cls-43" d="m889.61,829.88s47.54,3.46,82.82-11.6c35.29-15.06,62.87-54.64,112.82-58.92,22.85-1.96,79.66,12.7,85.24,32.59,7.51,26.73,1.17,48.63-11.29,53.9-25.04,10.6-95.37,28.63-148.23,36.98-55.23,8.73-92.63,7.4-92.63,7.4,0,0-42.35,13.57-53.81,4.62-11.48-8.95-24.62-39.67-39.19-38.63-14.58,1.06-22.03,11.21-24.58,13.52-2.56,2.31-14.84,18.99-18.12,18.27-3.28-.7-4.26-5.22-3.05-13.68,1.21-8.45,8.05-14.66,11.85-18.02,3.76-3.33,7.33-5.31,7.33-5.31,0,0-12.01-.91-23.14,9.89-5.26,5.11-24.97,9.1-30.43,1-5.46-8.09-1.47-15.09,2.66-30.57,3.09-11.62,6.51-18.3,11.48-21.82,11.18-7.89,37.6-18.8,37.6-18.8,0,0-19.41-5.54-27.57-2.51-13.55,5.03-35.68,27.33-30.4,26.29-4.94.97-8.47-6.76-3.81-18.21,4.67-11.45,20.97-30.45,34.22-29.39,13.23,1.07,30.31.43,45.5,14.48,15.2,14.05,74.74,48.51,74.74,48.51Z"/><g class="cls-103"><g><path class="cls-18" d="m761.85,838.34s6.51-14.29,20.06-17.55c13.54-3.26,23.81-3.76,23.81-3.76,0,0-11.52,7.4-21.31,11.28-9.79,3.88-22.56,10.03-22.56,10.03Z"/><path class="cls-18" d="m722.99,817.03s8.35-3.19,21.31-17.55c12.95-14.36,11.72-15.72,25.07-15.04,13.35.68,27.57,5.01,27.57,5.01,0,0-37.64,12.63-38.86,13.79-1.21,1.18-23.26,23.32-26.32,23.82-3.06.5-8.78-10.02-8.78-10.02Z"/><path class="cls-18" d="m740.54,840.84c-.65,2.53,3.14,14.82,6.27,15.04,3.12.22,5.01-1.25,5.01-1.25,0,0-2.35,10.49,7.52,7.52,9.87-2.96,11.23-4.06,18.8-8.77,10.68-6.65,35.1-7.52,35.1-7.52,0,0-15.2,3.94-20.06,6.26-7.5,3.6-23.81,30.08-23.81,30.08,0,0,6.51,13.18,16.29,1.26,9.79-11.93,24.93-30.89,32.59-30.09,7.67.79,22.56,11.27,22.56,11.27l36.35,46.39-50.14,21.31-68.95-32.59-23.82-28.83s6.92-32.61,6.27-30.08Z"/><path class="cls-18" d="m889.71,829.56s15.74,23.78,10.03,42.62c-5.71,18.84-14.72,16.65-21.31,16.29-6.58-.35-45.12-17.55-45.12-17.55l11.28,28.83,56.41,15.05,17.55-27.58-6.27-37.61-22.56-20.05Z"/></g></g></g><path class="cls-46" d="m892.86,895.5c4.06-5.53,8.99-14.72,9.38-27.12.39-12.06-16.31-38.7-16.57-39.5-.26-.81.2-1.46.9-1.54.69-.08,2.54.95,3.42,1.3.87.35,5.51.32,11.9.32,15.81,0,45.92-1.53,70.06-11.84,12.85-5.49,24.62-14.22,37.08-23.46,21.73-16.13,44.2-32.81,76.12-35.55,1.39-.12,2.93-.18,4.59-.18,24.83,0,76.51,14.23,81.97,33.68,7.19,25.64,2.03,49.44-12,55.39-23.68,10.03-93.72,28.41-148.52,37.07-42.78,6.76-75.08,7.49-86.98,7.49-3.14,0-6.39.34-8.48.63-2.08.29-9.85,3.2-21.63,5.28,0,0-1.19.17-1.49-.57-.17-.42.26-1.41.26-1.41Z"/></g><g><path class="cls-41" d="m944.86,207.83s9-4.56,10.03,70.19c1.04,74.76,13.8,90.79,0,162.96-13.8,72.17-42.94,155.42-43.87,180.5-.92,25.07-5.01,42.61-5.01,42.61,0,0,61.22-36.41,76.46-71.45,15.23-35.04,41.09-202.31,30.08-248.19-12.97-54.07-53.9-154.19-53.9-154.19l-13.79,17.56Z"/><g class="cls-102"><g><path class="cls-19" d="m952.38,185.27s42.14,113.75,22.56,245.68c-19.58,131.93-87.74,260.73-87.74,260.73h-13.8s102.64-171.46,99.02-294.57c-5.09-173.87-36.11-203.26-26.32-198.05l6.27-13.79Z"/><path class="cls-19" d="m948.62,165.21s58.45,119.49,50.14,210.59c-8.31,91.09-51.39,278.28-51.39,278.28l-15.04,18.8s74.82-254.88,61.42-335.94c-13.39-81.05-48.88-157.94-48.88-157.94l3.76-13.79Z"/></g><path class="cls-29" d="m1177.77,210.02c0,119.94-97.23,217.17-217.17,217.17s-217.17-97.23-217.17-217.17S840.66-7.15,960.6-7.15s217.17,97.23,217.17,217.17Z"/><path class="cls-28" d="m1187.37,693.66c0,119.94-97.23,217.17-217.17,217.17s-217.17-97.23-217.17-217.17,97.23-217.17,217.17-217.17,217.17,97.23,217.17,217.17Z"/></g></g><path class="cls-43" d="m768.12,125.1s6.17,23.07,67.69,45.13c30.19,10.82,51.15,12.05,70.2,17.54.94.27,9.61,41.59,11.28,41.37,11.84-1.55,11.28-51.4,11.28-51.4,0,0,.31-3.72,6.27-16.29,5.97-12.58,24.12-9.87,27.58,20.05,3.81,33.05-23.82,38.86-23.82,38.86,0,0,.5,9.27-2.51,23.82-2.98,14.41-17.32,43.41-47.93,73.25-29.3,28.54-51.47,35.79-64.88,34.55-13.41-1.23-16.12-6.01-46.37-41.36-30.27-35.35-28.79-52.18-30.09-56.41-1.3-4.24-4.65-10.25-7.52-21.31-2.88-11.06-6.87-15.03.99-46.91,7.58-30.74,27.84-61.88,27.83-62.15v1.25Z"/><path class="cls-61" d="m835.8,236.66s6.45,4.94,18.8,2.5c15.4-3.03,35.68-10.07,35.1-10.02,0,0-26.93,22.14-33.84,25.07-6.92,2.93-12.53,5.01-12.53,5.01,0,0-.62-3.87-1.27-6.27-.64-2.4-1.25-3.76-1.25-3.76,0,0-7.11,4.67-8.77,5.02-1.67.34-3.76,0-3.76,0,0,0,4.95-5.52,6.27-8.77,1.32-3.26,1.25-8.78,1.25-8.78Z"/><path class="cls-61" d="m753.07,235.41s7.3,6.71,13.79,8.78c6.5,2.07,17.55,5.01,17.55,5.01,0,0-7.2,7.49-15.04,8.78-7.85,1.27-15.05,2.5-15.05,2.5l2.51-7.52s-11.04-.02-15.04-2.51c-4-2.47-8.78-5.01-8.78-5.01,0,0,12.31.83,15.04-2.51,2.73-3.34,5.01-7.52,5.01-7.52Z"/><g class="cls-101"><path class="cls-81" d="m996.85,166.62c0,142.93-115.86,258.79-258.79,258.79s-258.78-115.86-258.78-258.79,115.86-258.79,258.78-258.79S996.85,23.7,996.85,166.62Z"/><path class="cls-17" d="m932.33,199.05s10.47-43.79,16.29-31.34c5.82,12.45-6.27,26.33-6.27,26.33,0,0,14.88-1.83,10.03,5.01-4.85,6.84-15.04,10.03-15.04,10.03l-5.01-10.03Z"/><path class="cls-24" d="m765.61,118.83c-.13,1.76,14.92,33.3,42.62,53.9,13.17,9.79,41.59,12.96,52.65,17.54,2.8,1.16,3.76,11.28,3.76,11.28l-2.5,7.53s13.78,15.4,16.29,20.05c2.52,4.66,2.51,6.27,2.51,6.27,0,0-8.92,15.2-11.28,45.13-2.36,29.93-3.11,40.01-8.78,48.89-5.66,8.87-31.34,23.82-31.34,23.82,0,0,29.33-2.72,43.87-13.79,60.99-46.41,71.45-112.81,71.45-112.81l32.59-43.87s-7.51-21-18.8-31.34c-10.53-9.63-24.84-8.67-26.32-8.77-3.08-.23-121.59-5.01-121.59-5.01,0,0-44.93-21.39-45.12-18.81Z"/><path class="cls-27" d="m1031.53,9.9c0,119.93-97.23,217.16-217.17,217.16s-217.17-97.23-217.17-217.16,97.23-217.17,217.17-217.17,217.17,97.23,217.17,217.17Z"/><path class="cls-54" d="m791.93,254.21s8.54,11.54,3.76,21.3c-4.78,9.77-8.77,15.04-8.77,15.04l7.52,7.52s-7.26,1.93-15.05,2.32c-3.3.16,8.07,13.18,18.8,30.28,9.22,14.68,29.39,27.41,27.59,28.83-5.72,4.49-63.93-56.42-63.93-56.42l3.76-11.28,26.32-37.6Z"/><path class="cls-16" d="m758.09,293.07s8.32,4.91,18.81,0c10.7-5,16.11-12.97,16.29-21.31.13-5.4-1.25-15.04-1.25-15.04,0,0-2.46,18.76-12.53,23.81-10.07,5.05-26.33,6.27-26.33,6.27l5.01,6.27Z"/></g><path class="cls-15" d="m811.99,260.48s-.89,14.4,8.78,25.07c5.05,5.58,16.65,12.65,26.32,15.04,28.15,6.97,46.38-18.8,46.38-18.8l-7.53,3.76s-20.1,3.56-33.84-1.26c-13.74-4.82-40.11-23.82-40.11-23.82Z"/><path class="cls-15" d="m790.68,290.56s13.07,1.04,16.3,2.51c3.22,1.48,2.47,8.94-2.51,8.77-2.69-.09-9.6-3.26-12.54-6.26-2.49-2.55-1.25-5.02-1.25-5.02Z"/><path class="cls-12" d="m842.07,214.1s-1.94,12.67-5.01,22.56c-3.07,9.89-6.27,20.06-6.27,20.06,0,0-22.45-6.18-17.55-20.06,4.9-13.88,28.82-22.56,28.82-22.56Z"/><path class="cls-12" d="m769.37,225.38s6.64,9.66,10.03,17.55c3.39,7.89-1.26,7.52-1.26,7.52l-27.57-32.59,18.8,7.52Z"/><path class="cls-60" d="m810.97,230.36c-.63-4.28-.18-12.51,3.74-14.99,3.93-2.48,32.63-16.28,41.24-14.99,8.62,1.29,31.4,9.53,31.25,12.49-.17,2.95-22.82-3.92-32.5,0-9.68,3.93-32.02,17.92-36.24,18.74-4.22.82-6.88,3.03-7.5-1.25Z"/><path class="cls-60" d="m731.77,217.86c-1.07-6.69,1-15.08,8.37-13.25,6.07,1.5,32.98,11.08,34.25,15.76,1.26,4.68,3.96,14.71,0,15.04-7.09.59-22.72-17.83-31.34-18.8-8.61-.97-10.56,5.73-11.28,1.25Z"/><path class="cls-41" d="m766.5,121.84s10.1,34.32,51.83,52.09c36.19,15.41,95.34,11.6,110.17,10.33.56-.04.21-3.46.06-3.97-.45-1.53-3.75-1.29-3.75-1.29,0,0-70.35-1.74-95.9-14.68-25.56-12.94-48.26-35.46-48.26-35.46l-14.15-7.02Z"/><path class="cls-59" d="m875.92,244.18c1.9-2,56.41-78.98,56.41-78.98,0,0-.5,4.3-1.25,7.53-.76,3.23-34.76,68.21-38.86,76.46-4.1,8.25-6.27,17.55-6.27,17.55,0,0-11.92-20.57-10.02-22.56Z"/><path class="cls-84" d="m767.74,292.44c-.66,0-1.34-.02-2.04-.06-18.45-1.02-37.55-15.51-43.49-32.98-2.99-8.82-2.18-17.1,2.29-23.34,4.35-6.07,11.66-9.41,20.57-9.41,19.14.13,39.45,15.01,45.54,33.15,2.96,8.81,2.15,17.07-2.29,23.25-4.36,6.06-11.68,9.39-20.59,9.39Zm-22.44-60.78c-7.48,0-13.34,2.6-16.73,7.32-3.49,4.88-4.07,11.56-1.61,18.8,5.22,15.42,22.73,28.69,39.02,29.59,8.09.42,14.61-2.17,18.27-7.26,3.47-4.83,4.04-11.48,1.62-18.72-5.38-16-23.95-29.62-40.56-29.74h0Z"/><path class="cls-84" d="m862.06,296.79c-.78,0-1.58-.02-2.38-.07-20.43-1.14-41.24-16.4-47.37-34.76-2.98-8.9-2.06-17.37,2.59-23.81,4.87-6.76,13.16-10.47,23.37-10.47,21.26.15,43.45,15.84,49.75,34.95,2.94,8.91,2.02,17.32-2.6,23.72-4.87,6.73-13.16,10.44-23.36,10.44Zm-23.53-64.09c-8.81,0-15.67,2.98-19.56,8.39-3.67,5.1-4.36,11.95-1.9,19.28,5.43,16.27,24.68,30.33,42.9,31.35,9.52.52,17.18-2.48,21.4-8.31,3.65-5.04,4.33-11.87,1.9-19.2-5.59-16.95-26.08-31.38-44.73-31.51h0Z"/><path class="cls-59" d="m786.92,251.7s5.95-2.77,11.27-3.75c5.33-.98,15.05,5.01,15.05,5.01l1.25,11.28s-8.85-6.12-15.04-5.01c-6.04,1.07-12.65-.51-10.21,9.3l-2.32-16.82Z"/><path class="cls-50" d="m745.33,229.16c17.7.13,37.13,14.22,42.92,31.45,5.77,17.2-4.47,30.27-22.41,29.28-17.44-.96-35.71-14.95-41.25-31.29-5.56-16.37,3.53-29.56,20.74-29.44Z"/><path class="cls-50" d="m767.74,288.68c-.61,0-1.21-.02-1.83-.05-16.75-.93-34.75-14.58-40.14-30.44-2.59-7.63-1.95-14.71,1.78-19.93,3.63-5.06,9.86-7.85,17.53-7.85,17.62.13,36.35,13.85,41.97,30.6,2.57,7.63,1.93,14.68-1.78,19.85-3.63,5.05-9.85,7.83-17.53,7.83Z"/><path class="cls-50" d="m838.55,230.19c19.76.14,41.09,15.04,47.1,33.23,6,18.15-5.82,31.92-25.83,30.81-19.42-1.08-39.38-15.86-45.14-33.06-5.75-17.23,4.7-31.12,23.87-30.98Z"/><path class="cls-50" d="m862.07,293.04c-.72,0-1.44-.02-2.18-.06-18.69-1.04-38.43-15.48-44.01-32.2-2.58-7.72-1.85-14.98,2.08-20.42,4.14-5.75,11.36-8.91,20.32-8.91,19.74.14,40.34,14.66,46.19,32.37,2.55,7.73,1.81,14.95-2.08,20.33-4.14,5.73-11.36,8.89-20.31,8.89Z"/><path class="cls-68" d="m789.43,305.6s7.09,7.79,11.28,8.77c4.2.99,20.53,3.04,25.07,2.51,4.55-.53,8.07.66,13.78-2.51,1.62-.89,11.29-11.28,11.29-11.28,0,0-7.72,5.22-8.78,5.02-1.05-.2-29.02-4.81-38.85-3.76-9.84,1.05-7.52,3.76-7.52,3.76l-6.27-2.51Z"/><g class="cls-83"><g class="cls-111"><path class="cls-74" d="m746.81,205.32c12.27,5.8,35.47,15.71,56.41,10.02,20.94-5.68,44.47-15.24,37.6-22.56-6.85-7.32-51.77-28.34-71.44-26.32-19.68,2.01-34.83,33.05-22.56,38.86Z"/></g></g><g><path class="cls-42" d="m356.97,900.99s7.98,25.71,34.66,24.81c26.68-.9,364.26,9.84,409.24,7.45,44.98-2.39,66.56-.12,73.32-8.68,6.76-8.57,8-19.85,8-19.85,0,0-180.9-17.81-197.29-16.13-16.38,1.67-327.92,12.4-327.92,12.4Z"/><g class="cls-105"><path class="cls-80" d="m351.96,906.02s-15.86-16.31,12.54-17.55c28.39-1.24,353.45,9.54,372.28,7.52,18.84-2.03,26.33,8.63,32.6,15.04,6.26,6.41,58.04,7.16,75.21,7.52,45.72.96,38.86-12.53,38.86-12.53l-10.03,53.9-324.65-12.54s-180.24,9.33-181.76,6.27c-1.52-3.07-15.04-47.63-15.04-47.63Z"/><path class="cls-52" d="m377.03,903.52s320.27-10.7,333.43-10.03c13.15.66,177.99,16.29,177.99,16.29l2.51-20.06-353.48-72.69-157.94,6.26-2.5,80.23Z"/></g></g><g class="cls-107"><g><path class="cls-49" d="m270.85,649.07h385.82c9.45,0,20.16,7.94,23.91,17.72l88.21,230.39c3.76,9.79-.88,17.72-10.33,17.72h-385.81c-9.46,0-20.16-7.93-23.91-17.72l-88.21-230.39c-3.74-9.78.88-17.72,10.33-17.72Z"/><g class="cls-106"><path class="cls-55" d="m254.19,670.37s-7.43-10.16,30.08-8.78c45.16,1.66,363.72,3.06,373.54,1.25,9.82-1.79,8.78-15.04,8.78-15.04l-407.38-13.79-5.01,36.35Z"/><path class="cls-78" d="m315.6,637.77s-28.27,17.85-25.07,25.07c3.21,7.22,278.28,239.42,278.28,239.42l80.23,10.02s-291.78-242.44-287.05-249.45c4.73-7.01,22.56-21.31,22.56-21.31l-68.95-3.76Z"/><path class="cls-79" d="m408.37,639.03s-31.03,15.27-25.07,22.56c5.96,7.29,269.49,244.43,269.49,244.43h26.33s-289.49-240.13-280.78-246.94c8.7-6.81,27.58-20.06,27.58-20.06h-17.55Z"/><path class="cls-20" d="m686.64,661.59s-19.37-4.7-17.56,7.52c1.83,12.22,14.6,41.68,42.62,112.81,17.89,45.39,35.59,92.54,46.38,117.82.84,1.98-418.19-.48-417.41,1.25.85,1.89,6.2,7.14,27.57,8.78,102.42,7.82,399.01,9.04,401.12,8.78,8.16-1.05,17.55-26.32,17.55-26.32l-66.44-178-33.84-52.64Z"/></g></g></g><path class="cls-53" d="m501.21,775.12l29.61,18.51c2.57,1.61,3.19,5,1.95,6.62l-13.91,18.09c-1.23,1.61-4.32,1.61-6.89,0l-28.83-18.09c-2.57-1.61-4.14-5.01-2.91-6.62l14.8-18.51c1.24-1.61,3.6-1.61,6.17,0Z"/><path class="cls-23" d="m501.84,774.17l28.8,17.83c2.56,1.59,3.64,4.16,2.4,5.75l-13.89,17.83c-1.24,1.58-4.32,1.58-6.89,0l-28.79-17.83c-2.57-1.58-3.65-4.15-2.41-5.75l13.89-17.83c1.24-1.59,4.32-1.59,6.88,0Z"/><path class="cls-44" d="m632.74,1050.17s-215.92-7.07-219.36,68.95c-3.45,76.02,32.8,426.22,32.8,426.22,0,0,84.61,29.84,134,18.8,49.39-11.03,111.47-53.9,111.47-53.9,0,0-64.79-208.42-70.2-230.68-5.4-22.25-12.54-38.86-12.54-38.86.12.31,119.25-4.05,172.99-3.76,113.08.61,205.57,2.52,205.57,2.52,0,0-35.94-147.06-77.72-174.24-41.79-27.18-277.02-15.05-277.02-15.05Z"/><g><path class="cls-44" d="m541.23,1081.51s-25.98-64.41-31.33-95.27c-5.35-30.85-3.65-82.98-37.61-82.72-12.23.09-67.29.73-104.04,102.78-35.04,97.31-116.53,285.94-119.07,292.07-2.55,6.12,70.87,59.84,125.34,63.93,35.44,2.66,48.89-5.02,48.89-5.02,0,0,5.5-231.47,10.02-248.18,14.37-53.06,107.8-27.58,107.8-27.58Z"/><g class="cls-110"><path class="cls-25" d="m543.74,1087.77s-119.9-39.86-127.86,23.82c-7.95,63.68,3.76,256.96,3.76,256.96l104.05-87.74,20.05-193.04Z"/></g></g><g class="cls-108"><path class="cls-8" d="m538.73,1072.73c-.93.26,122.91,71.61,204.32,110.31,88.87,42.24,129.11,68.94,129.11,68.94,0,0,132,2.53,129.11-6.27-2.9-8.8-124.1-120.33-124.1-120.33l-275.77-52.65-71.45-2.5,8.78,2.5Z"/><path class="cls-30" d="m1244.23,1076.94c.2,125.02-170.22,226.65-380.64,226.99-210.43.34-381.16-100.75-381.37-225.77-.2-125.02,170.22-226.65,380.64-226.98,210.43-.35,381.17,100.73,381.37,225.76Z"/><path class="cls-21" d="m665.33,1319.68s-43.09-94.03-53.9-107.8c-10.82-13.77-32.59-43.87-32.59-43.87l31.33,73.96,55.16,77.71Z"/></g><path class="cls-44" d="m1152.94,1077.75c4.86,68.99-27.37,137.41-42.62,147.91-15.25,10.5-124.97,22.21-154.17,12.53-29.22-9.68-452.05-165.04-478.84-184.26-26.78-19.22-67.88-127.78-27.57-144.15,40.3-16.36,133.76-.88,266.99,18.8,49.13,7.26,212.35,116.86,254.63,118.88,87.88,4.22,64.99-27.04,87.15-38.54,22.35-11.59,89.38-3.13,94.44,68.82Z"/><g><path class="cls-71" d="m214.95,1509.36c19.07-1.69-3.1,28.79-10.03,8.77,8.74,2.16,13.17,0,10.03-8.77Z"/><path class="cls-71" d="m199.91,1523.14h3.76c8.65,8.57-3.89,22.78-12.54,13.79-.83-5.43,8.78-.41,10.03-3.76.28-4.04-2.22-5.31-1.25-10.03Z"/><path class="cls-71" d="m188.63,1544.46c1.88,1.55,4.69,2.84,5.01,3.76,3.88,11.09-15.84,19.44-18.8,6.27,5.72-.63,7.11,2.18,11.28,0,3.1-1.08-.37-8.72,2.51-10.02Z"/><path class="cls-71" d="m166.06,1559.49c18.73,4.06-3.43,28.14-10.02,11.28,1.67-2.11,8.38,2.09,11.28-1.25.27-4.04-2.22-5.31-1.26-10.03Z"/><path class="cls-71" d="m151.02,1575.78c16.61,3.39-5.42,27.12-8.76,10.02,4.99.69,3.77.69,8.76,0,1.25-4.9-2.77-7.27,0-10.02Z"/><path class="cls-71" d="m137.24,1592.08c15.17,1.99-.07,24.8-8.78,13.78-.82-5.42,8.78-.41,10.03-3.76,1.49-5.42-4.11-7.03-1.26-10.03Z"/><path class="cls-71" d="m549.59,1790.1c4.56-6.48,7.43-10.72-1.26-16.29-.12-6.06,11.61.28,12.54,2.51,3.09,7.43-3.33,18.52-11.28,13.78Z"/><path class="cls-71" d="m563.37,1807.65c.24.69.67,1.93.67,2.96s-.06,2.29-.67,3.32c-1.71,2.87-7.26,7.66-12.53,5.01,2.87-6.12,5.71-2.98,6.27-8.78.45-4.71-7.28-5.35-3.77-10.02,6.66-.81,9.79,6.83,10.03,7.52Z"/><path class="cls-71" d="m553.34,1822.69c10.78,2.96,4.94,23.42-5.01,18.81-.96-4.75,4.04-4.12,5.01-7.52,1.05-3.67-3.19-7.34,0-11.29Z"/><path class="cls-71" d="m543.32,1846.5h3.76c8.22,6.64-1.56,22.94-10.03,15.03.43-5.11,6.16-1.84,7.52-5.01,1.28-2.98-2.79-5.34-1.26-10.03Z"/><path class="cls-71" d="m533.29,1865.3c10.83,2.39,6.44,25.2-6.27,17.54,1.54-5.19,6.06-2.18,7.52-6.27.93-2.62-5.52-7.29-1.26-11.28Z"/><path class="cls-71" d="m520.76,1910.42h-3.76c-8.35-4.34-2.57-6.09,3.76-6.27,4.8-4.4-4.5-9.88,0-13.78,9.2,1.43,7.31,18.22,0,20.06Z"/></g><g class="cls-82"><g class="cls-100"><g class="cls-90"><path class="cls-51" d="m911.17.74c-.73,4.81-10.15,5.01-16.29,3.76-5.01-1.02-7.68-5.62-11.29-6.27-9.39-1.7-14.07,2.24-20.05,2.51-6.76.3-11.82-1.5-16.29-1.25-17.55.97-33.9,10.16-45.12,20.05-11.59,10.22-21.33,21.26-31.34,32.58-8.65,9.81-17.52,22.99-26.31,37.61-8.94,14.85-20.11,28.5-23.81,40.11-5.03,15.72-4.76,37.64-3.76,52.63.31,4.58,1.66,16.71,3.76,25.07,1.37,5.5,8.53,18.37,7.52,21.31.27-.8-4,1.75-5.01,2.51-2.02,1.51-2.3,3.83-5.01,3.76-2.07-7.29-5.55-13.28-8.77-21.31-.79-1.95-1.97-4.46-2.51-6.27-1.74-5.86-.49-12.61-3.76-17.54-2.22-3.36.3-.16-2.5-1.25-5.43-2.12-1.92-3.12-3.76-12.53-.58-2.96-2.53-4.74-2.5-6.27.03-2.3,2.64-14.24,3.76-18.8,1.89-7.74,6.19-20.31,10.02-32.58,3.71-11.88,5.62-27.94,10.03-32.59-.17.18,10.63-3.2,11.28-3.77,1.98-1.7,6.59-12.46,6.27-13.78-1.39-5.65,2.94-9.21,8.77-15.04,7.51-7.49,12.19-11.48,21.31-18.8,4.3-3.45,10.8-7.1,11.28-8.77,1.12-3.91-4.94-3.96-1.25-8.77,3.61-4.72,24.02-9.63,38.86-13.79,15.8-4.44,30.71-8.25,42.61-10.03,4.15-.62,7.86-1.88,11.27-1.25,4.05.73,7.01,4.56,10.03,5.01,8.79,1.29,27.79-6.32,32.59,3.76Z"/><path class="cls-57" d="m911.17.74c-.73,4.81-10.15,5.01-16.29,3.76-5.01-1.02-7.68-5.62-11.29-6.27-9.39-1.7-14.07,2.24-20.05,2.51-6.76.3-11.82-1.5-16.29-1.25-17.55.97-33.9,10.16-45.12,20.05-11.59,10.22-21.33,21.26-31.34,32.58-8.65,9.81-17.52,22.99-26.31,37.61-8.94,14.85-20.11,28.5-23.81,40.11-5.03,15.72-4.76,37.64-3.76,52.63.31,4.58,1.66,16.71,3.76,25.07,1.37,5.5,8.53,18.37,7.52,21.31.27-.8-4,1.75-5.01,2.51-2.02,1.51-2.3,3.83-5.01,3.76-2.07-7.29-5.55-13.28-8.77-21.31-.79-1.95-1.97-4.46-2.51-6.27-1.74-5.86-.49-12.61-3.76-17.54-2.22-3.36.3-.16-2.5-1.25-5.43-2.12-1.92-3.12-3.76-12.53-.58-2.96-2.53-4.74-2.5-6.27.03-2.3,2.64-14.24,3.76-18.8,1.89-7.74,6.19-20.31,10.02-32.58,3.71-11.88,5.62-27.94,10.03-32.59-.17.18,10.63-3.2,11.28-3.77,1.98-1.7,6.59-12.46,6.27-13.78-1.39-5.65,2.94-9.21,8.77-15.04,7.51-7.49,12.19-11.48,21.31-18.8,4.3-3.45,10.8-7.1,11.28-8.77,1.12-3.91-4.94-3.96-1.25-8.77,3.61-4.72,24.02-9.63,38.86-13.79,15.8-4.44,30.71-8.25,42.61-10.03,4.15-.62,7.86-1.88,11.27-1.25,4.05.73,7.01,4.56,10.03,5.01,8.79,1.29,27.79-6.32,32.59,3.76Z"/><path class="cls-76" d="m736.96,230.1c-4.48,5.78-10.8,7.13-12.54,17.55-.74,4.43,2.58,12.07-3.76,13.79-2.15-15.43-.92-31.86,16.29-31.34Z"/><path class="cls-76" d="m792.1,263.94c4.55,1.18,2.8,12.22,0,13.79-2.41-2.09-1.6-11.56,0-13.79Z"/><path class="cls-76" d="m790,386.61c-1.32,3.79-3.68,8.93-5.42,12.68-7.89,17.03-18.85,34.8-25.06,47.63-10.65,22.01-22.03,49.03-23.81,73.95-.76,10.56,1.51,19.44,1.25,27.57-.31,9.73-5.38,18.25-1.25,28.83,5.08-35.58,15.67-66.57,27.57-99.01,7.98-21.74,16.36-47.33,23.82-70.19,1.44-4.41,3.68-9.05,5.54-13.35-1.38-2.48-2.27-5.23-2.62-8.11Zm-12.94,37.75c-10.74,41.06-28.54,75.07-38.85,116.56.68-46.11,20.04-84.39,38.85-116.56-1.2-5.21,3.76-.26,0,0Z"/><path class="cls-73" d="m731.94,794.1c-14.31-36.08-31.11-72.1-43.86-109.04.99,2.86,3.23.91,3.75-1.25,1.99-8.18,1.61-19.29,2.51-30.08,5.11-61.74,11.52-126.29,18.8-184.24,1.35-10.76,1.42-22.18,3.76-30.08,1.57-5.31,7.48-13,12.53-20.06,4.61-6.42,9.13-13.17,15.04-17.54,4.36-3.23,7.71-3.51,13.79-6.27,4.99-2.27,26.55-15.45,31.7-14.3.06-.6.15-1.21.26-1.81.02-1.98-.12-3.96-.02-5.95.06-1.15.2-2.25.38-3.35-11.62,3.86-21.77,9.2-33.57,12.87,6.37-17.95,6.07-34.32,3.76-61.41-.91-10.6-1.86-32.07-8.78-31.33-8.55.91-4,32.08-3.76,37.59.36,8.16.42,16.94,0,30.08-.27,8.76.7,25.06-1.26,28.82-.12.25-6.57,3.72-8.77,5.02-20.39,12.05-28.42,32.02-35.1,56.4-1.92,7.03-4.37,14.6-5.01,21.3-1.04,10.83,2.19,21.96,2.5,33.84.34,12.97-3.33,27-5.01,41.35-4.92,42.14-7.24,90.6-12.53,127.85-2.13-1.92-2.89-5.86-5.02-11.28-1.27-3.23-2.77-11.36-5.01-12.53-1.25-.65-16.94,1.25-27.58,1.25-28.54,0-63.1,1.55-86.48,0-60.85-4.05-143.59-1.25-208.05-1.25-10.53,0-22.64,1.82-28.82,0-3.56-1.04-1.83-2.06-5.01-5.02-8.63-8.02-30.67-4.5-43.87-3.76-11.27.63-23.34-1.81-26.31,1.25-4.99,5.12,1.85,15.28-1.27,21.31,2.29,2.03,4.01-1.82,5.02-2.51,6.15-4.17,10.9-2.94,20.05-3.76,61.88-5.47,121.51-2.51,194.27-2.51,53.67,0,97.68-1.93,141.62,0,16.66.73,56.14-1.36,62.67,2.51,4.84,2.87,8.8,22.16,12.54,31.33,26.33,64.76,51.17,126.04,75.2,188,3.88,10.01,3.97,23.9,16.29,27.57.21-9.41-5.43-17.88-8.78-26.32-11.06-27.87-21.38-54.47-32.59-82.72Z"/><path class="cls-76" d="m943.76,485.78c.09-2.95-3.14,3.75-3.76,5.01-7.42,15.07-15.46,34.85-22.56,52.64-8.07,20.24-16.49,42.17-17.55,67.68-4.16-4.4-2.91-13.97-2.5-18.8,1.42-17.1,8.9-33.47,15.04-48.88,6.18-15.49,12.39-30.92,18.8-45.12,13.35-29.61,29.1-58.27,32.58-95.25,4.22,3.54,2.78,11.19,2.5,15.04-.54,7.89-3.91,17.24-6.26,26.32-6.41,24.69-14.33,49.77-21.31,73.95-9.94,34.42-15.67,68.33-23.81,104.03.01-50.11,16.82-94.31,28.82-136.62Z"/><path class="cls-76" d="m1097.43,758.31c-32.32,12.18-76.72,35.23-103.55,55.84-13.89,10.67-31.01,18.25-57.65,20.05-11.2.75-24.37,2.05-36.35,1.25-5.7-.38-12.88.73-13.78-7.52,14.79,2.03,30.17.38,46.37-1.25,9.52-.96,20.69-3.08,27.48-5.26,7.86-2.51,19.83-7.7,27.75-12.99,15.77-10.55,28.62-21.62,45.88-31.99,8.69-5.23,19.77-11.3,32.71-14.92,8.46-2.38,20.89-4.44,31.14-3.22Z"/><path class="cls-76" d="m891.11,841.73c-.86,4.49-5.14-1.35-5.01-1.25-9.49-6.89-20.71-15.59-31.33-23.82-11.21-8.69-24.03-19.09-37.6-27.58-4.46-2.79-9.37-4.86-13.79-7.52-4.79-2.88-9.06-7.48-12.53-8.77-7.04-2.61-30.13-4.52-35.09,1.25-2.8,3.26,3.99,1.81,2.5,8.78-.59,2.78-19.32,19.51-22.56,16.29-5.31-5.28,6.71-11.46,11.27-17.55,2.63-3.49,3.12-8.64,6.27-11.28,17.72-14.77,52.83,1.76,66.42,11.28,6.35,4.45,11.8,10.29,18.8,15.05,7.37,5,15.3,8.19,21.31,12.52,3.13,2.26,5.82,5.4,8.77,7.52,9.82,7.05,15.85,11.51,22.56,25.07Z"/><path class="cls-76" d="m419.86,1361.86c8.07-.94,8.31,13.21,10.02,21.31,9.98,46.99,14.15,97.76,21.32,151.66.92,7,5.49,19.17-1.26,21.3-10.85,3.44-11.49-27.96-12.53-37.59-1.58-14.56-3.47-31.42-5.01-43.86-5.59-45.21-13.83-73.53-12.54-112.8Z"/><path class="cls-76" d="m162.93,1423.27c10.39-2.28,7.65,17.58,10.03,28.83.8,3.79,2.77,8.53,3.76,13.78,2.27,12.07,2.94,15.9-2.51,23.81-4.78,6.92-4.81,7.27-11.28,5.02-1.16-.41-5.59.32-6.27-1.25-1.99-4.65,8.19-9.63,8.77-13.79.54-3.91-3.98-13.75-6.27-22.56-2.97-11.49-8.62-31.12,3.76-33.84Z"/><path class="cls-76" d="m150.4,1500.98c.5-.51,9.14-1.03,10.03,2.5,2.52,10.1-17.77,5.22-10.03-2.5Z"/><path class="cls-76" d="m142.88,1519.78c.63-.2,11.51-.8,11.27,6.27-.38,11.64-23.4,5.36-17.54-5.02.82-1.46,3.25-.32,6.27-1.25Z"/><path class="cls-76" d="m126.59,1539.83c7.97-5.81,19.13,7.18,15.04,11.28-4.77,4.8-23.54-5.1-15.04-11.28Z"/><path class="cls-76" d="m116.56,1558.64c4.67-4.68,17.58,2.67,15.04,8.77-2.51,6.05-21.05-2.77-15.04-8.77Z"/><path class="cls-76" d="m105.28,1578.68c5.31-5.31,16.66,1.51,15.04,7.52-2.43,8.96-21.72-.84-15.04-7.52Z"/><path class="cls-76" d="m475.01,1579.94c7.4-5.49,14.68,16.96,17.55,26.31,6.91,22.58,10.05,45.34,15.03,70.19,2.16,10.74,7.78,30.63-2.5,32.59-10.05,1.92-10.91-12.16-13.79-26.33-2.68-13.17-4.59-25.23-6.27-33.83-5.26-26.97-12.54-43.87-12.53-66.43,0-2.91.93-1.34,2.51-2.5Z"/><path class="cls-76" d="m10.03,1680.2c-3.12-.86-12.15-8.32-12.53-12.53-.48-5.42,9.99-18.89,17.55-25.07,2.15-1.76,5.05-2.02,7.51-3.75,12.19-8.63,29.74-19.31,42.61-28.82,8.08-5.98,15.77-12.17,25.07-16.3,7.08-3.14,13.41,4.85,13.78,7.52,1.07,7.71-12.36,13.68-20.06,18.8-9.65,6.42-16.23,10.81-22.55,15.04-23.64,15.81-41.27,22.8-51.39,45.12Z"/><path class="cls-76" d="m-6.27,1697.75c3.99-3.91,4.89,5.91,8.78,6.26-4.14,4.06-7.06-3.73-8.78-6.26Z"/><path class="cls-76" d="m481.28,1722.82c7.74-5.74,9.48,9.76,13.79,20.06,4.32,10.39,13.29,20.53,5.01,23.81-11.19,4.45-16.11-16.57-18.8-27.57-1.58-6.46-5.45-12.26,0-16.29Z"/><path class="cls-76" d="m497.57,1775.46c8.42-5.8,19.09,5.9,6.27,7.52-3.58.45-15.02-3.88-7.52-7.52.31-.15.97.19,1.25,0Z"/><path class="cls-76" d="m498.83,1795.51c1.37-.78,15.79-1.97,12.53,5.01-2.59,5.56-13.24,7.56-16.29,2.5-2.59-4.29,1.37-6.16,3.76-7.52Z"/><path class="cls-76" d="m495.07,1813.06c3.21-.74,6.43-1.85,8.77,1.25,10,13.25-24.86,13.08-13.78,1.25,2.47-2.63,1.62-1.72,5.01-2.5Z"/><path class="cls-76" d="m485.04,1830.6c3.33-2.04,21.75-1.23,16.29,8.78-4.39,8.06-27.72-1.76-16.29-8.78Z"/><path class="cls-76" d="m476.27,1850.66c2.81-2.2,25.97-2.92,18.8,8.78-1.31,2.12-6.12,2.82-10.03,2.5-5.56-.45-16.98-4.85-8.77-11.28Z"/><path class="cls-76" d="m471.25,1869.46c4.91-1.86,20.23,2.19,15.03,11.28-2.65,4.65-21.13,3.31-21.3-5.02-.11-5.66.08-3.92,6.27-6.26Z"/><path class="cls-76" d="m446.18,1894.52c6.72-1.16,8.27-1.84,10.03,1.25,2.52,4.42-9.13,15.42-11.29,18.8-10.25,16.13-20.99,43.12-21.3,66.43-.22,16.49,3.37,26.48-3.76,28.82-13.28,4.37-16.39-22.4-15.04-38.85,1.05-12.66,5.79-27.85,13.79-42.61,7.7-14.22,17.17-32.05,27.57-33.85Z"/><path class="cls-76" d="m971.33,469.48c3.62,4.11-3.3,8.34-2.51,13.79-3.19-3.68,2.61-9.04,2.51-13.79Z"/><path class="cls-76" d="m725.67,535.91c-3.68,20.55-13.51,45.81-11.27,76.45-4.81-2.29-6.04-12.27-6.27-20.06-.6-20.73,7.33-45.65,17.54-56.4Z"/><path class="cls-76" d="m429.89,920.68c-17.19,19.13-27.07,42.5-36.34,68.93-8.86,25.23-19.65,48.48-30.08,73.95-6.75,16.47-13.46,32.39-20.06,48.89-26.48,66.18-54.33,132.47-82.72,195.52-5.34.8-9.89-14.33-17.55-8.78-8.64,6.28,9.5,17.22,10.03,23.82.45,5.52-11.1,23.73-13.79,30.08-11.61,27.52-28.79,67.96-38.85,90.25-4.09-2.29-7.72-5.56-12.53-8.78-4.21-2.81-11.74-5.49-12.53-8.78-.73-3,5.97-14.83,8.76-21.31,8.51-19.65,13.35-32.16,22.57-52.64,1.73-3.86,4.99-7.64,5.01-8.77.04-3.77-4.1-2.84-5.01-8.78-.82-5.28,4.93-19.48,8.77-30.07,9.62-26.58,24.19-55.54,35.1-78.95,16.96-36.46,33.03-68.21,50.12-102.78,8.48-17.12,18.03-33.64,26.33-50.13,21.61-43,42.05-84.18,66.43-125.34,4.7-7.94,8.25-16.84,16.29-21.31,2.75-2.7,2.69.32,2.51,3.77,4.68-1.25,10.67-10.31,15.03-11.29,2.13-.48,2.38.99,2.5,2.5Zm-181.73,343.42c3.5-7.46,6.72-13.83,10.03-21.31,1.43-3.23,3.58-6.85,5.01-10.03,3.1-6.87,7.43-13.95,7.52-21.31-4.88,10.14-9.04,21.17-13.79,31.33-5.24,11.24-10.41,20.97-15.04,31.33-3.12,7.01-7.44,13.87-7.51,21.31,4.99-10.37,9.07-21.29,13.78-31.33Z"/></g></g></g></g></g></g></g></svg>